<?xml version="1.0" standalone="no"?>
<!DOCTYPE svg PUBLIC "-//W3C//DTD SVG 1.1//EN" "http://www.w3.org/Graphics/SVG/1.1/DTD/svg11.dtd" >
<svg xmlns="http://www.w3.org/2000/svg" xmlns:xlink="http://www.w3.org/1999/xlink" version="1.1">
<metadata>
Created by FontForge 20190801 at Sat Oct  4 15:17:07 2014
 By Unknown
Copyright (c) 2014 by Peter Wiegel.   Open Font under Terms of following Free Software Licenses:
GPL (General Public License) with font-exception and OFL (Open Font License
</metadata>
<defs>
<font id="Teutonic" horiz-adv-x="410" >
  <font-face 
    font-family="Teutonic"
    font-weight="400"
    font-stretch="normal"
    units-per-em="1000"
    panose-1="0 0 0 0 0 0 0 0 0 0"
    ascent="750"
    descent="-250"
    x-height="496"
    cap-height="665"
    bbox="-74.0645 -261 946 901"
    underline-thickness="50"
    underline-position="-100"
    unicode-range="U+0020-F6D6"
  />
<missing-glyph horiz-adv-x="224" 
 />
    <glyph glyph-name=".notdef" horiz-adv-x="224" 
 />
    <glyph glyph-name="W" unicode="W" horiz-adv-x="665" 
d="M26 657q31 -3 62 -1.5t62 1.5q39 0 73 -7q-2 -13 -11.5 -23.5t-20.5 -20.5t-20 -20t-9 -23q0 -4 0.5 -7t1.5 -7q14 -77 29.5 -160t22.5 -161h11q4 12 12 34.5t18.5 49.5t22.5 56.5t23.5 55.5t22.5 45t19 27q20 -21 35.5 -60.5t29 -82t26.5 -79.5t28 -52q3 10 8.5 38.5
t12 66t13.5 79.5t12.5 79t9.5 64.5t4 36.5t-5.5 17t-13.5 15.5t-16 14t-14 13.5q11 5 22 7t22 2h102q11 0 22 -2t22 -7q-6 -21 -21 -35t-31 -27q-3 -8 -10.5 -46.5t-17.5 -91.5t-20.5 -113.5t-19 -113.5t-14.5 -91t-6 -45q0 -6 6 -16t14 -20.5l16 -21t12 -18.5
q-40 -8 -80 -6t-79 -1q-6 2 -15.5 5t-9.5 11q0 5 6 11.5t13 15t13 17.5t7 20q-10 26 -20.5 57t-21.5 62.5t-21.5 62.5t-19.5 57h-11q-6 -12 -19.5 -48.5t-28 -77.5t-26 -75.5t-11.5 -43.5l1 -8q11 -16 26.5 -26.5t23.5 -28.5q-18 -9 -42.5 -10t-44.5 -1q-23 0 -51.5 -0.5
t-51.5 7.5q2 13 10 22.5t16.5 18t16 18t7.5 22.5q0 9 -6 44t-13.5 76.5t-14.5 79t-10 51.5q-11 54 -20 108t-20 108q-3 12 -12 24t-18.5 23t-17.5 19.5t-8 13.5q0 6 2 11.5t4 10.5z" />
    <glyph glyph-name="a" unicode="a" horiz-adv-x="374" 
d="M152 511q14 0 33.5 -4.5t38.5 -12.5t35.5 -18.5t24.5 -22.5q4 -6 5 -14.5t1 -17.5t-1 -18t-1 -16q0 -9 1.5 -33t5 -55t7 -66t8 -66t8 -54.5t6.5 -32.5q6 -19 18.5 -33.5t20.5 -31.5q-29 -8 -59 -11.5t-60 -3.5q-4 14 -6 29t-5 29q-12 -9 -23.5 -19t-24 -18.5t-26.5 -14.5
t-29 -6q-23 0 -45 11t-38.5 29t-26 40t-9.5 45q1 35 15 61t34.5 45t45 32t46 22.5t37 16t19.5 12.5q0 14 -0.5 36.5t-5.5 44t-16 37t-32 15.5q-10 0 -18 -7.5t-16 -16t-16.5 -16t-20.5 -7.5q-8 0 -16.5 4t-15 10.5t-10.5 14.5t-4 17q0 16 13.5 28t31.5 20.5t37.5 12.5
t32.5 4zM103 139q0 -20 11.5 -37t34.5 -17q10 0 23 7.5t24.5 18t19.5 23t8 23.5q0 22 -3 43t-11 41q-17 -6 -36 -15t-34.5 -21t-26 -28.5t-10.5 -37.5z" />
    <glyph glyph-name="A" unicode="A" horiz-adv-x="487" 
d="M108 668q6 0 13 -2t13 -4q21 -7 43 -7h44q38 0 76 -1.5t76 -1.5q26 0 50.5 1t48.5 6l11 -12q-8 -17 -21.5 -31.5t-21.5 -31.5q0 -11 -1 -21.5t-1 -22.5q-1 -38 -1.5 -76.5t-0.5 -75.5q0 -36 -0.5 -77t-0.5 -82t0.5 -81.5t3.5 -74.5q1 -10 8 -17.5t16 -14.5t17.5 -14
t11.5 -16q-22 -5 -43.5 -7t-43.5 -2h-55.5t-52.5 13q9 10 18.5 19t16.5 18t12 20.5t5 26.5q0 35 -2 68.5t-1 68.5q0 8 -0.5 14t-2.5 11q-17 4 -32 3.5t-32 4.5q-18 5 -37.5 10.5t-39.5 5.5l-14 -1q-11 -6 -19.5 -31.5t-14.5 -56t-9.5 -59t-3.5 -40.5l1 -24q6 -10 14 -17.5
l16 -15t15 -16t12 -18.5q-42 -2 -82.5 -2.5t-81.5 -0.5q-8 0 -15.5 1.5t-13.5 6.5q2 9 8 16t13 13t14.5 12t13.5 14q9 35 12 72t13 72q8 29 14 56.5t14 55.5q22 70 55 137t65 133q-10 2 -19 3.5t-19 1.5q-21 0 -38.5 -5.5t-32 -12t-25.5 -12t-19 -5.5q-9 7 -9 19
q0 6 3.5 20.5t9.5 29.5t13.5 26t15.5 11zM205 376q27 -8 54.5 -17t56.5 -9q17 0 23.5 7t6.5 24q2 54 2.5 109.5t-10.5 108.5q-25 -6 -47 -33.5t-39 -62.5t-29 -70.5t-18 -56.5zM205 347q-8 -4 -12.5 -10t-8.5 -12q35 -15 73 -22.5t76 -10.5q2 7 4.5 14.5t6.5 15.5
q-35 4 -70 14.5t-69 10.5z" />
    <glyph glyph-name="zero" unicode="0" horiz-adv-x="388" 
d="M207 613q40 0 75 -25.5t55 -58.5q18 -30 27 -65t13 -72t4 -74t-1 -71q-1 -42 -10 -89t-30 -86t-55.5 -65t-85.5 -26q-49 0 -81.5 18.5t-53.5 49t-31 69.5t-14 81t-3.5 83.5t0.5 75.5q1 46 10.5 91.5t31.5 82t58.5 59t90.5 22.5zM104 372q-1 -60 0.5 -120.5t6.5 -120.5
q4 -33 24 -59t56 -26q32 0 51.5 22.5t29.5 54t13.5 65.5t3.5 57q2 60 -1 120.5t-14 119.5q-5 26 -25 45t-47 19q-33 0 -52 -18.5t-29 -46t-13 -58t-4 -54.5z" />
    <glyph glyph-name="two" unicode="2" horiz-adv-x="386" 
d="M197 648q39 0 71.5 -10.5t56 -31t36.5 -51.5t12 -72q-1 -34 -14 -68t-34 -68.5t-46.5 -68.5t-51.5 -67t-49 -65t-38 -62q17 5 33 6.5t33 1.5t34.5 -3t34.5 -3q16 0 28 3t22.5 8l21 10t24.5 10q2 -5 4 -11t2 -12q0 -7 -7 -22t-16 -31.5t-18 -31t-14 -20.5q-32 12 -65 16
t-66 4q-32 0 -64.5 -1.5t-64.5 -1.5q-5 0 -14 -0.5t-17.5 0.5t-15 4.5t-6.5 11.5q12 29 37 67t55 79.5t61 85.5t57 85t43 77.5t17 63.5q0 17 -7.5 33t-20 28.5t-29 20t-32.5 7.5q-27 0 -45 -9t-29 -22.5t-18 -29t-12.5 -29t-11.5 -22.5t-15 -9q-17 0 -22 15t-4 29
q0 34 13.5 62.5t36 49.5t52 32.5t62.5 11.5z" />
    <glyph glyph-name="three" unicode="3" horiz-adv-x="395" 
d="M215 656q25 0 52 -9t48.5 -25.5t35.5 -40t13 -52.5q0 -22 -10.5 -39.5t-24.5 -32.5t-29 -29t-25 -30q9 -10 20 -18l22 -16t20.5 -17.5t16.5 -21.5q14 -27 24 -65.5t9 -69.5q-1 -54 -23 -108.5t-59.5 -98t-87.5 -70.5t-108 -27q-13 0 -30.5 4t-33 12.5t-26.5 20.5t-11 28
q0 14 6.5 23.5t16.5 15t22 8t24 2.5q15 0 25.5 -6.5t20 -14t19 -13.5t23.5 -6q8 0 14 3q33 13 54.5 37t33.5 53.5t17 62t5 64.5q0 22 -4 44t-13.5 42t-25.5 35.5t-38 23.5q-15 5 -31 2.5t-31 -2.5v25q17 20 37.5 36.5t38 34t30 39t12.5 52.5q1 31 -16.5 51.5t-49.5 20.5
q-38 0 -59 -16.5t-33.5 -37t-20 -37t-16.5 -16.5q-14 0 -18 13t-4 23q0 29 16 55t41 45.5t54.5 31t56.5 11.5z" />
    <glyph glyph-name="four" unicode="4" horiz-adv-x="414" 
d="M343 642q0 -12 -5.5 -21t-13 -17.5t-14 -17.5t-8.5 -20q-2 -14 -1.5 -27.5t0.5 -27.5q-2 -63 -4.5 -125t-3.5 -125q-1 -16 3.5 -28t24.5 -12q13 0 22 7t17 16.5t16 18t20 11.5q8 -8 9 -20.5t1 -23.5q-1 -29 -1.5 -61t-8.5 -60q-12 3 -20.5 12t-16 18.5t-16.5 17t-22 7.5
q-9 0 -21 -7t-13 -18q0 -27 2.5 -41.5t8.5 -26t14.5 -23.5t19.5 -33q-42 -6 -84 -6t-84 6q4 11 12 20t15.5 18t13 18.5t5.5 22.5q0 7 0.5 16.5t0 19t-2.5 18t-8 13.5q-14 3 -29 4t-29 1q-29 0 -58.5 -2.5t-58.5 -2.5q-7 0 -10 7t-3 12q0 15 13 54.5t33 90t45 105.5t49.5 101
t46 76t35.5 32q27 3 54.5 3h54.5zM214 522q-9 -11 -21.5 -33t-25.5 -50.5t-26.5 -60.5t-24.5 -61.5t-18.5 -54.5t-9.5 -39q24 -3 49 -3q26 0 50 3q14 -5 21 10t9.5 36.5t2 43.5t-0.5 30q1 43 2.5 90t-7.5 89z" />
    <glyph glyph-name="five" unicode="5" horiz-adv-x="390" 
d="M326 650q7 0 12 -3.5t5 -11.5q0 -7 -4 -18.5t-10 -24t-12 -24t-10 -17.5q-20 8 -41.5 13.5t-44.5 5.5t-49 -8q-7 -7 -10 -16t-3.5 -19t-1 -19.5t-1.5 -18.5q32 -14 63 -23.5t60 -31.5q54 -42 79.5 -100t24.5 -126q-1 -62 -27 -119t-69.5 -100.5t-100 -69.5t-119.5 -26
q-23 0 -37 5.5t-22 28.5q23 5 45.5 4.5t45.5 6.5q43 12 78 37t60 58.5t38.5 74t14.5 85.5q1 44 -10.5 83.5t-35 69.5t-58.5 47.5t-81 17.5q-11 0 -21.5 1t-20.5 4q6 44 15 86t14 86q2 14 6.5 30t19.5 21q9 3 26 3t36.5 -1t37.5 -2t29 -1q21 0 40 6t39 6z" />
    <glyph glyph-name="six" unicode="6" horiz-adv-x="383" 
d="M343 620v-18q-40 -23 -79 -46.5t-70.5 -52.5t-53.5 -67t-28 -89q16 10 27 22t22.5 22t26.5 17t38 7q36 0 64 -20t47 -50.5t29 -66t10 -66.5q-1 -41 -13.5 -81.5t-37 -72t-59.5 -51t-81 -19.5q-47 0 -80 26t-53.5 65t-29.5 84t-9 83q1 27 6.5 58t14.5 62.5t22 60.5t29 51
q21 29 51 54t64.5 43.5t71 30.5t71.5 14zM103 204q-1 -24 1.5 -49.5t11.5 -47t27 -35.5t49 -14q25 0 42.5 15t28.5 36.5t16 46.5t5 45q0 19 -2 44.5t-10 48t-23.5 38t-41.5 15.5t-45.5 -14t-32.5 -35t-19.5 -46.5t-6.5 -47.5z" />
    <glyph glyph-name="seven" unicode="7" horiz-adv-x="394" 
d="M57 646q32 -10 72.5 -16t73.5 -6q45 0 91.5 -0.5t90.5 7.5q2 -2 5.5 -7.5t3.5 -8.5l-1 -5q0 -8 -20.5 -40t-50.5 -82.5t-64.5 -117.5t-62.5 -145t-45 -165t-11 -177q-3 -8 -1.5 -19.5t-6.5 -16.5l-11 -1q-8 0 -8 8q-11 9 -16.5 30t-8.5 45t-3.5 47.5t-0.5 37.5
q1 54 9.5 101.5t19.5 99.5q10 47 26.5 89.5t36 84t40 82t38.5 84.5q-24 4 -48 5.5t-49 1.5q-35 0 -69 -4t-69 -14l1 7q0 26 13 49.5t25 45.5z" />
    <glyph glyph-name="eight" unicode="8" horiz-adv-x="376" 
d="M224 620q22 0 45 -9.5t42 -25.5t31 -37.5t12 -44.5q-1 -30 -12.5 -46t-29.5 -23.5t-40.5 -10.5t-43.5 -7q-12 -11 -19 -29q27 -27 55.5 -48t52 -45t38 -55t13.5 -78q-1 -37 -16.5 -68.5t-41.5 -55t-59 -36.5t-69 -13q-38 0 -69.5 14.5t-54 39t-35 57t-11.5 69.5
q1 36 15.5 63t31.5 47.5t31.5 36t14.5 27.5q0 4 -2 8q-15 17 -26.5 30.5t-19.5 28t-11.5 31.5t-3.5 41q0 18 7.5 36t19.5 33.5t27 29t30 22.5q18 11 47.5 14.5t50.5 3.5zM121 484q0 -26 11.5 -49.5t37.5 -33.5q14 32 32.5 61.5t49.5 48.5l20 -55q11 6 22.5 12t18.5 17
q2 47 -21.5 68t-70.5 21q-18 0 -35.5 -7t-32 -19t-23.5 -28.5t-9 -35.5zM153 307q-6 -11 -14.5 -27t-17 -34t-15 -35t-6.5 -29q0 -20 3 -43t12.5 -43t26 -33t42.5 -13q17 0 34 7.5t30.5 20.5t22 29t8.5 34q1 67 -32 105t-94 61z" />
    <glyph glyph-name="nine" unicode="9" horiz-adv-x="387" 
d="M193 621q57 0 93.5 -32t58 -79.5t29.5 -101.5t7 -98q-1 -72 -23 -143.5t-62.5 -132t-99 -104.5t-133.5 -61l-4 21q54 34 93 69.5t66.5 76t44.5 89.5t28 112q-24 -15 -34.5 -27t-20.5 -19.5t-26 -11.5t-51 -4q-15 0 -30 9t-29.5 22t-26 27.5t-18.5 25.5q-21 32 -30.5 66.5
t-8.5 72.5t12.5 77.5t34 72t55 53t75.5 20.5zM113 415q0 -23 2.5 -52.5t12 -55.5t28 -44.5t48.5 -18.5q21 0 37 13.5t27 33t17 41.5t6 39q0 20 -2.5 51t-11 60.5t-25 50.5t-43.5 21q-31 0 -50 -12.5t-29 -32t-13.5 -44.5t-3.5 -50z" />
    <glyph glyph-name="B" unicode="B" horiz-adv-x="589" 
d="M372 666q29 0 56 -9t48 -26t33 -42t11 -56q-1 -45 -24.5 -69.5t-59.5 -43.5v-11q41 -17 69 -40.5t45.5 -53t24.5 -66t6 -80.5q-1 -67 -26.5 -121.5t-68 -93t-99.5 -59.5t-122 -21q-21 0 -41.5 2t-41.5 4q-30 2 -61 15.5t-56 35.5t-40.5 51t-14.5 62q0 17 6.5 36t18 34.5
t27 26t35.5 10.5q13 0 22.5 -10.5t9.5 -23.5q0 -2 -0.5 -4t-0.5 -4q-10 -10 -19 -16t-16 -12.5t-11 -16t-4 -25.5q-1 -27 17 -46t44.5 -31t55 -18t49.5 -6q56 0 99 18t71.5 50t43.5 77t16 99q0 27 -5.5 57.5t-18.5 57.5t-34.5 46t-53.5 22q-20 2 -38.5 4.5t-38.5 2.5
q-1 -26 -2 -52.5t-1 -52.5q-2 -83 3 -165q1 -17 7 -28.5t14 -22t15.5 -20.5t12.5 -24q-26 -5 -54 -7t-55 -2q-7 0 -20.5 -0.5t-27 0.5t-24 5.5t-10.5 13.5q0 8 7.5 15t16 16.5t16 23t7.5 35.5q2 105 -2 208.5t-2 208.5q0 21 -5.5 34t-13 23.5t-14.5 20.5t-9 26
q54 11 114 24.5t114 13.5zM282 569q0 -7 -0.5 -24t-0.5 -35t0.5 -33.5t2.5 -20.5q2 -6 11 -8.5t14 -2.5q20 0 39 3t34 11.5t24.5 23.5t9.5 39q0 12 -3 23.5t-9 21.5t-15.5 16t-22.5 6q-22 0 -43 -6t-41 -14z" />
    <glyph glyph-name="C" unicode="C" horiz-adv-x="411" 
d="M274 671q5 0 19.5 -1.5t30.5 -3.5t30 -4t17 -4q11 -20 20 -43t8 -48l-1 -12q-28 10 -49.5 18t-51.5 8q-53 0 -87.5 -24.5t-54 -63t-27.5 -84.5t-9 -89q-1 -56 9 -114t33.5 -109.5t62 -92.5t94.5 -62q20 -8 42 -9.5t42 -12.5q-4 -14 -8 -22t-10 -12t-15 -5t-24 -1
q-42 0 -78 17.5t-70 40.5q-56 38 -91 90.5t-54.5 112.5t-26.5 125.5t-6 128.5q1 33 14 70.5t35 72.5t49.5 64.5t56.5 44.5q46 24 100 24z" />
    <glyph glyph-name="D" unicode="D" horiz-adv-x="548" 
d="M285 667q50 0 88.5 -17t67.5 -46t48.5 -67t31.5 -80.5t17 -87t4 -85.5q-1 -71 -19 -141.5t-56 -127.5t-97 -92.5t-142 -35.5q-20 0 -42.5 1.5t-44.5 6.5t-42 13.5t-35 22.5q-22 19 -38.5 50t-15.5 60q0 14 4.5 31.5t13.5 32.5t22 25t30 10l9 -1q9 -5 16 -13.5t7 -19.5
l-1 -7q-11 -13 -24.5 -24.5t-13.5 -28.5q0 -26 11.5 -45t30 -31t42 -17.5t46.5 -5.5q68 0 114 32.5t74 82t40.5 109.5t13.5 116q0 28 -2.5 62t-10 68t-20.5 66t-33 57t-47 40t-63 15q-11 0 -18.5 -8.5t-7.5 -19.5v-9q5 -114 9 -228t2 -228q0 -11 5.5 -23.5t14 -25
t16.5 -24.5t13 -22q-20 -5 -41 -6.5t-42 -1.5h-53t-50 12q0 12 7.5 22.5t16.5 19.5t17 18t8 20q0 35 -3 69.5t-2 69.5q1 57 0 113t0 113q1 28 -0.5 59.5t-8.5 57.5q-2 7 -9 14.5t-14.5 14.5t-13.5 12.5t-6 9.5q0 14 7.5 17t18.5 5q38 6 75 13.5t75 7.5z" />
    <glyph glyph-name="E" unicode="E" horiz-adv-x="464" 
d="M361 679q6 0 15 -12.5t17.5 -28.5t15 -31t6.5 -21q0 -7 -4 -13.5t-12 -6.5q-2 0 -14.5 4.5t-30 9.5t-39 9.5t-41.5 4.5q-26 0 -52.5 -2t-52.5 -4q-3 -20 -4 -40.5t-1 -40.5q0 -6 5 -10.5t10 -7.5h66q42 0 86.5 1t84.5 14q0 -9 -4 -27.5t-10 -38t-15 -34t-19 -14.5
q-6 0 -12.5 4.5t-13 9.5l-13 10t-13.5 6q-23 4 -48 4.5t-48 0.5h-20.5t-17 -2.5t-12 -9t-4.5 -20.5v-17q4 -72 6 -142.5t4 -142.5q17 3 34.5 5t35.5 2q28 0 55.5 -6t55.5 -6q15 0 26 5t21 10.5t20 10.5t22 5q9 -11 9 -20q0 -5 -5.5 -21t-12.5 -35t-13 -36t-9 -23
q-27 2 -52.5 11.5t-53.5 10.5q-19 1 -37.5 1h-37.5q-48 0 -93.5 -2.5t-93.5 -2.5q-8 0 -14 7t-6 15q0 7 7.5 13.5t16.5 17.5t16.5 30t7.5 51q1 35 -1.5 70t-1.5 70q0 25 1.5 49.5t2.5 49.5v42t-0.5 56.5t-2 55.5t-3.5 39q-2 10 -10 22t-17 24t-16 21.5t-7 13.5q0 8 8.5 10.5
t14.5 3.5q47 5 93.5 3.5t93.5 -1.5q37 0 70.5 8t60.5 8z" />
    <glyph glyph-name="F" unicode="F" horiz-adv-x="388" 
d="M333 675q2 1 5 1q4 0 8.5 -3l7.5 -5q28 -44 31 -95q-15 0 -31 3.5t-33 7.5t-35 7.5t-37 3.5q-24 0 -47.5 -3t-46.5 -8q0 -23 0.5 -45.5t6.5 -45.5q23 0 46.5 -0.5t46.5 -0.5q33 0 65 2.5t64 12.5q2 -5 2 -9v-9q-1 -26 -14 -47.5t-23 -43.5q-47 16 -90.5 19t-91.5 3l-7 -8
q-2 -78 1 -155t5 -155q0 -14 8 -24.5t17 -20.5t16.5 -20.5t7.5 -25.5q-20 -4 -38.5 -5t-38.5 -1q-25 0 -49.5 0.5t-48.5 1.5q-14 0 -14 16q0 1 1.5 4.5t2.5 5.5q11 11 24.5 27.5t14.5 33.5q0 7 -0.5 13t-1.5 13q-3 44 -2.5 86t1.5 86q1 35 -2 71.5t-3 71.5q-1 37 1.5 77
t-2.5 76q-1 8 -7 15.5t-13.5 15t-13.5 15.5t-6 16q0 3 1 6.5t1 7.5q41 0 80.5 -0.5t80.5 -0.5q40 0 75.5 3.5t74.5 8.5z" />
    <glyph glyph-name="G" unicode="G" horiz-adv-x="447" 
d="M247 674q20 0 42 -0.5t42 -1.5q8 0 17 -12.5t16.5 -28t12.5 -31.5t5 -24q0 -4 -0.5 -7t-1.5 -7q-30 5 -58 16.5t-59 11.5q-39 0 -66.5 -19.5t-45.5 -49t-26.5 -65t-8.5 -67.5q-1 -37 3.5 -78.5t17 -81t33.5 -73.5t53 -57q14 -10 28.5 -19t31.5 -9q4 0 12 2q0 10 0.5 32.5
t0.5 52v61t-1 59t-2.5 47.5t-3.5 25q-8 20 -24 34.5t-23 35.5l12 11q37 0 73.5 -1.5t73.5 -1.5q9 0 18 -1t17 -4q-10 -26 -18.5 -36.5t-15.5 -21t-11 -27t-5 -53.5q-1 -52 0.5 -104t3.5 -104q4 -9 11 -15.5l14 -13t13 -13.5t8 -17q-32 -20 -58 -25.5t-63 -5.5
q-80 0 -137 38.5t-93.5 98.5t-53 133t-15.5 141q1 50 16 99.5t44.5 88.5t72 63.5t98.5 24.5z" />
    <glyph glyph-name="H" unicode="H" horiz-adv-x="500" 
d="M288 664q39 3 79.5 3.5t80.5 0.5q10 0 19 -4t17 -7q-6 -23 -14.5 -30.5t-16 -16.5t-13 -26t-6.5 -59v-53v-84t0.5 -98.5t1.5 -95.5t2 -75.5t3 -38.5q1 -5 7.5 -12.5t14 -16t15 -16t10.5 -13.5q0 -10 -3.5 -15t-9.5 -7t-14 -2h-15q-38 0 -78 2.5t-78 6.5q3 10 10 20.5
t14 20t13 17.5t8 15q6 21 6 49.5v51.5q1 51 0 101t0 101q0 8 -2.5 14t-11.5 8q-23 3 -46 3.5t-46 0.5q-17 0 -34.5 -1t-34.5 -3q2 -73 3 -145t-1 -145q0 -23 7.5 -37t17 -24.5t17 -21t7.5 -25.5q-41 -2 -81.5 -4.5t-81.5 -2.5q-20 0 -37 11q7 21 16.5 31t17.5 19.5t14 24.5
t6 47q1 36 -0.5 72t-1.5 72q0 74 2 152.5t-8 150.5q-1 10 -7 19t-13 18.5t-13.5 19t-9.5 20.5q26 4 50.5 5.5t49.5 1.5q49 0 99 -3q-4 -15 -13.5 -26l-19 -22t-17 -23.5t-7.5 -29.5q0 -11 2 -22.5t4 -22.5q42 0 84 1t84 -1q1 5 1.5 9.5t0.5 9.5q1 34 -7 52t-17.5 29
t-17.5 20.5t-8 28.5zM171 474q0 -5 -2 -9t-2 -9q5 -5 10.5 -6t11.5 -1h146q7 7 7 15q-20 9 -45.5 10t-47.5 1q-20 0 -39 -0.5t-39 -0.5z" />
    <glyph glyph-name="I" unicode="I" horiz-adv-x="225" 
d="M182 665q18 0 33 -4q-8 -17 -17.5 -33.5t-17.5 -33t-14 -34t-6 -37.5l1 -12q1 -53 0.5 -106.5t-1.5 -107.5t0 -107.5t7 -105.5q1 -7 7 -16t14 -18.5t15.5 -19.5t10.5 -19q-29 -8 -63 -7.5t-65 0.5q-17 0 -33.5 1t-32.5 6q0 14 8 23t17 20t17 28.5t8 48.5q2 110 -1.5 219
t-1.5 219q0 12 -5.5 23t-13.5 21.5l-16 21t-12 22.5q40 7 81.5 7.5t80.5 0.5z" />
    <glyph glyph-name="J" unicode="J" horiz-adv-x="366" 
d="M195 657q28 0 56 1t56 1q14 0 28 -0.5t28 -1.5q-4 -11 -11 -20.5l-14 -19t-12 -19.5t-5 -22q-2 -78 0 -156.5t2 -156.5q-1 -60 0.5 -118.5t9.5 -118.5l-1 -8q0 -25 -17.5 -51t-42 -48.5t-52.5 -39t-50 -21.5q-15 -4 -30 -6.5t-31 -2.5t-34.5 4.5t-34 13.5t-26 23
t-10.5 33q0 10 6 19.5t15 16.5t20 11.5t21 4.5q13 0 25 -8t23.5 -18t22.5 -18t23 -8q21 0 34.5 15t21.5 36.5t12 44.5t4 39q2 128 -1 253.5t-1 253.5q1 26 -13 41.5t-31 32.5z" />
    <glyph glyph-name="K" unicode="K" horiz-adv-x="542" 
d="M60 657q16 8 38 8q14 0 27 -2t27 -2q15 0 30 3t30 3q8 0 21 -3.5t12 -14.5q0 -10 -7 -17t-15 -16.5t-15.5 -23.5t-7.5 -38q0 -11 -0.5 -31t-0.5 -41t1.5 -39.5t5.5 -26.5q16 11 37 32.5t40 46.5t32.5 50.5t13.5 45.5v8q-9 12 -21.5 24t-12.5 29q0 3 1 6l2 6q42 0 82.5 1
t81.5 1q6 0 12 -1.5t11 -3.5q-9 -23 -29 -40t-35 -37q-9 -13 -16 -27t-15 -28q-14 -23 -29.5 -45.5t-29.5 -45.5q-2 -2 -2.5 -3.5t-0.5 -4.5q0 -4 7 -19t16 -33t17.5 -34.5t11.5 -22.5q4 -9 12 -29t18.5 -45.5t21.5 -53t20.5 -51t17.5 -41t11 -21.5q7 -9 15.5 -16.5
t15.5 -16t12.5 -18.5t6.5 -22q-31 0 -62 -0.5t-62 -0.5h-31t-31 1q-5 3 -10.5 6t-11.5 5q5 7 12.5 15t15 16.5t12.5 17.5t5 17t-7 29.5t-17.5 50t-24 60.5t-26 60.5t-22.5 50.5t-15 30q-12 -12 -22.5 -17t-18 -10.5t-12 -15t-4.5 -30.5v-47t2 -68t6 -65t11 -39
q10 -12 20 -23.5t19 -23.5v-19q-10 -2 -20 -2h-21q-15 0 -36 -0.5t-43.5 0.5t-43 3t-33.5 7q9 19 25 32.5t24 32.5q2 21 3 42.5t2 42.5q1 28 -1 55t-8 54q-13 -8 -27 -17.5t-14 -26.5q0 -3 3.5 -8.5t7.5 -11.5t8 -12.5t6 -11.5q-7 -22 -29 -22q-9 0 -17.5 5.5t-15.5 13.5
t-10.5 17.5t-3.5 18.5q1 38 15 59.5t31 36t31.5 25t15.5 25.5q2 17 2.5 32.5t1.5 32.5l1 135q0 14 -6.5 25.5t-15 22l-17 21t-12.5 23.5z" />
    <glyph glyph-name="L" unicode="L" 
d="M20 657q23 3 45 4t44 1h83q8 0 14.5 -3.5t13.5 -8.5q-7 -11 -17 -20.5t-19.5 -19.5t-16 -21.5t-6.5 -25.5q-2 -119 1.5 -237.5t1.5 -237.5q14 0 27 0.5t27 0.5q21 0 40.5 -5.5t40.5 -5.5q10 0 22 3.5t24.5 9t25 10.5t23.5 8q7 -16 6 -28q0 -6 -4 -20.5t-9.5 -29.5
t-12 -28.5t-11.5 -17.5h-7q-19 0 -35.5 8.5t-34.5 10.5q-17 2 -34.5 1.5t-34.5 -0.5q-45 0 -87.5 -2.5t-87.5 -2.5q-7 0 -14.5 4.5t-7.5 12.5q0 5 6 11.5t13.5 13.5t14.5 14t10 13q3 7 5 17t3 21t1.5 21t0.5 18q2 97 -0.5 191.5t-1.5 191.5q1 31 -7 49t-18 30t-18.5 22
t-8.5 27z" />
    <glyph glyph-name="O" unicode="O" 
d="M210 671q64 0 102.5 -37t59.5 -91t27.5 -115t5.5 -109q-1 -32 -3.5 -70t-10 -76.5t-20.5 -74.5t-34.5 -63.5t-53 -44t-75.5 -16.5q-43 0 -74.5 18.5t-53 49.5t-34.5 70t-20 80.5t-9 81.5t-2 72q1 47 8.5 103.5t28.5 106t59 82.5t99 33zM117 361q0 -18 -0.5 -48t1 -64.5
t6.5 -69.5t16 -63t29 -46t45 -18q31 0 49 25t27.5 59.5t12.5 70.5t3 58q0 18 0.5 49.5t-2 68t-7.5 74.5t-16 69t-28 50.5t-43 19.5q-35 0 -54 -27.5t-27.5 -66t-10 -78t-1.5 -63.5z" />
    <glyph glyph-name="P" unicode="P" horiz-adv-x="431" 
d="M271 673q33 0 61 -11t48.5 -30.5t32 -47.5t10.5 -61q-1 -51 -29 -89.5t-68.5 -68.5t-86.5 -54.5t-82 -48.5q2 -43 -0.5 -86.5t0.5 -85.5q1 -12 9 -21.5t17 -18.5t15.5 -19.5t5.5 -24.5q-47 -6 -94 -6q-16 0 -28 -0.5t-22.5 1t-21.5 5t-24 11.5q16 28 25 39.5t14.5 22
t7 26.5t2.5 53q2 87 1 172.5t1 172.5q0 27 -1.5 42.5t-5 24t-8.5 12.5t-11 9.5t-12.5 13.5t-12.5 25q9 4 28.5 8.5t44.5 9.5t53 9.5t53.5 8t46 5.5t31.5 2zM159 565q-1 -51 -3 -104t3 -104q23 8 51.5 24t54 37.5t43 47t17.5 52.5q0 21 -7.5 36t-20.5 24.5t-30 13.5t-35 4
q-9 0 -21.5 -0.5t-24 -3.5t-19.5 -9t-8 -18z" />
    <glyph glyph-name="Q" unicode="Q" horiz-adv-x="418" 
d="M212 678q68 0 107.5 -37t59.5 -92t24.5 -117t3.5 -113q-1 -38 -4.5 -76t-13 -74.5t-26.5 -70t-45 -63.5q-14 -15 -32 -25.5t-38 -19t-41 -15.5l-39 -13v-11q6 -2 22 -7.5t33 -11t30.5 -10t16.5 -4.5q12 0 22 6.5t19 14.5t19 14.5t22 6.5q19 0 36.5 -13t16.5 -33
q0 -15 -9.5 -24.5t-23 -15.5t-28.5 -8.5t-27 -2.5q-28 0 -53 7.5t-49.5 17t-49 17t-51.5 7.5q-17 0 -28.5 -6.5t-22 -14t-20.5 -13.5t-22 -6q-4 0 -12 2q1 24 15 41t34.5 29.5t43 22t40.5 20.5l1 11q-13 8 -24.5 15t-22.5 18q-24 25 -40 64t-25.5 82t-13 86.5t-2.5 77.5
q0 31 3.5 68t12 74t22.5 72.5t36 62.5t52 43.5t71 16.5zM215 608q-36 0 -56 -23t-29.5 -55t-12 -67t-2.5 -59v-65.5t2.5 -90t8 -87t14.5 -57.5q3 -6 9.5 -13t14 -13.5t14.5 -12.5t13 -9q39 0 62 15.5t35 40t15.5 56t4.5 63.5q0 16 0.5 45t0.5 64.5t-1.5 73.5t-5.5 71
t-11 58.5t-18 34.5q-10 8 -27 19t-31 11z" />
    <glyph glyph-name="R" unicode="R" horiz-adv-x="495" 
d="M267 665q28 0 56 -9.5t49.5 -26.5t35 -42t13.5 -56t-12 -50.5t-30.5 -32.5t-41.5 -22l-46 -18q12 -38 28.5 -74.5t34.5 -73t35.5 -73.5t31.5 -74q15 -40 36 -75t52 -64q8 -8 16.5 -18.5t8.5 -22.5q-1 -20 -20.5 -30.5t-35.5 -10.5q-29 0 -46 20q-30 35 -51 79.5t-37 88.5
q-13 35 -31 68.5t-29 69.5q-14 45 -32.5 92.5t-44.5 86.5q-8 12 -18.5 10.5t-21.5 0.5q-2 -26 -3 -51t-2 -51q-1 -51 0.5 -100.5t-0.5 -100.5q-1 -17 5 -29t14 -22t16.5 -20t13.5 -24q-22 -5 -44 -6.5t-45 -1.5t-45 1.5t-45 6.5q4 18 12 25.5t16 17t14.5 28.5t7.5 61
q1 23 -1 47t-2 47q0 45 1 88t-1 88q-1 35 0.5 67.5t1.5 67.5q0 13 -8.5 23.5t-18.5 19t-18.5 16.5t-8.5 18q0 2 1.5 5t3.5 5q2 1 18.5 4t41 6.5t52.5 7t53.5 6.5t44.5 5t25 2zM250 594q-31 0 -48.5 -1.5t-26.5 -9.5t-11.5 -25t-2.5 -47q-2 -22 7 -41q16 -3 34 -3h37.5
t40.5 5t32.5 17t13.5 36q1 43 -17.5 56t-58.5 13z" />
    <glyph glyph-name="S" unicode="S" horiz-adv-x="394" 
d="M188 650q23 0 44.5 -5t43.5 -5q11 0 21.5 4t21.5 6q14 -21 21 -45t15 -47l-11 -7q-35 14 -68 25.5t-72 11.5q-30 0 -50 -18t-21 -49q0 -14 4.5 -29t14.5 -25q19 -19 40.5 -35t43.5 -31t43 -31.5t39 -37.5q30 -35 49.5 -76.5t18.5 -89.5q-1 -43 -18.5 -79t-47 -62
t-67.5 -40.5t-80 -14.5q-24 0 -46.5 7.5t-45.5 7.5q-18 0 -32 -7q-34 50 -38 110q14 0 28 -8t31.5 -17.5t39 -17.5t50.5 -8q59 0 93.5 32.5t36.5 92.5q1 42 -18 73t-47.5 56.5t-62 48t-62 48.5t-47.5 57t-18 74q1 31 14 55.5t34.5 41.5t48.5 25.5t56 8.5z" />
    <glyph glyph-name="V" unicode="V" horiz-adv-x="483" 
d="M33 656q26 -2 50.5 -3t50.5 -1q17 0 35 1t35 3q1 -3 1 -9q0 -12 -7.5 -19t-15.5 -14t-14.5 -15.5t-4.5 -23.5q4 -40 13.5 -84.5t21.5 -92t26 -96t28 -95.5h11q10 42 21 90t22.5 97.5t22.5 97.5t20 91q-5 14 -16 23.5t-19 20.5q-8 5 -8 15q0 6 3 12t10 6q4 0 10 -4
q38 -8 77.5 -5.5t78.5 2.5q-2 -13 -8.5 -23t-15 -19.5t-17 -19.5t-12.5 -22q-17 -53 -29.5 -106.5t-24.5 -107.5t-25.5 -107.5t-32.5 -105.5q-6 -17 -11 -34.5t-5 -35.5q11 -17 24 -33t19 -36q-8 -1 -15 -1.5t-15 -0.5q-35 0 -75.5 0.5t-77.5 5.5v25q10 10 24.5 20.5
t14.5 26.5q0 11 -7 42t-18.5 72.5t-25.5 89.5t-27 92.5t-23.5 81.5t-15.5 57q-6 23 -10.5 47.5t-21.5 43.5q-9 10 -16.5 19.5t-15.5 20.5z" />
    <glyph glyph-name="X" unicode="X" horiz-adv-x="471" 
d="M30 650q10 3 19.5 4t20.5 1q18 0 36.5 -2t36.5 -2q16 0 31.5 2.5t30.5 2.5q17 0 25 -10q-1 -10 -7 -17.5t-13 -15t-12.5 -15t-5.5 -17.5q0 -8 6.5 -29t15.5 -44t18 -44t14 -30q7 10 17.5 31t21 45t18.5 46.5t10 34.5q-10 14 -23 27t-16 32q45 8 88 5t87 2q0 -4 0.5 -7
t0.5 -7q0 -5 -7.5 -16t-18 -24t-20.5 -26t-14 -22q-5 -11 -20.5 -45.5t-32 -73.5t-29.5 -71t-13 -37q0 -7 8.5 -21.5t12.5 -21.5q25 -45 44 -92t40 -94q11 -23 27 -41t33 -36q0 -5 -2.5 -9t-4.5 -9q-27 0 -54.5 -1t-54.5 -1q-25 0 -43 2.5t-41 10.5q4 7 11.5 15.5t15 17.5
t13 17.5t5.5 14.5q0 4 -4.5 17t-11 31t-15 38.5t-16.5 39t-14.5 33t-8.5 20.5q-6 -9 -17.5 -35t-23 -55.5t-20.5 -55.5t-9 -35l1 -9q9 -14 21.5 -25.5t17.5 -28.5q-12 -13 -29 -11.5t-32 1.5q-23 0 -45.5 -2.5t-45.5 -2.5q-10 0 -20.5 1t-21.5 3q-2 6 -2 9q0 8 10 19.5
t22.5 24t24.5 25.5t17 24q3 8 12 27.5t20.5 44.5t23.5 52.5t22 51.5t16.5 41t6.5 22q0 3 -6 19t-15 38.5t-20 49t-21 50t-18 41t-10 23.5q-13 24 -33 41.5t-31 42.5z" />
    <glyph glyph-name="Y" unicode="Y" horiz-adv-x="471" 
d="M20 646q8 4 28 6.5t43 3t45 0.5h33q21 0 41 -6q-3 -10 -8.5 -18.5t-11.5 -16.5t-12 -16.5t-9 -18.5q16 -62 39.5 -120t36.5 -121h11q6 21 18 56.5t24 72.5t21.5 71t9.5 52q-3 7 -8.5 13t-11 12.5t-9.5 13.5t-4 15q0 4 2 12q38 -3 76.5 -1.5t76.5 1.5q5 0 12.5 -2.5
t7.5 -9.5q0 -4 -6 -12t-14.5 -16.5t-16 -16.5t-10.5 -12q-5 -7 -16.5 -37.5t-26.5 -72.5t-31 -90.5t-29 -91.5t-22 -75t-9 -42q0 -23 0.5 -54t11.5 -52q3 -6 9.5 -12.5t12.5 -13.5t10.5 -14t4.5 -12t-0.5 -8.5t-0.5 -8.5h-157q-22 0 -37 11q12 19 27 36t26 37q2 14 2.5 29
t1.5 29v40.5t-5 39.5q-7 29 -17.5 60.5t-22.5 63.5t-25 63.5t-23 60.5q-8 23 -16 47.5t-18 47.5q-11 22 -27 39t-27 38z" />
    <glyph glyph-name="Z" unicode="Z" horiz-adv-x="399" 
d="M118 669q5 0 10 -1l10 -2q42 -8 84.5 -8h85.5q39 0 80 -3q1 -4 1.5 -7.5t0.5 -8.5q0 -7 -13.5 -40.5t-35 -81.5t-47 -103t-48.5 -105t-41.5 -88t-24.5 -52q-10 -20 -19.5 -39.5t-15.5 -40.5q21 6 41 5.5t40 -3t39.5 -6t39.5 -3.5q5 0 14 4.5t21 10t25 10t25 4.5
q-3 -33 -16.5 -64t-28.5 -60q-32 11 -65 15t-67 4q-32 0 -64.5 -2t-64.5 -2q-8 0 -20.5 -0.5t-24.5 1.5t-21 7t-9 16q0 3 17 39l42.5 90t56 118.5t58.5 125.5t49 110.5t28 72.5q-36 6 -73 6q-34 0 -61.5 -9t-59.5 -16q-4 8 -4 20q0 9 5 23.5t13 28.5t18 24t20 10z" />
    <glyph glyph-name="b" unicode="b" horiz-adv-x="385" 
d="M143 670q4 0 8 -0.5t9 -1.5q-2 -35 -4.5 -68.5t-3.5 -68.5q0 -25 1 -50t3 -50q8 5 20.5 18t25.5 27t23.5 25t15.5 11q12 0 25 -5q34 -13 56.5 -35.5t35 -51t17.5 -61.5t4 -66q0 -34 -10 -78.5t-28.5 -87.5t-45.5 -78t-62 -49q-15 -5 -31.5 -6t-31.5 -1q-13 5 -23.5 14.5
t-24.5 14.5q-14 -8 -26 -19t-29 -14q-9 14 -9 28q4 46 3 92t1 92q2 90 5 179t5 180q0 12 -5.5 22t-13.5 19t-17 17t-16 17q7 7 23 13t35 11t37 8t28 3zM152 306q-1 -39 1.5 -78t1.5 -79q0 -10 -0.5 -25t2 -29.5t9.5 -25t22 -10.5q18 0 32 14t25.5 35.5t19.5 48t13 52.5t8 48
t3 34q0 13 -1 33t-6 39t-15.5 32.5t-28.5 13.5t-34 -10t-27 -25.5t-18 -33.5t-7 -34z" />
    <glyph glyph-name="c" unicode="c" horiz-adv-x="349" 
d="M209 515q19 0 42.5 -6.5t44.5 -19t35 -30.5t14 -40q0 -17 -13 -22.5t-27 -5.5q-27 0 -41 10.5t-22.5 22.5t-16.5 22.5t-23 10.5q-27 0 -44 -20.5t-27.5 -49t-15 -59t-4.5 -49.5q-1 -37 6.5 -74.5t23.5 -70.5t41.5 -59.5t61.5 -41.5q18 -8 38.5 -13.5t37.5 -19.5
q-11 -8 -23.5 -11t-24.5 -3q-53 0 -100 27.5t-82.5 70.5t-56 95t-19.5 102q1 39 15.5 80t40 75.5t61 56.5t78.5 22z" />
    <glyph glyph-name="d" unicode="d" horiz-adv-x="389" 
d="M319 670q14 0 19.5 -7.5t6 -18t-1 -22t-1.5 -20.5q-2 -127 -6.5 -254t0.5 -253q0 -11 6 -21t13 -20t14 -20.5t9 -22.5q-30 -5 -59.5 -8t-59.5 -3q-4 17 -4 34.5v34.5q-12 -13 -22.5 -27t-23 -26t-27.5 -19.5t-35 -7.5q-41 0 -67 24t-41 59t-21 74.5t-5 71.5
q0 33 10.5 82.5t31 95.5t52 79t74.5 33q11 0 21 -6t19 -15t17.5 -18.5t16.5 -15.5q3 33 3 67v36t-1 35q-5 8 -13 15t-16 13.5t-14 14.5t-7 19q27 3 56.5 10t55.5 7zM105 237q0 -15 0.5 -43t6 -56t17.5 -48.5t35 -20.5q24 0 40.5 19t27.5 45.5t16.5 54.5t5.5 46q0 12 0.5 32
t-1 43t-5.5 46t-11.5 41.5t-20 30.5t-30.5 12q-19 0 -34 -26t-25.5 -60t-16 -67.5t-5.5 -48.5z" />
    <glyph glyph-name="f" unicode="f" horiz-adv-x="253" 
d="M182 673q9 0 26.5 -3.5t35 -9.5t30 -15t12.5 -21q0 -6 -6.5 -15.5t-15 -18.5t-17.5 -17t-14 -11q-14 8 -22 22t-21 22q-17 0 -32 -8.5t-15 -28.5q0 -11 3.5 -22.5t8.5 -20.5q6 -12 15.5 -16.5t21.5 -5t24 1t23 1.5q2 -9 4.5 -18.5t2.5 -18.5q0 -13 -8 -21
q-17 -3 -34.5 -2.5t-34.5 -4.5q-2 -14 -3 -28t-1 -28q-1 -14 0 -28.5t2 -29.5q3 -64 0 -127.5t-1 -127.5q8 -17 20 -29t22 -26l-7 -11q-77 6 -153 0q1 12 7 22t12 19.5t11 20t5 22.5q1 45 -0.5 88.5t-0.5 88.5t1 88.5t-2 88.5l-25 -1q-15 0 -27 4t-12 23q0 11 7 25
q10 7 21.5 9.5t22.5 5.5q0 17 -2 34t-2 34q0 24 11 41.5t27.5 29t37.5 17.5t42 6z" />
    <glyph glyph-name="g" unicode="g" horiz-adv-x="349" 
d="M165 515q14 -17 28.5 -32t32.5 -27l6 24t3 24q9 0 27 -0.5t37 -3.5t32.5 -9t13.5 -17q0 -10 -4.5 -17.5t-9.5 -17t-10 -22t-5 -31.5q-2 -57 -1 -114t0 -114v-29.5t1.5 -33t4.5 -32t8 -27.5l6 -16t3 -17q0 -8 -3 -14q-13 -25 -35.5 -49t-50 -43.5t-58 -31.5t-58.5 -12
q-11 0 -27.5 3.5t-31.5 10.5t-26 17.5t-11 25.5q1 21 14 34.5t34 13.5q16 0 26.5 -5.5t19 -12t18 -12t24.5 -5.5q16 0 29 9.5t22.5 23.5t15 30t5.5 30q2 22 -11 42q-9 -7 -17 -16.5t-17 -17.5t-19.5 -14t-22.5 -6q-45 0 -73 28.5t-44 69.5t-22 86.5t-5 79.5q1 44 8.5 82
t24.5 69.5t46 55.5t72 40zM104 265q0 -15 0.5 -40t4 -51t10.5 -48t21 -31q4 -6 9.5 -11t13.5 -5q22 0 35.5 23t21 53t10 60t2.5 45q0 9 0.5 26t0 34.5t-2.5 33t-8 22.5q-9 11 -24.5 21t-30.5 10q-20 0 -32.5 -17t-19 -40t-9 -47t-2.5 -38z" />
    <glyph glyph-name="h" unicode="h" horiz-adv-x="385" 
d="M20 642q13 4 28 8.5t30.5 8.5t31 6.5t28.5 2.5q7 0 10 -5t3 -10q4 -25 4.5 -51t0 -52.5t-1.5 -53t2 -51.5q17 15 31 33t35 29q43 0 71 -20.5t45 -52t23.5 -69t5.5 -72.5q-1 -40 -9 -79.5t-17.5 -78.5t-17.5 -78t-8 -78q0 -13 9 -23t19.5 -18.5t19.5 -17.5t9 -19
q0 -9 -5.5 -18.5t-14 -16.5t-18.5 -11.5t-19 -4.5q-29 0 -44 21.5t-22 51t-8 60.5t-1 50q0 29 6.5 62.5t14.5 68.5t14.5 71t6.5 70q0 13 -3.5 33t-11.5 39t-20.5 32.5t-28.5 13.5q-12 0 -24 -10t-21.5 -24.5t-16 -30t-6.5 -26.5q-2 -59 0.5 -117t1.5 -118q0 -14 6.5 -24.5
t15.5 -20t17.5 -19.5t11.5 -22q-23 -5 -46.5 -7t-46.5 -2h-28.5t-28.5 2q-8 -3 -18 -1t-19 4q7 20 22.5 34.5t26.5 31.5l2 77q1 78 -4.5 157t-1.5 157q0 13 2 25.5t2 25.5q0 23 -0.5 36t-4.5 23t-13.5 19t-26.5 24v25z" />
    <glyph glyph-name="j" unicode="j" horiz-adv-x="164" 
d="M83 675l21 1q17 0 30.5 -14.5t13.5 -32.5q-1 -26 -10.5 -42t-38.5 -16q-11 0 -20 6t-16 15.5t-10.5 21t-3.5 21.5q0 5 4 11.5t9 12t11 10t10 6.5zM133 507q9 0 12 -14t3 -32.5t-1 -35.5t-1 -23q-2 -76 -0.5 -151.5t0.5 -151.5q-1 -22 3.5 -43.5t3.5 -44.5
q0 -27 -16 -55.5t-40.5 -52.5t-53.5 -39.5t-56 -15.5q-33 0 -47.5 17.5t-13.5 49.5q0 16 7 26.5t24 10.5t32 -8.5t32 -8.5q16 0 25.5 9t14 22.5t5.5 28.5t1 27q2 94 -2 188t-2 188q0 14 -7.5 25t-16.5 20.5t-16.5 17t-7.5 15.5q0 11 15.5 17.5t35.5 9.5t39.5 3.5t27.5 0.5z
" />
    <glyph glyph-name="k" unicode="k" horiz-adv-x="370" 
d="M124 672q9 0 13 -11t5 -26t0 -29t-1 -20q-2 -80 0 -161t2 -172q4 7 13.5 22.5t21 35.5t23.5 41.5t22.5 41t17 34.5t6.5 21q0 5 -4 10t-9 10t-8.5 10.5t-3.5 11.5v20q18 -2 36.5 -1t36.5 1q21 0 41.5 -3.5t38.5 -14.5q-6 -8 -16.5 -23t-24 -33.5t-27.5 -39.5t-25.5 -39.5
t-19 -33.5t-7.5 -22l9 -19.5t22.5 -49.5t29.5 -65t30.5 -66.5t25 -55t13.5 -28.5q11 -22 29.5 -37t34.5 -32q3 -8 6.5 -15t3.5 -15q0 -2 -1 -5t-2 -5q-19 -21 -47 -21q-24 0 -45.5 18.5t-40.5 48t-35 66t-29.5 72t-25 66.5t-19.5 49q-13 -5 -24.5 -17t-20.5 -27.5
t-14.5 -31.5t-5.5 -29q0 -18 4.5 -29.5t12.5 -20.5t17.5 -17.5t18.5 -20.5q-14 -8 -29 -10.5t-30 -2.5q-11 0 -28.5 -0.5t-36 0.5t-34.5 4t-24 9l17.5 24.5t12.5 21.5t8 23.5t3 30.5q0 9 -1 17.5t-1 17.5q-3 24 -2.5 49t0.5 49q2 75 -2 149.5t-2 149.5q0 21 -5 35t-11 24.5
t-11.5 19t-5.5 18.5q0 4 14.5 8.5t32.5 9t35 7.5t22 3z" />
    <glyph glyph-name="l" unicode="l" horiz-adv-x="202" 
d="M139 675q5 -26 6 -49t0 -49q-2 -115 1.5 -228.5t1.5 -228.5v-25.5t10 -21.5q8 -14 21 -26.5t12 -29.5q0 -5 -2 -13h-135q-17 0 -36 7q4 17 11.5 28.5t14 23t12 26t5.5 38.5v218q1 54 0 108t0 109q0 9 -1.5 18t-9.5 15q-8 14 -19.5 25.5t-19.5 25.5q11 7 27.5 12t34.5 8
t35 5t31 4z" />
    <glyph glyph-name="m" unicode="m" horiz-adv-x="583" 
d="M142 515q5 -19 5 -38.5t5 -38.5q8 5 20.5 17.5t25.5 25t25 22.5t19 10q15 0 29.5 -7.5t27 -19.5t23 -26t16.5 -26q13 7 22.5 18t18.5 22.5t18.5 22t21.5 18.5q46 -5 75 -28.5t45 -57t21.5 -73.5t4.5 -79q-1 -36 -8.5 -71.5t-16.5 -71t-16.5 -71.5t-8.5 -73v-23
q6 -11 15.5 -15.5t18.5 -10t15 -13.5t6 -24q0 -19 -13 -35.5t-34 -16.5q-36 0 -53 22t-23 52t-4.5 62t1.5 52q0 33 6 66.5t12.5 67t12.5 67t6 66.5q0 13 -2.5 30t-9.5 33t-18.5 27t-27.5 11q-9 0 -21 -6.5t-23.5 -16t-19.5 -20.5t-8 -20q-1 -64 1.5 -127.5t1.5 -127.5
q0 -10 4 -19.5t10.5 -18l13 -17t10.5 -17.5l-7 -11q-31 0 -62 -1.5t-62 -1.5q-3 0 -14 4.5t-15 6.5q8 15 15.5 24t13.5 17t9.5 19t3.5 31q1 62 0.5 127t-11.5 125q-3 20 -13.5 32t-32.5 12q-16 0 -32.5 -13t-27.5 -24q-9 -9 -10 -22t-1 -25q-2 -50 1 -99.5t2 -100.5
q0 -27 6.5 -41t15.5 -23t17.5 -18t10.5 -25q-30 -5 -63 -8t-64 -3q-12 0 -23 5l-22 10q16 21 29.5 42.5t14.5 47.5q-2 25 -3.5 68t-2.5 88.5t-1.5 85.5t-0.5 59q0 12 -4.5 21.5t-11.5 18t-15.5 16.5t-14.5 16q10 10 25.5 16.5t33 10.5t35 6t31.5 4z" />
    <glyph glyph-name="n" unicode="n" horiz-adv-x="376" 
d="M126 522q7 0 10.5 -9t5 -21t2 -23.5t1.5 -17.5q7 6 16 18t18.5 24t19 20.5t19.5 8.5t19 -4.5t18 -8.5q30 -12 49 -33t29.5 -47t14.5 -56t3 -59q0 -39 -6.5 -79t-14 -80.5t-14 -81t-7.5 -78.5q0 -19 4 -29t11.5 -16t16 -12t17.5 -18q2 -5 0 -10q0 -20 -14.5 -36t-34.5 -16
q-23 0 -37 16.5t-21.5 39t-10 47t-2.5 40.5q1 40 5.5 82.5t9.5 85t9.5 84.5t5.5 82q0 12 -5 26.5t-13 28t-19.5 22.5t-24.5 9q-17 0 -28 -11q-17 -14 -24 -27t-9.5 -27.5t-1.5 -31t1 -35.5q-1 -54 2 -107.5t6 -107.5q8 -17 19.5 -31t19.5 -31q-35 -8 -73 -9.5t-73 -1.5
q-15 0 -29 14q13 17 31 34.5t19 40.5q1 79 -1.5 164.5t-8.5 163.5q-1 13 -8.5 22.5t-16 17t-15.5 14t-7 13.5q0 6 16.5 13t37 12t39 8.5t24.5 3.5z" />
    <glyph glyph-name="o" unicode="o" horiz-adv-x="345" 
d="M190 516q31 0 54 -13.5t39.5 -35.5t27.5 -50t17 -58t8 -58.5t2 -51.5q0 -38 -8.5 -82.5t-28 -82t-51.5 -62.5t-80 -25q-46 0 -76.5 27t-48.5 66.5t-25 84.5t-7 81q1 42 8.5 88t27 84.5t53.5 63t88 24.5zM166 445q-20 0 -32 -19t-18 -44t-8.5 -51t-2.5 -39t-0.5 -34.5
t1 -47t5.5 -51.5t11.5 -47t19.5 -34.5t31 -13.5q25 0 40.5 16t23.5 38.5t10.5 47.5t2.5 43q0 13 0.5 36t-0.5 49.5t-4.5 54t-11 50t-19.5 36.5t-31 14q-5 0 -9 -1t-9 -3z" />
    <glyph glyph-name="p" unicode="p" horiz-adv-x="370" 
d="M147 514q-1 -16 0 -31.5t6 -30.5q15 15 28.5 32t27.5 34l12 1q36 0 63.5 -18t45.5 -46.5t26.5 -62.5t8.5 -65q-1 -42 -14 -81t-34.5 -74.5t-48.5 -68t-56 -60.5q-5 -5 -14 -11.5t-18.5 -14t-17.5 -14.5t-10 -11q-5 -9 -5.5 -28t-2.5 -30q12 -13 28 -25.5t19 -32.5
q-6 -6 -14 -6.5t-16 -0.5q-23 0 -46 -2.5t-46 -2.5q-31 0 -54 8q1 12 7 21t13 16.5t13 15t9 16.5q4 14 4 33v34q1 34 0 67t-1 67q2 50 1.5 98.5t-0.5 98.5q-1 20 0.5 40.5t-0.5 39.5q-1 9 -8 18t-15 17.5t-14.5 17t-6.5 16.5q0 9 18 14t40.5 7.5t43.5 3.5t28 1zM146 357
q-2 -72 -3 -144.5t3 -143.5q25 18 49 46t43 61t31 67.5t12 65.5q0 14 -3.5 33t-12 36.5t-21.5 29.5t-31 12q-10 0 -21.5 -6t-21.5 -15.5t-17 -20.5t-7 -21z" />
    <glyph glyph-name="q" unicode="q" horiz-adv-x="375" 
d="M197 520q21 0 42 -10.5t40 -16.5q4 3 7.5 8t7.5 10t8.5 8.5t9.5 3.5h5q8 -6 7.5 -17t-1.5 -20l-3 -186q-1 -34 0.5 -68t0.5 -68q0 -25 -2 -54.5t-3.5 -59.5t-1 -59t3.5 -52q1 -11 8.5 -18.5t15.5 -15t15 -16t7 -20.5q-17 -8 -35.5 -10t-36.5 -2q-26 0 -55 0.5t-52 11.5
q1 10 7.5 18t14 14.5t14 12.5t9.5 14q2 6 3.5 18.5t2 26.5t1 27t0.5 20q1 16 0.5 31t-1.5 30q-7 -6 -18 -19t-23.5 -26.5t-23.5 -23.5t-18 -10q-8 0 -17.5 4t-17.5 9q-31 18 -51 45t-31.5 59t-16 66.5t-4.5 67.5q1 32 15 78t38.5 88t57.5 71.5t71 29.5zM107 243
q0 -14 1.5 -38t8 -47.5t18 -41t31.5 -17.5q7 0 16 5.5t18 13t17 16t12 13.5q4 4 6 11.5t3.5 16t2 17t0.5 13.5q1 38 0 76.5t0 76.5v26t-3.5 31.5t-11.5 26.5t-22 11q-18 0 -32.5 -12t-25 -31t-18 -43t-12 -47t-7 -43.5t-2.5 -33.5z" />
    <glyph glyph-name="r" unicode="r" horiz-adv-x="316" 
d="M265 513q20 0 34.5 -9t13.5 -32q0 -14 -9 -24t-22 -17.5t-27 -13.5t-24 -12q-28 -18 -46 -55t-28.5 -80t-14.5 -86t-4 -72q-1 -25 2.5 -39t8 -21.5t10.5 -10.5t11 -6t8 -8t3 -16q-12 -11 -32 -11q-12 0 -24.5 2.5t-24.5 1.5q-14 0 -27 -1t-27 -1q-18 0 -30 9v5
q0 8 6.5 14.5t13.5 13t13 13.5t6 18q2 83 4 167t-3 167q0 10 -5.5 19t-12 17.5t-12.5 17t-9 19.5q29 11 59 15t59 7l7 -8q-1 -21 -2.5 -41.5t-2.5 -41.5q0 -11 0.5 -20.5t1.5 -20.5q12 17 23.5 41t25.5 46.5t32.5 38t44.5 15.5z" />
    <glyph glyph-name="s" unicode="s" horiz-adv-x="322" 
d="M185 512q14 0 27 -3t26 -5q10 -2 20 -1.5t17 -9.5q10 -16 15.5 -37t7.5 -40q-16 2 -29 7.5t-26.5 11t-28 10t-32.5 4.5q-27 0 -45 -15t-18 -43q0 -15 14 -28.5t35 -28.5t46 -32.5t46 -40.5t35 -52t13 -67q0 -31 -13 -58t-34 -47t-48.5 -31.5t-58.5 -11.5q-9 0 -27.5 0.5
t-38.5 3t-36.5 6.5t-19.5 11q-7 16 -14.5 31t-7.5 33l2 12t4 11q16 -7 32 -15t32.5 -15t33.5 -12t36 -5q16 0 29.5 7.5t23.5 19t15.5 26t5.5 28.5q0 26 -13.5 47t-34 39.5t-45 36.5t-45 39t-34.5 47t-13 59q1 31 14 52t33.5 33.5t46 17.5t52.5 5z" />
    <glyph glyph-name="t" unicode="t" horiz-adv-x="350" 
d="M182 653q2 -17 4 -33.5t1 -33.5q0 -14 -2 -27.5t-3 -27.5q0 -14 9 -24q13 -5 26 -2t26 3q11 0 19 -4.5t7 -17.5q0 -9 -9 -20t-15 -17q-16 -3 -31 -4t-31 -3q-2 -71 -1 -141.5t0 -141.5q0 -13 1 -29t6 -30.5t15 -24.5t27 -10q16 0 26 10t17 24.5t12.5 30.5t12.5 27
q8 0 14.5 2t14.5 2q13 -18 13 -39q0 -9 -3 -16q-9 -26 -18.5 -46.5t-23.5 -34.5t-34.5 -21.5t-51.5 -7.5q-37 0 -66.5 22t-36.5 59q-12 66 -11 134t3 135q2 45 0 92q-11 6 -26 5t-28 -1.5t-21.5 1.5t-8.5 13q1 19 6 29.5t15 15t25 5.5t35 1q0 8 -0.5 17t-0.5 17q0 14 9 31.5
t22 34t28 29t28 17.5z" />
    <glyph glyph-name="u" unicode="u" horiz-adv-x="385" 
d="M205 499q29 3 58.5 8t58.5 10l11 -11q-5 -68 -6 -135q-1 -68 -0.5 -135t-0.5 -135q0 -13 6 -23t14.5 -18.5t17 -17.5t11.5 -21q-29 -8 -60.5 -11.5t-63.5 -3.5q-6 25 -6 51q-9 -5 -19.5 -14t-21.5 -18t-21.5 -15.5t-19.5 -6.5q-45 0 -70.5 25t-39 62t-16.5 78t-3 74
q1 51 12 96t19 95q-8 16 -21 27.5t-26 23.5q9 9 23 15q25 3 49.5 7.5t49.5 7.5l7 -8q-8 -62 -19 -124t-13 -124q0 -14 0.5 -42.5t6 -57t16.5 -50t32 -21.5q9 0 21.5 5.5t24 14.5t20 19t10.5 19q2 8 2 18.5v19.5l3 187q1 14 1.5 28.5t-1.5 27.5q-1 10 -8.5 18t-16 15.5
t-15.5 15.5t-7 19z" />
    <glyph glyph-name="v" unicode="v" horiz-adv-x="377" 
d="M254 461q0 16 12.5 32t29.5 16q21 0 36 -9t24 -23.5t13 -32.5t4 -37q-1 -34 -8.5 -72.5t-20 -77t-29 -74.5t-34.5 -65q-7 -11 -17.5 -22t-12.5 -25q8 -16 19 -30.5t16 -31.5q-23 -2 -45.5 -3.5t-45.5 -1.5q-17 0 -33 1.5t-33 3.5q6 16 19 35.5t13 34.5q1 16 -8 31.5
t-14 29.5q-17 46 -32.5 88.5t-23.5 90.5q-2 10 -4 24t-4.5 28.5t-6.5 28t-8 21.5q-8 17 -21.5 30.5t-21.5 31.5q34 5 68 9t68 9q3 -20 1.5 -40t-2.5 -40q0 -23 5.5 -61.5t15 -80t20.5 -79t22 -56.5h15q10 25 21.5 53t22 57.5t18 58.5t7.5 55q0 22 -7 35.5t-15.5 22.5
t-15.5 16.5t-7 18.5z" />
    <glyph glyph-name="w" unicode="w" horiz-adv-x="534" 
d="M152 504q1 -5 1 -10.5v-11.5q0 -22 -5 -43.5t-5 -43.5q-1 -57 6 -119.5t30 -114.5q20 20 32.5 47t24.5 55t26 54t37 45q10 -15 23.5 -47.5t27 -66.5t26.5 -61t22 -33q9 18 20 44t20.5 54t16 55.5t6.5 47.5q0 18 -6.5 30.5t-15 23t-15 21t-6.5 22.5q0 9 5 18t12.5 16.5
t16.5 12t18 4.5q22 0 34.5 -13.5t19 -33t8 -40.5t1.5 -37q-1 -51 -18.5 -102.5t-37.5 -95t-37 -75t-17 -43.5q0 -9 4.5 -16t10 -13t11 -12.5t8.5 -13.5q-17 -6 -35 -8t-35 -2t-34.5 1t-34.5 1q-8 3 -8 11q0 7 5 13t10.5 13t10.5 15.5t5 20.5q0 6 -7 23t-16 36.5t-17.5 37
t-12.5 24.5h-11q-5 -11 -14 -28t-18 -35t-15.5 -35t-6.5 -28q0 -15 12 -30.5t18 -29.5q-18 -5 -36.5 -6.5t-37.5 -1.5q-17 0 -34 1t-34 3q-5 2 -9 4.5t-4 7.5l1 6q10 12 22.5 21t18.5 23q-2 22 -12.5 39.5t-18.5 37.5q-9 25 -17.5 59.5t-15 71.5t-10 72.5t-3.5 62.5
q0 14 -6.5 24t-14.5 17.5t-15 14t-7 13.5q0 6 18.5 10.5t41.5 7.5t44 5t28 3z" />
    <glyph glyph-name="x" unicode="x" horiz-adv-x="381" 
d="M21 489q11 2 22 3.5t22 1.5q27 0 58.5 -2t57.5 -7q-8 -11 -16.5 -22t-8.5 -25q0 -8 4.5 -21t11 -26.5t14 -25.5t12.5 -19q14 24 26 49t16 54q-8 21 -19 36q35 5 70 4t70 7q-1 -3 -0.5 -6t0.5 -7q0 -5 -8 -13.5t-18.5 -18.5t-20 -20.5t-13.5 -18.5q-5 -9 -15.5 -28.5
t-21.5 -40.5t-19.5 -39t-8.5 -25q0 -8 12.5 -37.5t29 -63.5t32 -65.5t21.5 -43.5q8 -17 20.5 -31.5t23.5 -30.5l-8 -11q-23 2 -45.5 1t-45.5 -1q-17 0 -33 1t-33 6q8 11 20 25.5t12 30.5q0 5 -7 23t-16.5 39t-18.5 40t-13 25q-12 -14 -26.5 -42t-27 -60t-21.5 -62t-9 -48
q0 -14 7 -23t15.5 -17t15 -17t6.5 -23q-1 -27 -19.5 -35.5t-41.5 -8.5q-18 0 -29 12t-17 28.5t-8 35t-2 31.5q0 27 9.5 58.5t22.5 63.5t28.5 62t28.5 55t22 43t9 25q0 4 -6.5 18t-16.5 34t-23 42.5t-24.5 42.5t-20.5 35t-13 20q-7 8 -13 16t-12 17z" />
    <glyph glyph-name="y" unicode="y" horiz-adv-x="406" 
d="M132 500q13 0 27 -3q0 -22 -2 -44t-2 -44q0 -14 3.5 -41t9 -60.5t13.5 -69.5t17 -67.5t18 -55.5t17 -34q12 21 24 51.5t22 64t16.5 65.5t6.5 56q1 39 -10.5 56t-25.5 27.5t-25.5 21t-11.5 34.5q0 18 8 33t30 15q8 0 16 -5q58 -23 78 -68.5t18 -104.5q-1 -63 -22 -130
t-56.5 -128.5t-84 -112t-103.5 -80.5q-20 -11 -38 -16.5t-40 -5.5q-17 0 -32.5 4.5t-28.5 14.5q-6 4 -10 16t1 25t21.5 23t51.5 10q13 0 24.5 -7.5t24.5 -7.5q9 0 23 7.5t28 19t24.5 23.5t10.5 21q0 6 -2.5 12t-4.5 11q-23 56 -36 99t-22 84.5t-16 86t-18 102.5
q-3 14 -10.5 24.5t-17.5 19t-20.5 16.5t-20.5 16q5 8 12.5 13t16.5 5q25 0 49 4t49 4z" />
    <glyph glyph-name="z" unicode="z" horiz-adv-x="336" 
d="M192 493q20 0 38.5 2t38.5 2q11 0 21.5 -2t20.5 -7q-20 -46 -46.5 -100.5t-52.5 -110.5t-48.5 -111t-34.5 -102l8 -7h38q27 0 44.5 2t33 7t31.5 12.5t39 18.5q2 -10 2 -16q0 -21 -9 -40t-16 -39q-46 -2 -91.5 -2.5t-91.5 -0.5q-26 0 -55 -0.5t-54 7.5q8 29 20.5 56
t25.5 54q27 60 53.5 120t52.5 120l16 38t10 39q-24 0 -40.5 -1.5t-30.5 -4.5t-28.5 -6t-35.5 -6l-11 7q6 38 19.5 54t33.5 19.5t45 0.5t54 -3z" />
    <glyph glyph-name="_0016" horiz-adv-x="227" 
 />
    <glyph glyph-name="dieresis" unicode="&#xa8;" horiz-adv-x="246" 
d="M184 675l21 1q17 0 30.5 -14.5t13.5 -32.5q-1 -26 -10.5 -42t-38.5 -16q-11 0 -20 6t-16 15.5t-10.5 21t-3.5 21.5q0 5 4 11.5t9 12t11 10t10 6.5zM49 675l21 1q17 0 30.5 -14.5t13.5 -32.5q-1 -26 -10.5 -42t-38.5 -16q-11 0 -20 6t-16 15.5t-10.5 21t-3.5 21.5
q0 5 4 11.5t9 12t11 10t10 6.5z" />
    <glyph glyph-name="adieresis" unicode="&#xe4;" horiz-adv-x="374" 
d="M152 511q14 0 33.5 -4.5t38.5 -12.5t35.5 -18.5t24.5 -22.5q4 -6 5 -14.5t1 -17.5t-1 -18t-1 -16q0 -9 1.5 -33t5 -55t7 -66t8 -66t8 -54.5t6.5 -32.5q6 -19 18.5 -33.5t20.5 -31.5q-29 -8 -59 -11.5t-60 -3.5q-4 14 -6 29t-5 29q-12 -9 -23.5 -19t-24 -18.5t-26.5 -14.5
t-29 -6q-23 0 -45 11t-38.5 29t-26 40t-9.5 45q1 35 15 61t34.5 45t45 32t46 22.5t37 16t19.5 12.5q0 14 -0.5 36.5t-5.5 44t-16 37t-32 15.5q-10 0 -18 -7.5t-16 -16t-16.5 -16t-20.5 -7.5q-8 0 -16.5 4t-15 10.5t-10.5 14.5t-4 17q0 16 13.5 28t31.5 20.5t37.5 12.5
t32.5 4zM103 139q0 -20 11.5 -37t34.5 -17q10 0 23 7.5t24.5 18t19.5 23t8 23.5q0 22 -3 43t-11 41q-17 -6 -36 -15t-34.5 -21t-26 -28.5t-10.5 -37.5zM212 658l21 1q17 0 30.5 -14.5t13.5 -32.5q-1 -26 -10.5 -42t-38.5 -16q-11 0 -20 6t-16 15.5t-10.5 21t-3.5 21.5
q0 5 4 11.5t9 12t11 10t10 6.5zM77 658l21 1q17 0 30.5 -14.5t13.5 -32.5q-1 -26 -10.5 -42t-38.5 -16q-11 0 -20 6t-16 15.5t-10.5 21t-3.5 21.5q0 5 4 11.5t9 12t11 10t10 6.5z" />
    <glyph glyph-name="odieresis" unicode="&#xf6;" horiz-adv-x="345" 
d="M190 516q31 0 54 -13.5t39.5 -35.5t27.5 -50t17 -58t8 -58.5t2 -51.5q0 -38 -8.5 -82.5t-28 -82t-51.5 -62.5t-80 -25q-46 0 -76.5 27t-48.5 66.5t-25 84.5t-7 81q1 42 8.5 88t27 84.5t53.5 63t88 24.5zM166 445q-20 0 -32 -19t-18 -44t-8.5 -51t-2.5 -39t-0.5 -34.5
t1 -47t5.5 -51.5t11.5 -47t19.5 -34.5t31 -13.5q25 0 40.5 16t23.5 38.5t10.5 47.5t2.5 43q0 13 0.5 36t-0.5 49.5t-4.5 54t-11 50t-19.5 36.5t-31 14q-5 0 -9 -1t-9 -3zM234 675l21 1q17 0 30.5 -14.5t13.5 -32.5q-1 -26 -10.5 -42t-38.5 -16q-11 0 -20 6t-16 15.5
t-10.5 21t-3.5 21.5q0 5 4 11.5t9 12t11 10t10 6.5zM99 675l21 1q17 0 30.5 -14.5t13.5 -32.5q-1 -26 -10.5 -42t-38.5 -16q-11 0 -20 6t-16 15.5t-10.5 21t-3.5 21.5q0 5 4 11.5t9 12t11 10t10 6.5z" />
    <glyph glyph-name="udieresis" unicode="&#xfc;" horiz-adv-x="385" 
d="M205 499q29 3 58.5 8t58.5 10l11 -11q-5 -68 -6 -135q-1 -68 -0.5 -135t-0.5 -135q0 -13 6 -23t14.5 -18.5t17 -17.5t11.5 -21q-29 -8 -60.5 -11.5t-63.5 -3.5q-6 25 -6 51q-9 -5 -19.5 -14t-21.5 -18t-21.5 -15.5t-19.5 -6.5q-45 0 -70.5 25t-39 62t-16.5 78t-3 74
q1 51 12 96t19 95q-8 16 -21 27.5t-26 23.5q9 9 23 15q25 3 49.5 7.5t49.5 7.5l7 -8q-8 -62 -19 -124t-13 -124q0 -14 0.5 -42.5t6 -57t16.5 -50t32 -21.5q9 0 21.5 5.5t24 14.5t20 19t10.5 19q2 8 2 18.5v19.5l3 187q1 14 1.5 28.5t-1.5 27.5q-1 10 -8.5 18t-16 15.5
t-15.5 15.5t-7 19zM254 675l21 1q17 0 30.5 -14.5t13.5 -32.5q-1 -26 -10.5 -42t-38.5 -16q-11 0 -20 6t-16 15.5t-10.5 21t-3.5 21.5q0 5 4 11.5t9 12t11 10t10 6.5zM119 675l21 1q17 0 30.5 -14.5t13.5 -32.5q-1 -26 -10.5 -42t-38.5 -16q-11 0 -20 6t-16 15.5t-10.5 21
t-3.5 21.5q0 5 4 11.5t9 12t11 10t10 6.5z" />
    <glyph glyph-name="Adieresis" unicode="&#xc4;" horiz-adv-x="487" 
d="M108 668q6 0 13 -2t13 -4q21 -7 43 -7h44q38 0 76 -1.5t76 -1.5q26 0 50.5 1t48.5 6l11 -12q-8 -17 -21.5 -31.5t-21.5 -31.5q0 -11 -1 -21.5t-1 -22.5q-1 -38 -1.5 -76.5t-0.5 -75.5q0 -36 -0.5 -77t-0.5 -82t0.5 -81.5t3.5 -74.5q1 -10 8 -17.5t16 -14.5t17.5 -14
t11.5 -16q-22 -5 -43.5 -7t-43.5 -2h-55.5t-52.5 13q9 10 18.5 19t16.5 18t12 20.5t5 26.5q0 35 -2 68.5t-1 68.5q0 8 -0.5 14t-2.5 11q-17 4 -32 3.5t-32 4.5q-18 5 -37.5 10.5t-39.5 5.5l-14 -1q-11 -6 -19.5 -31.5t-14.5 -56t-9.5 -59t-3.5 -40.5l1 -24q6 -10 14 -17.5
l16 -15t15 -16t12 -18.5q-42 -2 -82.5 -2.5t-81.5 -0.5q-8 0 -15.5 1.5t-13.5 6.5q2 9 8 16t13 13t14.5 12t13.5 14q9 35 12 72t13 72q8 29 14 56.5t14 55.5q22 70 55 137t65 133q-10 2 -19 3.5t-19 1.5q-21 0 -38.5 -5.5t-32 -12t-25.5 -12t-19 -5.5q-9 7 -9 19
q0 6 3.5 20.5t9.5 29.5t13.5 26t15.5 11zM205 376q27 -8 54.5 -17t56.5 -9q17 0 23.5 7t6.5 24q2 54 2.5 109.5t-10.5 108.5q-25 -6 -47 -33.5t-39 -62.5t-29 -70.5t-18 -56.5zM205 347q-8 -4 -12.5 -10t-8.5 -12q35 -15 73 -22.5t76 -10.5q2 7 4.5 14.5t6.5 15.5
q-35 4 -70 14.5t-69 10.5zM372 784l21 1q17 0 30.5 -14.5t13.5 -32.5q-1 -26 -10.5 -42t-38.5 -16q-11 0 -20 6t-16 15.5t-10.5 21t-3.5 21.5q0 5 4 11.5t9 12t11 10t10 6.5zM237 784l21 1q17 0 30.5 -14.5t13.5 -32.5q-1 -26 -10.5 -42t-38.5 -16q-11 0 -20 6t-16 15.5
t-10.5 21t-3.5 21.5q0 5 4 11.5t9 12t11 10t10 6.5z" />
    <glyph glyph-name="M" unicode="M" horiz-adv-x="637" 
d="M261 661q5 0 8 -4t3 -9q0 -9 -5.5 -18t-12 -18t-12 -17t-5.5 -14q0 -4 10.5 -25t23.5 -46.5t25 -48.5t16 -30h11q22 38 43.5 76.5t38.5 80.5q-10 17 -24 30t-22 32q10 4 27.5 6.5t36 3t36.5 0.5h30q25 0 49 -3q-2 -13 -9.5 -23t-16 -20t-16 -20.5t-7.5 -24.5q0 -11 3 -29
t7.5 -38.5t9.5 -39.5t7 -32q13 -74 22.5 -147.5t23.5 -147.5q3 -16 4.5 -34t8.5 -32q11 -11 24 -20t24 -20q3 -2 3 -10q0 -10 -1 -15q-28 0 -56 -1t-56 -1q-16 0 -41.5 0.5t-39.5 8.5q5 8 13.5 16t16.5 16.5t13.5 17.5t5.5 18q0 4 -3.5 32t-9 68.5t-12.5 87t-13 87.5
t-11 70.5t-7 35.5q-30 -41 -52.5 -86t-48.5 -89q-5 -9 -10.5 -12.5t-15.5 -6.5q-25 42 -44 86.5t-40 89.5h-11q-13 -75 -21.5 -150t-24.5 -150q-2 -13 -6 -25t-4 -25t7.5 -24t17.5 -20.5t17.5 -17t7.5 -14.5q0 -8 -18 -11.5t-41.5 -4.5t-45 -0.5t-28.5 0.5q-14 0 -29 3.5
t-26 14.5q12 15 25 28.5t27 26.5q11 46 14.5 92.5t14.5 93.5q2 13 7 38t10.5 56t11.5 64.5t10.5 64t8 54t3.5 34.5q0 12 -6 21.5t-14 18t-14.5 17.5t-6.5 21q0 6 10.5 7.5t14.5 1.5q34 0 68 2t68 2z" />
    <glyph glyph-name="N" unicode="N" horiz-adv-x="485" 
d="M20 650q12 11 24.5 9t26.5 -2q33 0 66.5 2t66.5 2q5 0 9.5 -4t4.5 -9q0 -6 -6 -14t-14 -17t-15.5 -18.5t-10.5 -18.5q3 -30 25 -59.5t50 -58t56 -56t44 -52.5q3 18 3.5 36t0.5 37q1 38 1 78.5t-4 78.5q-1 10 -6.5 18.5t-12 17t-12 17.5t-5.5 20q11 1 23 1.5t23 0.5
q30 0 59.5 -2.5t58.5 -6.5q-10 -20 -18.5 -29t-14.5 -17.5t-9.5 -21.5t-4.5 -39q-2 -114 -1.5 -227.5t3.5 -227.5q0 -14 7 -23.5t15 -17.5t14.5 -15.5t6.5 -16.5v-15q-26 0 -52 -1t-52 -1h-17.5t-23.5 1.5t-20.5 6t-8.5 13.5l1 7q9 11 17.5 17.5t15 13t10.5 15.5t4 26
q1 60 -17.5 101t-46 75t-60.5 66.5t-62 75.5l-11 -4l-2 -41q-1 -69 -0.5 -140t4.5 -140q0 -12 7.5 -22.5t16 -20t15.5 -18t7 -17.5q0 -5 -10.5 -7.5t-24 -4t-26 -2t-16.5 -0.5h-73q-10 0 -18 4.5t-15 11.5q19 21 30 32.5t17 22.5t8 26.5t2 45.5q2 106 0.5 212t0.5 212
q0 11 -7.5 20.5t-17 19.5t-18 20.5t-11.5 23.5z" />
    <glyph glyph-name="T" unicode="T" horiz-adv-x="447" 
d="M394 662q10 0 13.5 -1.5t5 -4.5t2.5 -7t6 -10q6 -15 13 -29.5t12 -29.5l-7 -18q-15 0 -29.5 7.5t-29.5 10.5q-26 5 -51 7t-51 4l-7 -7q2 -23 2.5 -66.5t1 -96t1 -109t2 -106.5t4.5 -87.5t9 -52.5q3 -8 9 -14l12 -12t10 -13t4 -16q-8 -8 -19.5 -9.5t-22.5 -1.5
q-33 0 -68 0.5t-69 3.5v5q0 12 8 20t17 17.5t17 24t8 39.5q2 106 -1.5 211t-1.5 211q1 14 -0.5 28t-6.5 28h-28.5t-33.5 -1.5t-33 -4.5t-26 -9q-14 -8 -22.5 -11.5t-24.5 -3.5v8q1 27 16 49.5t26 45.5q26 -2 52.5 -7.5t54.5 -5.5q38 0 77 2.5t78 2.5q18 0 35.5 4.5t35.5 4.5
z" />
    <glyph glyph-name="U" unicode="U" horiz-adv-x="448" 
d="M177 662q8 0 14 -3t13 -5q-4 -9 -11 -17.5t-14.5 -17t-14 -17.5t-8.5 -18q-8 -50 -11 -103.5t-4.5 -108.5t-2.5 -109.5t-4 -105.5q-2 -17 -9 -28.5t-14 -25.5q4 -15 20.5 -25.5t37 -16.5t41.5 -8.5t35 -2.5q29 0 55 14.5t52 27.5q-3 11 -9.5 21.5t-8.5 21.5
q-10 54 -12.5 108.5t-3 110t-1.5 110.5t-8 109q-2 11 -8 20.5t-13 19t-12.5 20t-5.5 22.5v6h145q6 0 12 -1t11 -6q-3 -11 -11 -21t-16.5 -20t-15 -20t-6.5 -21q-2 -64 5.5 -129t11.5 -129q2 -42 3.5 -82t5.5 -82q1 -9 5 -16.5t8.5 -14.5t8 -14t3.5 -16l-1 -8
q-17 -27 -41.5 -46.5t-53.5 -31.5t-60.5 -18t-61.5 -6q-19 0 -54.5 10t-70 26.5t-59.5 37.5t-25 44q0 10 4 15t10 12q9 10 14 23.5t7 28.5t2 30.5t1 27.5q4 85 8.5 171t6.5 171q0 12 -4 21.5t-10.5 18t-14 17t-12.5 17.5l11 11q34 -3 68 -3q18 0 36.5 2t36.5 2z" />
    <glyph glyph-name="Odieresis" unicode="&#xd6;" 
d="M210 671q64 0 102.5 -37t59.5 -91t27.5 -115t5.5 -109q-1 -32 -3.5 -70t-10 -76.5t-20.5 -74.5t-34.5 -63.5t-53 -44t-75.5 -16.5q-43 0 -74.5 18.5t-53 49.5t-34.5 70t-20 80.5t-9 81.5t-2 72q1 47 8.5 103.5t28.5 106t59 82.5t99 33zM117 361q0 -18 -0.5 -48t1 -64.5
t6.5 -69.5t16 -63t29 -46t45 -18q31 0 49 25t27.5 59.5t12.5 70.5t3 58q0 18 0.5 49.5t-2 68t-7.5 74.5t-16 69t-28 50.5t-43 19.5q-35 0 -54 -27.5t-27.5 -66t-10 -78t-1.5 -63.5zM263 803l21 1q17 0 30.5 -14.5t13.5 -32.5q-1 -26 -10.5 -42t-38.5 -16q-11 0 -20 6
t-16 15.5t-10.5 21t-3.5 21.5q0 5 4 11.5t9 12t11 10t10 6.5zM128 803l21 1q17 0 30.5 -14.5t13.5 -32.5q-1 -26 -10.5 -42t-38.5 -16q-11 0 -20 6t-16 15.5t-10.5 21t-3.5 21.5q0 5 4 11.5t9 12t11 10t10 6.5z" />
    <glyph glyph-name="Udieresis" unicode="&#xdc;" horiz-adv-x="448" 
d="M177 662q8 0 14 -3t13 -5q-4 -9 -11 -17.5t-14.5 -17t-14 -17.5t-8.5 -18q-8 -50 -11 -103.5t-4.5 -108.5t-2.5 -109.5t-4 -105.5q-2 -17 -9 -28.5t-14 -25.5q4 -15 20.5 -25.5t37 -16.5t41.5 -8.5t35 -2.5q29 0 55 14.5t52 27.5q-3 11 -9.5 21.5t-8.5 21.5
q-10 54 -12.5 108.5t-3 110t-1.5 110.5t-8 109q-2 11 -8 20.5t-13 19t-12.5 20t-5.5 22.5v6h145q6 0 12 -1t11 -6q-3 -11 -11 -21t-16.5 -20t-15 -20t-6.5 -21q-2 -64 5.5 -129t11.5 -129q2 -42 3.5 -82t5.5 -82q1 -9 5 -16.5t8.5 -14.5t8 -14t3.5 -16l-1 -8
q-17 -27 -41.5 -46.5t-53.5 -31.5t-60.5 -18t-61.5 -6q-19 0 -54.5 10t-70 26.5t-59.5 37.5t-25 44q0 10 4 15t10 12q9 10 14 23.5t7 28.5t2 30.5t1 27.5q4 85 8.5 171t6.5 171q0 12 -4 21.5t-10.5 18t-14 17t-12.5 17.5l11 11q34 -3 68 -3q18 0 36.5 2t36.5 2zM290 808
l21 1q17 0 30.5 -14.5t13.5 -32.5q-1 -26 -10.5 -42t-38.5 -16q-11 0 -20 6t-16 15.5t-10.5 21t-3.5 21.5q0 5 4 11.5t9 12t11 10t10 6.5zM155 808l21 1q17 0 30.5 -14.5t13.5 -32.5q-1 -26 -10.5 -42t-38.5 -16q-11 0 -20 6t-16 15.5t-10.5 21t-3.5 21.5q0 5 4 11.5t9 12
t11 10t10 6.5z" />
    <glyph glyph-name="dollar" unicode="$" horiz-adv-x="391" 
d="M164 -2l15 29q1 18 1 36q-31 0 -59.5 11t-51 31t-35.5 47.5t-12 59.5q1 53 33.5 85t84.5 32q21 0 41 -10v47v52q-23 16 -45 31.5t-39 33t-27 38.5t-9 48q1 56 35.5 84t82.5 35v20q0 12 -4.5 22.5t-8.5 20.5h79q-4 -12 -9 -23.5t-5 -24.5v-15q16 -2 34 -7.5t33 -14
t24.5 -21t9.5 -28.5q-1 -14 -14.5 -26.5t-27.5 -12.5q-19 0 -32 13t-27 25v-124q24 -14 49.5 -33.5t46.5 -48.5t33.5 -70t11.5 -99q-1 -29 -12.5 -56t-31 -49.5t-45 -39t-52.5 -25.5v-21q0 -15 3.5 -28t8.5 -24q-10 -1 -20 -1h-19q-10 0 -20 0.5t-20 0.5zM296 242
q1 47 -18 79.5t-47 57.5v-247q29 15 46.5 45t18.5 65zM85 212q-1 -43 26 -67t69 -24v20v60q3 30 -11 47t-33 19t-35 -11.5t-16 -43.5zM146 573q-1 -17 8.5 -28.5t25.5 -22.5v15l-1 92q-15 -7 -24 -23.5t-9 -32.5z" />
    <glyph glyph-name="i" unicode="i" horiz-adv-x="217" 
d="M106 686q25 0 38.5 -17t12.5 -40t-14.5 -36.5t-37.5 -13.5q-9 0 -17.5 6t-15 15t-10 19t-3.5 19q1 16 15.5 32t31.5 16zM126 513q4 3 10 3q10 -2 16 -8q2 -10 0.5 -20t-1.5 -20q-1 -42 -1.5 -84t1.5 -84q2 -51 -0.5 -105.5t4.5 -105.5q1 -10 8 -18.5t15 -17.5t15 -19.5
t8 -22.5q-19 -8 -40 -10t-43 -2t-43.5 2t-41.5 2q-9 0 -13.5 9.5t-3.5 17.5q7 9 15.5 16t16 14.5t13 16.5t5.5 22q1 71 1 141.5t2 142.5q0 12 -1 27.5t-5 26.5q-8 6 -16.5 11.5t-16 12t-12.5 14.5t-5 19v6q28 5 56 7.5t57 5.5z" />
    <glyph glyph-name="e" unicode="e" horiz-adv-x="349" 
d="M215 512q34 0 58 -18.5t39 -46.5t22 -60.5t7 -59.5q0 -11 -10 -17q-24 -14 -51 -23.5t-55 -18.5t-55.5 -17.5t-52.5 -20.5q3 -54 18.5 -89t37.5 -56.5t47.5 -32.5t49 -17t41.5 -11t26 -13q-15 -14 -34.5 -18t-39.5 -4q-53 0 -95.5 23.5t-72.5 62t-46 86t-16 95.5
q0 42 9.5 87t31.5 82.5t56.5 62t84.5 24.5zM126 315v-9l110 33q3 4 7 6t8 5q0 14 -1 30.5t-6 30.5t-15.5 23.5t-29.5 9.5t-32.5 -14.5t-22.5 -35t-13.5 -42.5t-4.5 -37z" />
    <glyph glyph-name="space" unicode=" " horiz-adv-x="224" 
 />
    <glyph glyph-name="colon" unicode=":" horiz-adv-x="162" 
d="M83 113q23 0 38.5 -14.5t15.5 -37.5q0 -25 -17 -45t-43 -20q-20 0 -36 14t-16 35q0 26 15.5 47t42.5 21zM83 389q23 0 38.5 -14.5t15.5 -37.5q0 -25 -17 -45t-43 -20q-20 0 -36 14t-16 35q0 26 15.5 47t42.5 21z" />
    <glyph glyph-name="semicolon" unicode=";" horiz-adv-x="145" 
d="M76 123q23 0 37.5 -15t14.5 -38q0 -34 -16 -63t-38 -53q-6 -6 -14 -15.5t-18 -9.5q-5 0 -6 3.5t-1 7.5q15 16 18 34t3 38q-37 8 -37 43q0 25 14.5 46.5t42.5 21.5zM78 403q17 0 33.5 -14.5t16.5 -32.5q0 -12 -4 -24.5t-11 -23.5t-17.5 -18t-23.5 -7q-22 0 -37.5 15
t-15.5 36q0 25 16.5 47t42.5 22z" />
    <glyph glyph-name="comma" unicode="," horiz-adv-x="143" 
d="M77 123q23 0 37.5 -15t14.5 -38q0 -34 -16 -63t-38 -53q-6 -6 -14 -15.5t-18 -9.5q-5 0 -6 3.5t-1 7.5q15 16 18 34t3 38q-37 8 -37 43q0 25 14.5 46.5t42.5 21.5z" />
    <glyph glyph-name="hyphen" unicode="-" horiz-adv-x="263" 
d="M32 389l37 -26q28 -3 57 -3q24 0 35.5 0.5t20 3t18.5 7.5t30 14v-138q-21 9 -30.5 14.5t-17.5 8t-20 3t-38 0.5q-24 0 -48 -4.5t-44 -18.5q-1 17 -1 34.5v34.5t0.5 35t0.5 35z" />
    <glyph glyph-name="period" unicode="." horiz-adv-x="153" 
d="M81 118q18 0 34 -15t16 -33q0 -12 -4 -24.5t-11 -23t-18 -17.5t-24 -7q-22 0 -37 14.5t-15 36.5q0 25 16.5 47t42.5 22z" />
    <glyph glyph-name="bracketleft" unicode="[" horiz-adv-x="190" 
d="M33 753q21 -2 41.5 -1.5t41.5 0.5q15 0 30 -1t30 -3v-4q0 -10 -8 -15.5t-16 -8.5q-11 -14 -15.5 -31.5t-4.5 -35.5v-535q0 -32 10 -62t28 -56q-12 -5 -24.5 -6.5t-25.5 -1.5q-14 0 -29 1.5t-29 3.5q-21 11 -27 28t-6 39q0 19 2 37.5t2 38.5v385q0 47 -1 93t-1 93v21t2 21
z" />
    <glyph glyph-name="bracketright" unicode="]" horiz-adv-x="190" 
d="M156 753q2 -11 2 -21v-21q0 -47 -1 -93t-1 -93v-385q0 -17 2 -34.5t2 -34.5q0 -24 -5 -42.5t-28 -31.5q-14 -2 -29 -3.5t-29 -1.5q-13 0 -25.5 1.5t-24.5 6.5q18 26 28 56t10 62v535q0 18 -4.5 35.5t-15.5 31.5q-11 4 -17.5 9.5t-6.5 18.5q35 6 71 4t72 1z" />
    <glyph glyph-name="grave" unicode="`" horiz-adv-x="205" 
d="M48 747q5 1 11 1.5t11 0.5q12 0 23.5 -1t23.5 -1q0 -15 6 -31t15 -31.5t18 -30.5t14 -29h-28q-9 0 -17.5 1t-17.5 5q-10 11 -18 25.5t-15.5 30t-14 31t-11.5 29.5z" />
    <glyph glyph-name="acute" unicode="&#xb4;" horiz-adv-x="206" 
d="M173 754q-6 -15 -12.5 -32t-15 -34t-17.5 -33t-18 -28q-10 -4 -19.5 -5t-18.5 -1h-31q5 12 15.5 30t20 36.5t16.5 36t6 30.5q12 0 25 1t25 1q6 0 12 -0.5t12 -1.5z" />
    <glyph glyph-name="circumflex" unicode="&#x2c6;" horiz-adv-x="297" 
d="M129 688h34q7 0 13 -0.5t13 -0.5q0 -8 7.5 -16.5t18.5 -17.5t22.5 -17.5t17.5 -15.5h-35q-11 0 -21.5 0.5t-21.5 2.5q-9 5 -16.5 10t-14.5 11q-7 -6 -14 -11t-16 -10q-11 -2 -21.5 -2.5t-21.5 -0.5h-35q6 7 17.5 15.5t22.5 18t19 18t6 15.5h4q5 0 10.5 0.5t11.5 0.5z" />
    <glyph glyph-name="equal" unicode="=" horiz-adv-x="386" 
d="M33 493l37 -26q19 -2 37.5 -2.5t38.5 -0.5q38 0 76.5 1t76.5 1q16 0 28.5 8t26.5 15v-138q-15 7 -29.5 16t-31.5 9q-20 0 -58 0.5t-78 -1t-74.5 -6t-49.5 -15.5q-1 17 -1 34.5v34.5t0.5 35t0.5 35zM33 306l37 -26q19 -2 37.5 -2.5t38.5 -0.5q38 0 76.5 1t76.5 1
q16 0 28.5 8t26.5 15v-138q-15 7 -29.5 16t-31.5 9q-20 0 -58 0.5t-78 -1t-74.5 -6t-49.5 -15.5q-1 17 -1 34.5v34.5t0.5 35t0.5 35z" />
    <glyph glyph-name="Euro" unicode="&#x20ac;" horiz-adv-x="511" 
d="M489 183q-27 -195 -203 -195q-195 0 -227 250h-49v60h45q-1 10 -1 33q0 19 1 27h-45v60h49q33 261 229 261q84 0 137 -49.5t64 -139.5l-108 -14q-13 121 -93 121q-96 0 -113 -179h129v-60h-132l-1 -34q0 -19 1 -26h132v-60h-129q15 -168 111 -168q38 0 62.5 35t30.5 92z
" />
    <glyph glyph-name="bar" unicode="|" horiz-adv-x="175" 
d="M16 -143l26 37q4 35 3 71t-1 71q0 72 0.5 142.5t0.5 142.5q0 108 -1 214t-1 214q0 16 -8 29t-15 26h138q-7 -15 -16 -29.5t-9 -31.5v-821q0 -17 6 -34t16 -31q-17 -1 -34.5 -1h-34.5t-35 0.5t-35 0.5z" />
    <glyph glyph-name="backslash" unicode="\" horiz-adv-x="440" 
d="M298 -143l15 37q-8 40 -22 79.5t-26 77.5q-21 68 -42 135t-43 135l-91 286q-11 35 -21.5 71t-24.5 71q-7 17 -18 29t-22 26h136q-2 -11 -5 -22t-3 -22q0 -4 10.5 -40.5t28.5 -94t40.5 -130t46.5 -148t47.5 -148.5t43 -132t32 -98.5t15.5 -46.5q14 -38 42 -65
q-17 -1 -34 -1h-34q-18 0 -35.5 0.5t-35.5 0.5z" />
    <glyph glyph-name="slash" unicode="/" horiz-adv-x="508" 
d="M3 -143l40 37q8 16 26.5 61.5t43 109t53.5 139.5t58 153.5t56 150t47.5 129.5t33 92.5t12.5 38.5q0 9 -2 18l-4 18h138q-13 -16 -27 -30t-22 -33l-312 -819q-8 -19 -8 -38q0 -12 5 -27q-17 -1 -34 -1h-34t-35 0.5t-35 0.5z" />
    <glyph glyph-name="plus" unicode="+" horiz-adv-x="337" 
d="M16 389l37 -26q18 -2 36.5 -2.5t36.5 -0.5q-1 27 -1 40t-2.5 22t-7 18.5t-14.5 30.5h138q-7 -15 -16 -29.5t-9 -31.5v-50q27 1 39.5 1.5t20.5 2.5t17 7t30 14v-138q-15 7 -29.5 16t-31.5 9h-46q1 -24 4.5 -55t17.5 -51q-17 -1 -34.5 -1h-34.5t-35 0.5t-35 0.5l26 37l3 68
q-12 0 -27 -1t-30 -3t-29 -6t-24 -11q-1 17 -1 34.5v34.5t0.5 35t0.5 35z" />
    <glyph glyph-name="plusminus" unicode="&#xb1;" horiz-adv-x="353" 
d="M24 389l37 -26q18 -2 36.5 -2.5t36.5 -0.5q-1 27 -1 40t-2.5 22t-7 18.5t-14.5 30.5h138q-7 -15 -16 -29.5t-9 -31.5v-50q27 1 39.5 1.5t20.5 2.5t17 7t30 14v-138q-15 7 -29.5 16t-31.5 9h-46q1 -24 4.5 -55t17.5 -51q-17 -1 -34.5 -1h-34.5t-35 0.5t-35 0.5l26 37l3 68
q-12 0 -27 -1t-30 -3t-29 -6t-24 -11q-1 17 -1 34.5v34.5t0.5 35t0.5 35zM24 156l37 -26q17 -2 35 -2.5t36 -0.5q35 0 71 1t71 1q16 0 28.5 8t26.5 15v-138q-15 7 -29.5 16t-31.5 9q-20 0 -55 0.5t-72 -1t-69.5 -6t-47.5 -15.5q-1 17 -1 34.5v34.5t0.5 35t0.5 35z" />
    <glyph glyph-name="asterisk" unicode="*" horiz-adv-x="353" 
d="M122 435l26 37l3 65q-20 -12 -45 -31t-35 -40q-14 23 -27.5 45.5t-26.5 45.5l46 -4q17 7 32.5 15.5t30.5 17.5q-17 10 -28.5 16.5t-22 10.5t-23.5 5.5t-34 1.5q13 23 26.5 45.5t26.5 45.5q12 -17 18.5 -27t14 -17.5t18 -14.5t29.5 -17q-2 26 -2 37t-1.5 18.5t-6 17
t-15.5 32.5q8 0 15.5 0.5t15.5 0.5q19 0 37 -0.5t37 -0.5q-7 -15 -16 -29.5t-9 -31.5v-46q22 14 32 20.5t17 13.5q6 6 11.5 14.5l16.5 25.5q14 -22 26.5 -45t26.5 -46q-21 -3 -31.5 -3t-18 -1.5t-18 -6.5t-31.5 -18q20 -11 47 -22t50 -9q-14 -23 -26.5 -46t-26.5 -46l-19 42
l-28 18t-28 17q0 -12 1 -26t3.5 -28.5t6.5 -28t11 -23.5q-14 -1 -26.5 -1h-26.5h-26.5t-26.5 1z" />
    <glyph glyph-name="tilde" unicode="&#x2dc;" horiz-adv-x="363" 
d="M311 632q-9 -22 -25.5 -37t-43.5 -15q-17 0 -31 5.5t-26.5 11.5t-25 11.5t-25.5 5.5q-18 0 -29.5 -11.5t-19.5 -25.5v42q12 20 29.5 35t43.5 15q17 0 30.5 -5t26.5 -11.5t25.5 -12t27.5 -5.5q16 0 26 11.5t16 23.5z" />
    <glyph glyph-name="quoteleft" unicode="&#x2018;" horiz-adv-x="169" 
d="M141 794q-10 -5 -21 -11.5t-20 -15.5t-15 -19.5t-6 -23.5q0 -21 9.5 -29t21.5 -13t21.5 -11.5t9.5 -23.5q0 -15 -13.5 -24t-27.5 -9q-18 0 -33.5 7t-27 19t-18 28t-6.5 34q0 24 10.5 43t27.5 33.5t37.5 24t41.5 15.5z" />
    <glyph glyph-name="quoteright" unicode="&#x2019;" horiz-adv-x="169" 
d="M69 813q18 0 33.5 -7t27 -19t18.5 -28t7 -34q0 -24 -10.5 -43t-27.5 -33.5t-38 -24t-42 -15.5l-9 25q21 9 41.5 26t20.5 43q0 21 -9.5 29t-21.5 13.5t-21.5 11.5t-9.5 22t13.5 25t27.5 9z" />
    <glyph glyph-name="quotedblleft" unicode="&#x201c;" horiz-adv-x="329" 
d="M151 789q-10 -5 -21.5 -11.5t-21 -15t-15.5 -19t-6 -23.5q0 -15 5 -23.5t13 -13.5t17.5 -8t17.5 -7q5 -3 7 -12t2 -14q0 -15 -13.5 -24t-27.5 -9q-18 0 -33.5 7t-27 19t-18 28t-6.5 34q0 24 11 43t28 33.5t38 24t42 15.5zM299 789q-10 -5 -21.5 -11.5t-21 -15t-16 -19
t-6.5 -23.5q0 -17 14.5 -33.5t32.5 -16.5q10 -1 13 -10.5t3 -17.5q0 -15 -14 -24t-28 -9q-18 0 -33 7.5t-26.5 19.5t-18 28t-6.5 33q0 24 11 43t28 33.5t38 24t42 15.5z" />
    <glyph glyph-name="quotedblright" unicode="&#x201d;" horiz-adv-x="330" 
d="M74 828q18 0 33.5 -7.5t27 -19.5t18 -28t6.5 -33q0 -24 -11 -43t-28.5 -33.5t-39 -24t-41.5 -15.5l-9 25q10 4 21.5 11t21 15.5t15.5 19t6 23.5q0 21 -9.5 29t-21.5 13.5t-21.5 11.5t-9.5 22t14 25t28 9zM222 828q18 0 33.5 -7.5t27 -19.5t18 -28t6.5 -33q0 -24 -11 -43
t-28.5 -33.5t-39 -24t-41.5 -15.5l-9 25q10 4 21.5 11t21 15.5t15.5 19t6 23.5q0 21 -9.5 29.5t-21 13t-21 10.5t-9.5 23q0 16 13.5 25t27.5 9z" />
    <glyph glyph-name="quotesinglbase" unicode="&#x201a;" horiz-adv-x="179" 
d="M73 111q19 0 35.5 -8t29 -21t19.5 -30t7 -35q0 -27 -11 -47.5t-29 -36t-40.5 -25.5t-45.5 -16l-10 25q11 5 23 12.5t21.5 17t16 21t6.5 25.5q0 23 -10.5 32t-22.5 14t-22.5 11.5t-10.5 24.5q0 17 14.5 26.5t29.5 9.5z" />
    <glyph glyph-name="quotedblbase" unicode="&#x201e;" horiz-adv-x="347" 
d="M233 111q19 0 35.5 -7.5t29 -20.5t19.5 -30t7 -36q0 -27 -11 -47.5t-28.5 -35.5t-39.5 -25.5t-45 -16.5l-11 25q11 5 23 12.5t21.5 17t16 21t6.5 25.5q0 22 -10.5 31t-22.5 14t-22.5 12t-10.5 25q0 17 14 26.5t29 9.5zM75 111q19 0 35.5 -8t29 -21t19.5 -30t7 -35
q0 -27 -11 -47.5t-28.5 -36t-40 -25.5t-45.5 -16l-11 25q11 5 23 12.5t21.5 17t16 21t6.5 25.5q0 23 -10.5 32t-22.5 14t-22.5 11.5t-10.5 24.5q0 17 14.5 26.5t29.5 9.5z" />
    <glyph glyph-name="ring" unicode="&#x2da;" horiz-adv-x="257" 
d="M236 689q0 -49 -28.5 -75t-75.5 -26q-46 0 -75 26t-29 75t28.5 75t75.5 26q46 0 75 -26t29 -75zM175 690q0 48 -43 48t-43 -48t42 -48q44 0 44 48z" />
    <glyph glyph-name="guillemotright" unicode="&#xbb;" horiz-adv-x="430" 
d="M64 444q42 -53 84 -104t87 -102q-47 -48 -89 -99t-82 -105l-35 20l92 184l-92 185zM248 444q42 -53 83.5 -104.5t87.5 -101.5q-46 -48 -88 -99t-83 -105l-34 20l91 184l-91 185z" />
    <glyph glyph-name="guilsinglright" unicode="&#x203a;" horiz-adv-x="232" 
d="M60 444q42 -53 83.5 -104.5t86.5 -101.5q-47 -48 -89 -99t-81 -105l-34 20l90 184l-90 185z" />
    <glyph glyph-name="guillemotleft" unicode="&#xab;" horiz-adv-x="434" 
d="M372 34q-42 52 -84 103t-87 101q45 49 87 100.5t84 103.5l33 -19l-92 -185l92 -184zM181 34q-41 53 -82 104.5t-87 99.5q45 49 86 100.5t83 103.5l35 -19l-92 -185l92 -184z" />
    <glyph glyph-name="guilsinglleft" unicode="&#x2039;" horiz-adv-x="232" 
d="M173 34q-41 53 -83 104.5t-88 99.5q45 49 87 100.5t84 103.5l33 -19l-90 -185l90 -184z" />
    <glyph glyph-name="ellipsis" unicode="&#x2026;" horiz-adv-x="507" 
d="M88 118q18 0 34 -15t16 -33q0 -12 -4 -24.5t-11 -23t-18 -17.5t-24 -7q-22 0 -37 14.5t-15 36.5q0 25 16.5 47t42.5 22zM258 118q18 0 34 -15t16 -33q0 -12 -4 -24.5t-11 -23t-18 -17.5t-24 -7q-22 0 -37 14.5t-15 36.5q0 25 16.5 47t42.5 22zM428 118q18 0 34 -15
t16 -33q0 -12 -4 -24.5t-11 -23t-18 -17.5t-24 -7q-22 0 -37 14.5t-15 36.5q0 25 16.5 47t42.5 22z" />
    <glyph glyph-name="less" unicode="&#x3c;" horiz-adv-x="490" 
d="M464 0l-462 182v57l462 181v-58l-273 -151v-2l273 -151v-58z" />
    <glyph glyph-name="greater" unicode="&#x3e;" horiz-adv-x="490" 
d="M488 182l-462 -182v58l272 151v2l-272 151v58l462 -181v-57z" />
    <glyph glyph-name="asciicircum" unicode="^" horiz-adv-x="428" 
d="M13 334l175 417h54l173 -417h-56l-144 246h-2l-144 -246h-56z" />
    <glyph glyph-name="cedilla" unicode="&#xb8;" horiz-adv-x="170" 
d="M133 0q-3 -2 -8.5 -6t-10.5 -8.5t-9 -8.5t-4 -7q0 -6 8.5 -12.5t19 -15t19.5 -18.5t9 -22q0 -16 -13 -28.5t-32 -21.5t-42 -14.5t-42 -9.5l-13 18q9 3 19.5 7t20.5 10.5t16.5 13t6.5 14.5t-7.5 13.5t-16 11t-16 11.5t-7.5 15q0 7 6 14.5t15 15.5t18 15.5l15 12.5h48z" />
    <glyph glyph-name="multiply" unicode="&#xd7;" horiz-adv-x="390" 
d="M18 241l44 8q19 15 36 32l34 34q-9 9 -23 22.5t-29.5 26t-31 22t-28.5 11.5q24 26 48 50.5t50 47.5l8 -44q15 -20 33 -38l36 -36q22 24 34 35t19.5 20.5t13 22t13.5 38.5q25 -24 49 -48.5t48 -49.5q-18 -7 -32.5 -9.5t-29.5 -17.5l-53 -54q14 -14 29 -26.5t29 -26.5
q14 -13 26 -15.5t29 -7.5q-24 -25 -48.5 -49t-49.5 -48q-7 18 -9.5 33t-17.5 29l-50 49q-9 -9 -22 -22.5t-25 -28.5t-21.5 -30.5t-10.5 -27.5q-26 24 -50.5 48t-47.5 50z" />
    <glyph glyph-name="parenleft" unicode="(" horiz-adv-x="284" 
d="M239 -185q-121 86 -174.5 207t-53.5 267q0 144 53.5 266t174.5 207l28 -29q-43 -43 -72.5 -95.5t-48 -110.5t-27 -118.5t-8.5 -119.5q0 -56 9 -117.5t27.5 -121t48 -113t71.5 -93.5z" />
    <glyph glyph-name="parenright" unicode=")" horiz-adv-x="284" 
d="M273 289q0 -146 -55 -267t-176 -207l-25 27q43 42 72.5 95.5t47.5 112t26 120t8 119.5q0 55 -9 117t-28 122t-48 114.5t-69 93.5l25 26q121 -85 176 -206.5t55 -266.5z" />
    <glyph glyph-name="braceleft" unicode="{" horiz-adv-x="297" 
d="M283 -180q-39 0 -72.5 7t-58.5 24.5t-39.5 46t-14.5 72.5q0 53 3 105t3 105q0 49 -27 68t-72 22v39q48 3 73.5 21t25.5 69t-3 102t-3 102q0 45 14 74.5t38.5 47t58.5 25t74 7.5v-42q-96 -8 -96 -103q0 -50 6.5 -98.5t6.5 -98.5q0 -51 -24 -82.5t-75 -41.5v-5
q50 -9 74.5 -41t24.5 -82q0 -49 -6.5 -97.5t-6.5 -97.5q0 -52 22 -76t74 -29v-43z" />
    <glyph glyph-name="braceright" unicode="}" horiz-adv-x="297" 
d="M293 270q-26 -2 -45.5 -8t-32 -18t-18.5 -30.5t-6 -45.5q0 -51 3 -101.5t3 -101.5q0 -42 -14.5 -70t-39.5 -44.5t-58.5 -23.5t-70.5 -7v42q49 5 74.5 30t25.5 76q0 48 -7.5 94.5t-7.5 94.5q0 51 23 85.5t76 43.5v5q-50 10 -74.5 42t-24.5 82q0 51 7.5 100t7.5 100
q0 48 -27 72.5t-73 29.5v40q40 0 73.5 -6.5t58 -23.5t38 -46t13.5 -74q0 -50 -3 -99t-3 -99q0 -28 6 -46.5t18.5 -30t31.5 -17t46 -6.5v-39z" />
    <glyph glyph-name="exclam" unicode="!" horiz-adv-x="341" 
d="M103 667h135l-34 -487h-67zM115 123h111v-123h-111v123z" />
    <glyph glyph-name="question" unicode="?" horiz-adv-x="494" 
d="M133 453l-95 19q19 207 202 207q89 0 140 -50t51 -134q0 -42 -17.5 -84t-82.5 -95q-44 -37 -53.5 -57.5t-9.5 -54.5v-26h-92v20q0 72 11.5 100.5t55.5 66.5q44 37 60.5 64t16.5 68q0 46 -23 70t-63 24q-93 0 -101 -138zM167 120h109v-120h-109v120z" />
    <glyph glyph-name="percent" unicode="%" horiz-adv-x="681" 
d="M305 500q0 -83 -36 -127.5t-95 -44.5t-95.5 44.5t-36.5 127.5t36 127.5t96 44.5q58 0 94.5 -44t36.5 -128zM227 500q0 111 -53 111q-54 0 -54 -111t53 -111q54 0 54 111zM471 667h66l-325 -667h-66zM639 167q0 -83 -36 -128t-96 -45q-59 0 -95 45t-36 128t36.5 127.5
t94.5 44.5q59 0 95.5 -45t36.5 -127zM561 167q0 111 -54 111q-53 0 -53 -114q0 -108 53 -108q54 0 54 111z" />
    <glyph glyph-name="perthousand" unicode="&#x2030;" horiz-adv-x="988" 
d="M305 500q0 -83 -36 -127.5t-95 -44.5t-95 44.5t-36 127.5t36 127.5t95 44.5t95 -44t36 -128zM228 500q0 111 -54 111q-53 0 -53 -111t53 -111q54 0 54 111zM472 667h66l-326 -667h-66zM639 167q0 -83 -36 -128t-95 -45t-95 45t-36 128t36 127.5t95 44.5t95 -45t36 -127z
M562 167q0 111 -54 111q-53 0 -53 -114q0 -108 53 -108q54 0 54 111zM946 167q0 -83 -36 -128t-96 -45q-59 0 -94.5 45t-35.5 128t36 127.5t95 44.5t95 -44.5t36 -127.5zM868 167q0 111 -53 111q-54 0 -54 -114q0 -108 53 -108q54 0 54 111z" />
    <glyph glyph-name="caron" unicode="&#x2c7;" horiz-adv-x="293" 
d="M101 621q0 9 -7.5 19t-18 20t-21.5 19.5t-17 17.5h34q11 0 21.5 -0.5t20.5 -2.5q9 -6 16 -12t13 -12q7 6 14.5 12t16.5 12q10 2 20.5 2.5t21.5 0.5h34q-6 -7 -17.5 -17t-22.5 -20.5t-18.5 -21t-5.5 -17.5h-4q-5 0 -10.5 -0.5t-10.5 -0.5h-35q-6 0 -11.5 0.5t-12.5 0.5z
" />
    <glyph glyph-name="section" unicode="&#xa7;" horiz-adv-x="511" 
d="M445 549l-84 -20q-22 78 -93 78q-38 0 -57.5 -21.5t-19.5 -51.5q0 -35 20 -53t93 -48q76 -31 108.5 -64t32.5 -93q0 -78 -70 -135q76 -50 76 -138q0 -77 -53.5 -126t-142.5 -49q-163 0 -197 151l90 16q19 -90 109 -90q47 0 72 23t25 62q0 40 -24.5 60.5t-100.5 50.5
q-83 31 -118 64.5t-35 93.5q0 87 81 140q-60 47 -60 124q0 69 46 112.5t124 43.5q145 0 178 -130zM214 367q-48 -37 -48 -82q0 -27 17 -48.5t88 -48.5q34 -13 41 -16q47 36 47 80q0 23 -17 46t-128 69z" />
    <glyph glyph-name="asciitilde" unicode="~" horiz-adv-x="435" 
d="M409 397q-37 -74 -116 -74q-27 0 -51 7.5t-46 17t-43 17t-43 7.5q-29 0 -49 -15t-34 -38v59q21 34 52 53t71 19q25 0 47.5 -7.5t45 -16.5t45.5 -16.5t48 -7.5t42.5 14.5t28.5 34.5z" />
    <glyph glyph-name="periodcentered" unicode="&#xb7;" horiz-adv-x="158" 
d="M81 389q23 0 38.5 -14.5t15.5 -37.5q0 -25 -17 -45t-43 -20q-20 0 -36 14t-16 35q0 26 15.5 47t42.5 21z" />
    <glyph glyph-name="paragraph" unicode="&#xb6;" horiz-adv-x="511" 
d="M442 667v-834h-67v767h-49v-767h-67v446h-38q-69 0 -110 16t-68 62.5t-27 116.5q0 64 24.5 109t63 64.5t120.5 19.5h218z" />
    <glyph glyph-name="endash" unicode="&#x2013;" horiz-adv-x="350" 
d="M32 389l37 -26q24 -2 48 -2.5t48 -0.5t48.5 1t48.5 1q16 0 28.5 8t26.5 15v-138q-15 7 -29.5 16t-31.5 9q-19 0 -51 0.5t-65.5 -1t-63 -6t-44.5 -15.5q-1 17 -1 34.5v34.5t0.5 35t0.5 35z" />
    <glyph glyph-name="emdash" unicode="&#x2014;" horiz-adv-x="470" 
d="M32 389l37 -26q22 -2 43.5 -2.5t43.5 -0.5q57 0 113.5 1t113.5 1q16 0 28.5 8t26.5 15v-138q-15 7 -29.5 16t-31.5 9q-16 0 -44.5 0.5t-63.5 0.5t-72.5 -1t-71 -3.5t-58.5 -7t-35 -11.5q-1 17 -1 34.5v34.5t0.5 35t0.5 35z" />
    <glyph glyph-name="bullet" unicode="&#x2022;" horiz-adv-x="234" 
d="M119 476q41 0 67 -23.5t26 -65.5q0 -21 -7.5 -40.5t-21 -35t-32 -25t-40.5 -9.5q-17 0 -33 6.5t-28.5 17.5t-20 26t-7.5 32q0 21 7 41.5t19.5 37.5t30.5 27.5t40 10.5z" />
    <glyph glyph-name="uni00AD" unicode="&#xad;" horiz-adv-x="350" 
d="M32 389l37 -26q24 -2 48 -2.5t48 -0.5t48.5 1t48.5 1q16 0 28.5 8t26.5 15v-138q-15 7 -29.5 16t-31.5 9q-19 0 -51 0.5t-65.5 -1t-63 -6t-44.5 -15.5q-1 17 -1 34.5v34.5t0.5 35t0.5 35z" />
    <glyph glyph-name="brokenbar" unicode="&#xa6;" horiz-adv-x="175" 
d="M45 372q0 95 -1 188.5t-1 188.5q0 16 -8 29t-15 26h138q-8 -15 -16.5 -30t-8.5 -33v-369h-88zM16 -143l26 37q3 32 2.5 65t-0.5 65q0 66 0.5 130t0.5 130h88v-362q0 -17 6 -34t16 -31q-17 -1 -34.5 -1h-34.5t-35 0.5t-35 0.5z" />
    <glyph glyph-name="quotedbl" unicode="&#x22;" horiz-adv-x="287" 
d="M261 750q-2 -66 -11.5 -133.5t-17.5 -133.5l-27 -19l-27 173l-6 42t-8 42l91 36zM119 750q-2 -66 -11.5 -133.5t-17.5 -133.5l-27 -19l-27 173l-6 42t-8 42l91 36z" />
    <glyph glyph-name="numbersign" unicode="#" horiz-adv-x="494" 
d="M474 454l-13 -80h-98l-29 -119h87l-14 -80h-93l-43 -167h-49l42 167h-99l-42 -167h-50l41 167h-100l13 80h108l29 119h-93l10 80h103l38 144h50l-36 -144h99l35 144h49l-35 -144h90zM316 374h-100l-31 -119h100z" />
    <glyph glyph-name="at" unicode="@" horiz-adv-x="693" 
d="M514 -111q-42 -24 -88.5 -35.5t-94.5 -11.5q-65 0 -121.5 18.5t-98 54.5t-65.5 88.5t-24 121.5q0 77 30.5 139t81.5 106t118 68t140 24q52 0 103 -14.5t91 -43.5t64.5 -72.5t24.5 -101.5q0 -51 -19.5 -93t-52.5 -72.5t-77 -47t-93 -16.5q-10 0 -19.5 1t-17 4.5t-12 11
t-4.5 20.5q0 18 4 36t7 36l-3 1q-11 -16 -30 -35t-41 -35.5t-45 -28t-44 -11.5q-14 0 -23.5 7.5t-15 18.5t-7.5 24.5t-2 24.5q0 50 20 94.5t53.5 77.5t78.5 52t95 19q23 0 44 -5.5t44 -6.5q-5 -16 -14 -49t-17 -69.5t-14 -69t-6 -47.5q0 -9 3 -17t14 -8q36 0 62.5 17
t43.5 43.5t25.5 59t8.5 63.5q0 49 -19 85t-51 60t-73 35.5t-86 11.5q-63 0 -117 -22t-93 -61t-61 -93t-22 -117q0 -58 19.5 -103t54 -75.5t81.5 -46.5t103 -16q35 0 73.5 7t70.5 23zM378 278q-27 0 -46.5 -18t-32 -43.5t-18.5 -54.5t-6 -51q0 -5 0.5 -12t2.5 -14t5.5 -11.5
t10.5 -4.5q11 0 26.5 12t30.5 28t27.5 32.5t17.5 25.5q11 23 18 49t12 50q-11 5 -23 8.5t-25 3.5z" />
    <glyph glyph-name="underscore" unicode="_" horiz-adv-x="766" 
d="M734 -250h-702v48h702v-48z" />
    <glyph glyph-name="copyright" unicode="&#xa9;" horiz-adv-x="662" 
d="M332 625q65 0 121.5 -23t98 -64t65 -97t23.5 -122q0 -65 -24 -120.5t-65.5 -96.5t-98 -64t-120.5 -23q-65 0 -121.5 23t-98.5 63.5t-66 96t-24 121.5t24 122t66 97t98.5 64t121.5 23zM333 586q-57 0 -104 -21t-81.5 -57t-53.5 -85t-19 -104t19 -103.5t53.5 -84.5t82 -57
t103.5 -21t103 21t81.5 57t53.5 84.5t19 103.5t-19 103.5t-53 85t-81.5 57.5t-103.5 21zM485 249q-7 -21 -12 -42.5t-13 -41.5q-26 -8 -55 -14.5t-56 -6.5q-38 0 -72.5 11.5t-61 33.5t-42 54t-15.5 72q0 42 16 75.5t43.5 57t63.5 35.5t76 12q26 0 53 -4t51 -15
q2 -22 5 -43.5t6 -43.5l-24 -7q-14 35 -33.5 57.5t-60.5 22.5q-28 0 -48 -12.5t-32.5 -33t-18.5 -45t-6 -48.5t7 -49.5t20.5 -47t34 -35t48.5 -13.5q38 0 60.5 23t37.5 55z" />
    <glyph glyph-name="registered" unicode="&#xae;" horiz-adv-x="385" 
d="M193 751q35 0 66 -13.5t54 -36.5t36.5 -54t13.5 -66t-13.5 -66.5t-36.5 -54.5t-54 -36.5t-66 -13.5q-36 0 -67.5 13t-54.5 36t-36 54.5t-13 67.5q0 35 13.5 66t36.5 54t54.5 36.5t66.5 13.5zM193 721q-29 0 -53.5 -11t-42 -30.5t-27.5 -45t-10 -53.5q0 -29 10 -54
t27.5 -44.5t42 -30.5t53.5 -11q30 0 54.5 11t42 30t27.5 44.5t10 54.5q0 28 -10 53.5t-28 45t-42.5 30.5t-53.5 11zM286 491q-30 0 -46 12t-25.5 26.5t-16 26.5t-18.5 12h-5v-29q0 -10 0.5 -15t3.5 -7.5t8.5 -3t14.5 -1.5v-19h-92v19q19 1 22 5t3 22v93q0 15 -4 18.5
t-19 3.5v20h90q25 0 44.5 -10t19.5 -39q0 -17 -10 -27.5t-24 -16.5q11 -21 25.5 -40t33.5 -34zM187 590q14 0 25 8.5t11 23.5q0 14 -8 23t-22 9q-9 0 -13.5 -3t-4.5 -13v-48h12z" />
    <glyph glyph-name="logicalnot" unicode="&#xac;" horiz-adv-x="542" 
d="M510 72h-79v220h-429v68h508v-288z" />
    <glyph glyph-name="dagger" unicode="&#x2020;" horiz-adv-x="511" 
d="M207 667h97v-188h147v-87h-147v-559h-97v559h-147v87h147v188z" />
    <glyph glyph-name="daggerdbl" unicode="&#x2021;" horiz-adv-x="511" 
d="M207 667h97v-188h147v-87h-147v-284h147v-87h-147v-188h-97v188h-147v87h147v284h-147v87h147v188z" />
    <glyph glyph-name="currency" unicode="&#xa4;" horiz-adv-x="554" 
d="M155 332q0 -27 8.5 -50.5t24 -40.5t38 -27t50.5 -10q27 0 49.5 10t38.5 27.5t24.5 40.5t8.5 50t-8.5 50t-24.5 40t-38.5 27t-49.5 10q-56 0 -88.5 -36.5t-32.5 -90.5zM159 510q26 16 56 23.5t61 7.5q32 0 61.5 -7t55.5 -25l72 72l62 -62l-72 -71q17 -26 24.5 -55.5
t7.5 -60.5q0 -32 -8 -61.5t-25 -56.5l73 -71l-62 -62l-73 73q-26 -15 -55.5 -23.5t-60.5 -8.5t-60.5 7t-55.5 24l-73 -73l-60 63l71 71q-17 26 -25 56.5t-8 61.5t7.5 61t24.5 56l-70 70l60 63z" />
    <glyph glyph-name="ampersand" unicode="&#x26;" horiz-adv-x="504" 
d="M403 298l66 -15q-19 -107 -71 -181q28 -36 56 -36q8 0 24 3v-69q-24 -7 -42 -7q-50 0 -92 53q-61 -56 -136 -56q-78 0 -119.5 46t-41.5 111q0 104 116 158q-46 73 -46 123q0 46 34.5 80.5t90.5 34.5q57 0 88.5 -33t31.5 -83q0 -84 -96 -138l90 -131q31 48 47 140z
M230 337q62 36 62 91q0 24 -13 39.5t-35 15.5q-21 0 -35.5 -14.5t-14.5 -38.5q0 -38 36 -93zM198 255q-66 -39 -66 -104q0 -41 24 -67.5t62 -26.5q51 0 88 41z" />
    <glyph glyph-name="divide" unicode="&#xf7;" horiz-adv-x="427" 
d="M11 389l37 -26q22 -2 43.5 -2.5t43.5 -0.5q57 0 113.5 1t113.5 1q16 0 28.5 8t26.5 15v-138q-15 7 -29.5 16t-31.5 9q-16 0 -44.5 0.5t-63.5 0.5t-72.5 -1t-71 -3.5t-58.5 -7t-35 -11.5q-1 17 -1 34.5v34.5t0.5 35t0.5 35zM220 508q23 0 38.5 -14.5t15.5 -37.5
q0 -25 -17 -45t-43 -20q-20 0 -36 14t-16 35q0 26 15.5 47t42.5 21zM213 234q23 0 38.5 -14.5t15.5 -37.5q0 -25 -17 -45t-43 -20q-20 0 -36 14t-16 35q0 26 15.5 47t42.5 21z" />
    <glyph glyph-name="breve" unicode="&#x2d8;" horiz-adv-x="236" 
d="M118 612q-27 0 -45.5 16t-29.5 39t-16 49.5t-5 47.5l22 18q4 -33 24.5 -54.5t55.5 -21.5q20 0 32 5.5t19 16t9 24t2 30.5l28 -18q-1 -21 -6 -47t-16 -49.5t-29 -39.5t-45 -16z" />
    <glyph glyph-name="dotaccent" unicode="&#x2d9;" horiz-adv-x="173" 
d="M25 718q8 1 16.5 1.5t16.5 0.5q17 0 34.5 -1t34.5 -1q-1 -5 -1 -15q0 -22 7 -42.5t17 -40.5h-42q-13 0 -26 1t-26 6q-32 32 -32 74v8.5t1 8.5z" />
    <glyph glyph-name="hungarumlaut" unicode="&#x2dd;" horiz-adv-x="411" 
d="M202 773q-8 -18 -17.5 -37.5t-20.5 -39t-23.5 -37.5t-25.5 -32q-13 -5 -26 -6t-26 -1h-42q7 14 21 34.5t27.5 42t23 41.5t7.5 35q17 0 34.5 1t34.5 1q8 0 16.5 -0.5t16.5 -1.5zM390 773q-8 -18 -17.5 -37.5t-20.5 -39t-23.5 -37.5t-25.5 -32q-13 -5 -26 -6t-26 -1h-42
q7 14 21 34.5t27.5 42t23 41.5t7.5 35q17 0 34.5 1t34.5 1q8 0 16.5 -0.5t16.5 -1.5z" />
    <glyph glyph-name="dblgrave" unicode="&#xf6d6;" horiz-adv-x="411" 
d="M21 773q8 1 16.5 1.5t16.5 0.5q17 0 34.5 -1t34.5 -1l-1 -6q0 -15 10 -34t23.5 -39.5t26.5 -39.5t20 -34h-42q-13 0 -26 1t-26 6q-14 14 -26 32t-23 37.5t-20.5 39t-17.5 37.5zM209 773q8 1 16.5 1.5t16.5 0.5q17 0 34.5 -1t34.5 -1l-1 -6q0 -15 10 -34t23.5 -39.5
t26.5 -39.5t20 -34h-42q-13 0 -26 1t-26 6q-14 14 -26 32t-23 37.5t-20.5 39t-17.5 37.5z" />
    <glyph glyph-name="commaaccent" unicode="&#xf6c3;" horiz-adv-x="179" 
d="M73 -41q19 0 35.5 -8t29 -21t19.5 -30t7 -35q0 -27 -11 -47.5t-29 -36t-40.5 -25.5t-45.5 -16l-10 25q11 5 23 12.5t21.5 17t16 21t6.5 25.5q0 23 -10.5 32t-22.5 14t-22.5 11.5t-10.5 24.5q0 17 14.5 26.5t29.5 9.5z" />
    <glyph glyph-name="macron" unicode="&#xaf;" horiz-adv-x="373" 
d="M32 700h308v-63h-308v63z" />
    <glyph glyph-name="ogonek" unicode="&#x2db;" horiz-adv-x="216" 
d="M23 -91q0 23 12 41.5t30.5 33t40.5 24.5t41 15l23 -16q-23 -10 -39.5 -29t-16.5 -45t13.5 -48t42.5 -22q18 0 37 7l-10 -32q-15 -4 -30.5 -5.5t-30.5 -1.5q-18 0 -38 4t-36.5 13t-27.5 24t-11 37z" />
    <glyph glyph-name="Agrave" unicode="&#xc0;" horiz-adv-x="487" 
d="M108 668q6 0 13 -2t13 -4q21 -7 43 -7h44q38 0 76 -1.5t76 -1.5q26 0 50.5 1t48.5 6l11 -12q-8 -17 -21.5 -31.5t-21.5 -31.5q0 -11 -1 -21.5t-1 -22.5q-1 -38 -1.5 -76.5t-0.5 -75.5q0 -36 -0.5 -77t-0.5 -82t0.5 -81.5t3.5 -74.5q1 -10 8 -17.5t16 -14.5t17.5 -14
t11.5 -16q-22 -5 -43.5 -7t-43.5 -2h-55.5t-52.5 13q9 10 18.5 19t16.5 18t12 20.5t5 26.5q0 35 -2 68.5t-1 68.5q0 8 -0.5 14t-2.5 11q-17 4 -32 3.5t-32 4.5q-18 5 -37.5 10.5t-39.5 5.5l-14 -1q-11 -6 -19.5 -31.5t-14.5 -56t-9.5 -59t-3.5 -40.5l1 -24q6 -10 14 -17.5
l16 -15t15 -16t12 -18.5q-42 -2 -82.5 -2.5t-81.5 -0.5q-8 0 -15.5 1.5t-13.5 6.5q2 9 8 16t13 13t14.5 12t13.5 14q9 35 12 72t13 72q8 29 14 56.5t14 55.5q22 70 55 137t65 133q-10 2 -19 3.5t-19 1.5q-21 0 -38.5 -5.5t-32 -12t-25.5 -12t-19 -5.5q-9 7 -9 19
q0 6 3.5 20.5t9.5 29.5t13.5 26t15.5 11zM205 376q27 -8 54.5 -17t56.5 -9q17 0 23.5 7t6.5 24q2 54 2.5 109.5t-10.5 108.5q-25 -6 -47 -33.5t-39 -62.5t-29 -70.5t-18 -56.5zM205 347q-8 -4 -12.5 -10t-8.5 -12q35 -15 73 -22.5t76 -10.5q2 7 4.5 14.5t6.5 15.5
q-35 4 -70 14.5t-69 10.5zM240 850q5 1 11 1.5t11 0.5q12 0 23.5 -1t23.5 -1q0 -15 6 -31t15 -31.5t18 -30.5t14 -29h-28q-9 0 -17.5 1t-17.5 5q-10 11 -18 25.5t-15.5 30t-14 31t-11.5 29.5z" />
    <glyph glyph-name="Aacute" unicode="&#xc1;" horiz-adv-x="487" 
d="M108 668q6 0 13 -2t13 -4q21 -7 43 -7h44q38 0 76 -1.5t76 -1.5q26 0 50.5 1t48.5 6l11 -12q-8 -17 -21.5 -31.5t-21.5 -31.5q0 -11 -1 -21.5t-1 -22.5q-1 -38 -1.5 -76.5t-0.5 -75.5q0 -36 -0.5 -77t-0.5 -82t0.5 -81.5t3.5 -74.5q1 -10 8 -17.5t16 -14.5t17.5 -14
t11.5 -16q-22 -5 -43.5 -7t-43.5 -2h-55.5t-52.5 13q9 10 18.5 19t16.5 18t12 20.5t5 26.5q0 35 -2 68.5t-1 68.5q0 8 -0.5 14t-2.5 11q-17 4 -32 3.5t-32 4.5q-18 5 -37.5 10.5t-39.5 5.5l-14 -1q-11 -6 -19.5 -31.5t-14.5 -56t-9.5 -59t-3.5 -40.5l1 -24q6 -10 14 -17.5
l16 -15t15 -16t12 -18.5q-42 -2 -82.5 -2.5t-81.5 -0.5q-8 0 -15.5 1.5t-13.5 6.5q2 9 8 16t13 13t14.5 12t13.5 14q9 35 12 72t13 72q8 29 14 56.5t14 55.5q22 70 55 137t65 133q-10 2 -19 3.5t-19 1.5q-21 0 -38.5 -5.5t-32 -12t-25.5 -12t-19 -5.5q-9 7 -9 19
q0 6 3.5 20.5t9.5 29.5t13.5 26t15.5 11zM205 376q27 -8 54.5 -17t56.5 -9q17 0 23.5 7t6.5 24q2 54 2.5 109.5t-10.5 108.5q-25 -6 -47 -33.5t-39 -62.5t-29 -70.5t-18 -56.5zM205 347q-8 -4 -12.5 -10t-8.5 -12q35 -15 73 -22.5t76 -10.5q2 7 4.5 14.5t6.5 15.5
q-35 4 -70 14.5t-69 10.5zM426 857q-6 -15 -12.5 -32t-15 -34t-17.5 -33t-18 -28q-10 -4 -19.5 -5t-18.5 -1h-31q5 12 15.5 30t20 36.5t16.5 36t6 30.5q12 0 25 1t25 1q6 0 12 -0.5t12 -1.5z" />
    <glyph glyph-name="Acircumflex" unicode="&#xc2;" horiz-adv-x="487" 
d="M108 668q6 0 13 -2t13 -4q21 -7 43 -7h44q38 0 76 -1.5t76 -1.5q26 0 50.5 1t48.5 6l11 -12q-8 -17 -21.5 -31.5t-21.5 -31.5q0 -11 -1 -21.5t-1 -22.5q-1 -38 -1.5 -76.5t-0.5 -75.5q0 -36 -0.5 -77t-0.5 -82t0.5 -81.5t3.5 -74.5q1 -10 8 -17.5t16 -14.5t17.5 -14
t11.5 -16q-22 -5 -43.5 -7t-43.5 -2h-55.5t-52.5 13q9 10 18.5 19t16.5 18t12 20.5t5 26.5q0 35 -2 68.5t-1 68.5q0 8 -0.5 14t-2.5 11q-17 4 -32 3.5t-32 4.5q-18 5 -37.5 10.5t-39.5 5.5l-14 -1q-11 -6 -19.5 -31.5t-14.5 -56t-9.5 -59t-3.5 -40.5l1 -24q6 -10 14 -17.5
l16 -15t15 -16t12 -18.5q-42 -2 -82.5 -2.5t-81.5 -0.5q-8 0 -15.5 1.5t-13.5 6.5q2 9 8 16t13 13t14.5 12t13.5 14q9 35 12 72t13 72q8 29 14 56.5t14 55.5q22 70 55 137t65 133q-10 2 -19 3.5t-19 1.5q-21 0 -38.5 -5.5t-32 -12t-25.5 -12t-19 -5.5q-9 7 -9 19
q0 6 3.5 20.5t9.5 29.5t13.5 26t15.5 11zM205 376q27 -8 54.5 -17t56.5 -9q17 0 23.5 7t6.5 24q2 54 2.5 109.5t-10.5 108.5q-25 -6 -47 -33.5t-39 -62.5t-29 -70.5t-18 -56.5zM205 347q-8 -4 -12.5 -10t-8.5 -12q35 -15 73 -22.5t76 -10.5q2 7 4.5 14.5t6.5 15.5
q-35 4 -70 14.5t-69 10.5zM273 783h34q7 0 13 -0.5t13 -0.5q0 -8 7.5 -16.5t18.5 -17.5t22.5 -17.5t17.5 -15.5h-35q-11 0 -21.5 0.5t-21.5 2.5q-9 5 -16.5 10t-14.5 11q-7 -6 -14 -11t-16 -10q-11 -2 -21.5 -2.5t-21.5 -0.5h-35q6 7 17.5 15.5t22.5 18t19 18t6 15.5h4
q5 0 10.5 0.5t11.5 0.5z" />
    <glyph glyph-name="Atilde" unicode="&#xc3;" horiz-adv-x="487" 
d="M108 668q6 0 13 -2t13 -4q21 -7 43 -7h44q38 0 76 -1.5t76 -1.5q26 0 50.5 1t48.5 6l11 -12q-8 -17 -21.5 -31.5t-21.5 -31.5q0 -11 -1 -21.5t-1 -22.5q-1 -38 -1.5 -76.5t-0.5 -75.5q0 -36 -0.5 -77t-0.5 -82t0.5 -81.5t3.5 -74.5q1 -10 8 -17.5t16 -14.5t17.5 -14
t11.5 -16q-22 -5 -43.5 -7t-43.5 -2h-55.5t-52.5 13q9 10 18.5 19t16.5 18t12 20.5t5 26.5q0 35 -2 68.5t-1 68.5q0 8 -0.5 14t-2.5 11q-17 4 -32 3.5t-32 4.5q-18 5 -37.5 10.5t-39.5 5.5l-14 -1q-11 -6 -19.5 -31.5t-14.5 -56t-9.5 -59t-3.5 -40.5l1 -24q6 -10 14 -17.5
l16 -15t15 -16t12 -18.5q-42 -2 -82.5 -2.5t-81.5 -0.5q-8 0 -15.5 1.5t-13.5 6.5q2 9 8 16t13 13t14.5 12t13.5 14q9 35 12 72t13 72q8 29 14 56.5t14 55.5q22 70 55 137t65 133q-10 2 -19 3.5t-19 1.5q-21 0 -38.5 -5.5t-32 -12t-25.5 -12t-19 -5.5q-9 7 -9 19
q0 6 3.5 20.5t9.5 29.5t13.5 26t15.5 11zM205 376q27 -8 54.5 -17t56.5 -9q17 0 23.5 7t6.5 24q2 54 2.5 109.5t-10.5 108.5q-25 -6 -47 -33.5t-39 -62.5t-29 -70.5t-18 -56.5zM205 347q-8 -4 -12.5 -10t-8.5 -12q35 -15 73 -22.5t76 -10.5q2 7 4.5 14.5t6.5 15.5
q-35 4 -70 14.5t-69 10.5zM431 779q-9 -22 -25.5 -37t-43.5 -15q-17 0 -31 5.5t-26.5 11.5t-25 11.5t-25.5 5.5q-18 0 -29.5 -11.5t-19.5 -25.5v42q12 20 29.5 35t43.5 15q17 0 30.5 -5t26.5 -11.5t25.5 -12t27.5 -5.5q16 0 26 11.5t16 23.5z" />
    <glyph glyph-name="Aring" unicode="&#xc5;" horiz-adv-x="487" 
d="M108 668q6 0 13 -2t13 -4q21 -7 43 -7h44q38 0 76 -1.5t76 -1.5q26 0 50.5 1t48.5 6l11 -12q-8 -17 -21.5 -31.5t-21.5 -31.5q0 -11 -1 -21.5t-1 -22.5q-1 -38 -1.5 -76.5t-0.5 -75.5q0 -36 -0.5 -77t-0.5 -82t0.5 -81.5t3.5 -74.5q1 -10 8 -17.5t16 -14.5t17.5 -14
t11.5 -16q-22 -5 -43.5 -7t-43.5 -2h-55.5t-52.5 13q9 10 18.5 19t16.5 18t12 20.5t5 26.5q0 35 -2 68.5t-1 68.5q0 8 -0.5 14t-2.5 11q-17 4 -32 3.5t-32 4.5q-18 5 -37.5 10.5t-39.5 5.5l-14 -1q-11 -6 -19.5 -31.5t-14.5 -56t-9.5 -59t-3.5 -40.5l1 -24q6 -10 14 -17.5
l16 -15t15 -16t12 -18.5q-42 -2 -82.5 -2.5t-81.5 -0.5q-8 0 -15.5 1.5t-13.5 6.5q2 9 8 16t13 13t14.5 12t13.5 14q9 35 12 72t13 72q8 29 14 56.5t14 55.5q22 70 55 137t65 133q-10 2 -19 3.5t-19 1.5q-21 0 -38.5 -5.5t-32 -12t-25.5 -12t-19 -5.5q-9 7 -9 19
q0 6 3.5 20.5t9.5 29.5t13.5 26t15.5 11zM205 376q27 -8 54.5 -17t56.5 -9q17 0 23.5 7t6.5 24q2 54 2.5 109.5t-10.5 108.5q-25 -6 -47 -33.5t-39 -62.5t-29 -70.5t-18 -56.5zM205 347q-8 -4 -12.5 -10t-8.5 -12q35 -15 73 -22.5t76 -10.5q2 7 4.5 14.5t6.5 15.5
q-35 4 -70 14.5t-69 10.5zM430 800q0 -49 -28.5 -75t-75.5 -26q-46 0 -75 26t-29 75t28.5 75t75.5 26q46 0 75 -26t29 -75zM369 801q0 48 -43 48t-43 -48t42 -48q44 0 44 48z" />
    <glyph glyph-name="AE" unicode="&#xc6;" horiz-adv-x="743" 
d="M414 2h-9h-1q-10 -1 -19 -1h-19q-19 0 -37 3t-32 11q9 10 18.5 19t16.5 18t12 20.5t5 26.5q0 35 -2 68.5t-1 68.5q0 8 -0.5 14t-2.5 11q-17 4 -32 3.5t-32 4.5q-18 5 -37.5 10.5t-39.5 5.5l-14 -1q-11 -6 -19.5 -31.5t-14.5 -56t-9.5 -59t-3.5 -40.5l1 -24
q6 -10 14 -17.5l16 -15t15 -16t12 -18.5q-42 -2 -82.5 -2.5t-81.5 -0.5q-8 0 -15.5 1.5t-13.5 6.5q2 9 8 16t13 13t14.5 12t13.5 14q9 35 12 72t13 72q8 29 14 56.5t14 55.5q22 70 55 137t65 133q-10 2 -19 3.5t-19 1.5q-21 0 -38.5 -5.5t-32 -12t-25.5 -12t-19 -5.5
q-9 7 -9 19q0 6 3.5 20.5t9.5 29.5t13.5 26t15.5 11q6 0 13 -2t13 -4q21 -7 43 -7h44h23.5t50 -0.5t63 -1.5t64 -1.5t52.5 -1t29 -0.5q37 0 70.5 8t60.5 8q6 0 15 -10.5t17.5 -24t15 -26.5t6.5 -19q0 -7 -4 -13.5t-12 -6.5q-2 0 -14.5 4.5t-30 9.5t-39 9.5t-41.5 4.5
q-26 0 -52.5 -2t-52.5 -4q-3 -20 -4 -40.5t-1 -40.5q0 -6 5 -10.5t10 -7.5h66q42 0 86.5 1t84.5 14q0 -9 -4 -27.5t-10 -38t-15 -34t-19 -14.5q-6 0 -12.5 4.5t-13 9.5l-13 10t-13.5 6q-23 4 -48 4.5t-48 0.5h-20.5t-17 -2.5t-12 -9t-4.5 -20.5v-17q4 -72 6 -142.5t4 -142.5
q17 3 34.5 5t35.5 2q28 0 55.5 -6t55.5 -6q15 0 26 5t21 10.5t20 10.5t22 5q9 -11 9 -20q0 -5 -5.5 -21t-12.5 -35t-13 -36t-9 -23q-27 2 -52.5 11.5t-53.5 10.5q-19 1 -37.5 1h-37.5q-24 0 -47 -1zM205 376q27 -8 54.5 -17t56.5 -9q17 0 23.5 7t6.5 24q2 54 2.5 109.5
t-10.5 108.5q-25 -6 -47 -33.5t-39 -62.5t-29 -70.5t-18 -56.5zM205 347q-8 -4 -12.5 -10t-8.5 -12q35 -15 73 -22.5t76 -10.5q2 7 4.5 14.5t6.5 15.5q-35 4 -70 14.5t-69 10.5z" />
    <glyph glyph-name="Ccedilla" unicode="&#xc7;" horiz-adv-x="411" 
d="M274 671q5 0 19.5 -1.5t30.5 -3.5t30 -4t17 -4q11 -20 20 -43t8 -48l-1 -12q-28 10 -49.5 18t-51.5 8q-53 0 -87.5 -24.5t-54 -63t-27.5 -84.5t-9 -89q-1 -56 9 -114t33.5 -109.5t62 -92.5t94.5 -62q20 -8 42 -9.5t42 -12.5q-4 -14 -8 -22t-10 -12t-15 -5t-24 -1
q-42 0 -78 17.5t-70 40.5q-56 38 -91 90.5t-54.5 112.5t-26.5 125.5t-6 128.5q1 33 14 70.5t35 72.5t49.5 64.5t56.5 44.5q46 24 100 24zM321 -89q-3 -2 -8.5 -6t-10.5 -8.5t-9 -8.5t-4 -7q0 -6 8.5 -12.5t19 -15t19.5 -18.5t9 -22q0 -16 -13 -28.5t-32 -21.5t-42 -14.5
t-42 -9.5l-13 18q9 3 19.5 7t20.5 10.5t16.5 13t6.5 14.5t-7.5 13.5t-16 11t-16 11.5t-7.5 15q0 7 6 14.5t15 15.5t18 15.5l15 12.5h48z" />
    <glyph glyph-name="Egrave" unicode="&#xc8;" horiz-adv-x="464" 
d="M361 679q6 0 15 -12.5t17.5 -28.5t15 -31t6.5 -21q0 -7 -4 -13.5t-12 -6.5q-2 0 -14.5 4.5t-30 9.5t-39 9.5t-41.5 4.5q-26 0 -52.5 -2t-52.5 -4q-3 -20 -4 -40.5t-1 -40.5q0 -6 5 -10.5t10 -7.5h66q42 0 86.5 1t84.5 14q0 -9 -4 -27.5t-10 -38t-15 -34t-19 -14.5
q-6 0 -12.5 4.5t-13 9.5l-13 10t-13.5 6q-23 4 -48 4.5t-48 0.5h-20.5t-17 -2.5t-12 -9t-4.5 -20.5v-17q4 -72 6 -142.5t4 -142.5q17 3 34.5 5t35.5 2q28 0 55.5 -6t55.5 -6q15 0 26 5t21 10.5t20 10.5t22 5q9 -11 9 -20q0 -5 -5.5 -21t-12.5 -35t-13 -36t-9 -23
q-27 2 -52.5 11.5t-53.5 10.5q-19 1 -37.5 1h-37.5q-48 0 -93.5 -2.5t-93.5 -2.5q-8 0 -14 7t-6 15q0 7 7.5 13.5t16.5 17.5t16.5 30t7.5 51q1 35 -1.5 70t-1.5 70q0 25 1.5 49.5t2.5 49.5v42t-0.5 56.5t-2 55.5t-3.5 39q-2 10 -10 22t-17 24t-16 21.5t-7 13.5q0 8 8.5 10.5
t14.5 3.5q47 5 93.5 3.5t93.5 -1.5q37 0 70.5 8t60.5 8zM153 835q5 1 11 1.5t11 0.5q12 0 23.5 -1t23.5 -1q0 -15 6 -31t15 -31.5t18 -30.5t14 -29h-28q-9 0 -17.5 1t-17.5 5q-10 11 -18 25.5t-15.5 30t-14 31t-11.5 29.5z" />
    <glyph glyph-name="Eacute" unicode="&#xc9;" horiz-adv-x="464" 
d="M361 679q6 0 15 -12.5t17.5 -28.5t15 -31t6.5 -21q0 -7 -4 -13.5t-12 -6.5q-2 0 -14.5 4.5t-30 9.5t-39 9.5t-41.5 4.5q-26 0 -52.5 -2t-52.5 -4q-3 -20 -4 -40.5t-1 -40.5q0 -6 5 -10.5t10 -7.5h66q42 0 86.5 1t84.5 14q0 -9 -4 -27.5t-10 -38t-15 -34t-19 -14.5
q-6 0 -12.5 4.5t-13 9.5l-13 10t-13.5 6q-23 4 -48 4.5t-48 0.5h-20.5t-17 -2.5t-12 -9t-4.5 -20.5v-17q4 -72 6 -142.5t4 -142.5q17 3 34.5 5t35.5 2q28 0 55.5 -6t55.5 -6q15 0 26 5t21 10.5t20 10.5t22 5q9 -11 9 -20q0 -5 -5.5 -21t-12.5 -35t-13 -36t-9 -23
q-27 2 -52.5 11.5t-53.5 10.5q-19 1 -37.5 1h-37.5q-48 0 -93.5 -2.5t-93.5 -2.5q-8 0 -14 7t-6 15q0 7 7.5 13.5t16.5 17.5t16.5 30t7.5 51q1 35 -1.5 70t-1.5 70q0 25 1.5 49.5t2.5 49.5v42t-0.5 56.5t-2 55.5t-3.5 39q-2 10 -10 22t-17 24t-16 21.5t-7 13.5q0 8 8.5 10.5
t14.5 3.5q47 5 93.5 3.5t93.5 -1.5q37 0 70.5 8t60.5 8zM311 847q-6 -15 -12.5 -32t-15 -34t-17.5 -33t-18 -28q-10 -4 -19.5 -5t-18.5 -1h-31q5 12 15.5 30t20 36.5t16.5 36t6 30.5q12 0 25 1t25 1q6 0 12 -0.5t12 -1.5z" />
    <glyph glyph-name="Ecircumflex" unicode="&#xca;" horiz-adv-x="464" 
d="M361 679q6 0 15 -12.5t17.5 -28.5t15 -31t6.5 -21q0 -7 -4 -13.5t-12 -6.5q-2 0 -14.5 4.5t-30 9.5t-39 9.5t-41.5 4.5q-26 0 -52.5 -2t-52.5 -4q-3 -20 -4 -40.5t-1 -40.5q0 -6 5 -10.5t10 -7.5h66q42 0 86.5 1t84.5 14q0 -9 -4 -27.5t-10 -38t-15 -34t-19 -14.5
q-6 0 -12.5 4.5t-13 9.5l-13 10t-13.5 6q-23 4 -48 4.5t-48 0.5h-20.5t-17 -2.5t-12 -9t-4.5 -20.5v-17q4 -72 6 -142.5t4 -142.5q17 3 34.5 5t35.5 2q28 0 55.5 -6t55.5 -6q15 0 26 5t21 10.5t20 10.5t22 5q9 -11 9 -20q0 -5 -5.5 -21t-12.5 -35t-13 -36t-9 -23
q-27 2 -52.5 11.5t-53.5 10.5q-19 1 -37.5 1h-37.5q-48 0 -93.5 -2.5t-93.5 -2.5q-8 0 -14 7t-6 15q0 7 7.5 13.5t16.5 17.5t16.5 30t7.5 51q1 35 -1.5 70t-1.5 70q0 25 1.5 49.5t2.5 49.5v42t-0.5 56.5t-2 55.5t-3.5 39q-2 10 -10 22t-17 24t-16 21.5t-7 13.5q0 8 8.5 10.5
t14.5 3.5q47 5 93.5 3.5t93.5 -1.5q37 0 70.5 8t60.5 8zM195 773h34q7 0 13 -0.5t13 -0.5q0 -8 7.5 -16.5t18.5 -17.5t22.5 -17.5t17.5 -15.5h-35q-11 0 -21.5 0.5t-21.5 2.5q-9 5 -16.5 10t-14.5 11q-7 -6 -14 -11t-16 -10q-11 -2 -21.5 -2.5t-21.5 -0.5h-35q6 7 17.5 15.5
t22.5 18t19 18t6 15.5h4q5 0 10.5 0.5t11.5 0.5z" />
    <glyph glyph-name="Edieresis" unicode="&#xcb;" horiz-adv-x="464" 
d="M361 679q6 0 15 -12.5t17.5 -28.5t15 -31t6.5 -21q0 -7 -4 -13.5t-12 -6.5q-2 0 -14.5 4.5t-30 9.5t-39 9.5t-41.5 4.5q-26 0 -52.5 -2t-52.5 -4q-3 -20 -4 -40.5t-1 -40.5q0 -6 5 -10.5t10 -7.5h66q42 0 86.5 1t84.5 14q0 -9 -4 -27.5t-10 -38t-15 -34t-19 -14.5
q-6 0 -12.5 4.5t-13 9.5l-13 10t-13.5 6q-23 4 -48 4.5t-48 0.5h-20.5t-17 -2.5t-12 -9t-4.5 -20.5v-17q4 -72 6 -142.5t4 -142.5q17 3 34.5 5t35.5 2q28 0 55.5 -6t55.5 -6q15 0 26 5t21 10.5t20 10.5t22 5q9 -11 9 -20q0 -5 -5.5 -21t-12.5 -35t-13 -36t-9 -23
q-27 2 -52.5 11.5t-53.5 10.5q-19 1 -37.5 1h-37.5q-48 0 -93.5 -2.5t-93.5 -2.5q-8 0 -14 7t-6 15q0 7 7.5 13.5t16.5 17.5t16.5 30t7.5 51q1 35 -1.5 70t-1.5 70q0 25 1.5 49.5t2.5 49.5v42t-0.5 56.5t-2 55.5t-3.5 39q-2 10 -10 22t-17 24t-16 21.5t-7 13.5q0 8 8.5 10.5
t14.5 3.5q47 5 93.5 3.5t93.5 -1.5q37 0 70.5 8t60.5 8zM272 822l21 1q17 0 30.5 -14.5t13.5 -32.5q-1 -26 -10.5 -42t-38.5 -16q-11 0 -20 6t-16 15.5t-10.5 21t-3.5 21.5q0 5 4 11.5t9 12t11 10t10 6.5zM137 822l21 1q17 0 30.5 -14.5t13.5 -32.5q-1 -26 -10.5 -42
t-38.5 -16q-11 0 -20 6t-16 15.5t-10.5 21t-3.5 21.5q0 5 4 11.5t9 12t11 10t10 6.5z" />
    <glyph glyph-name="dotlessi" unicode="&#x131;" horiz-adv-x="217" 
d="M123 513q4 3 10 3q9 0 16 -7q2 -10 1 -20t-1 -20q0 -42 0.5 -84t2.5 -84q3 -51 1 -105.5t6 -105.5q1 -10 8.5 -18.5t15.5 -17.5t15 -19t9 -22q-19 -8 -40 -10.5t-43 -2.5t-43.5 1t-41.5 1q-9 0 -13.5 9t-4.5 17q7 9 15.5 16.5t16 15t12.5 16.5t5 22q0 71 -1 141.5
t-1 142.5q0 12 -1 27.5t-6 26.5q-8 6 -16.5 11.5t-16.5 11.5t-13 14t-5 19v6q28 6 56 9t57 6z" />
    <glyph glyph-name="Scaron" unicode="&#x160;" horiz-adv-x="394" 
d="M188 650q23 0 44.5 -5t43.5 -5q11 0 21.5 4t21.5 6q14 -21 21 -45t15 -47l-11 -7q-35 14 -68 25.5t-72 11.5q-30 0 -50 -18t-21 -49q0 -14 4.5 -29t14.5 -25q19 -19 40.5 -35t43.5 -31t43 -31.5t39 -37.5q30 -35 49.5 -76.5t18.5 -89.5q-1 -43 -18.5 -79t-47 -62
t-67.5 -40.5t-80 -14.5q-24 0 -46.5 7.5t-45.5 7.5q-18 0 -32 -7q-34 50 -38 110q14 0 28 -8t31.5 -17.5t39 -17.5t50.5 -8q59 0 93.5 32.5t36.5 92.5q1 42 -18 73t-47.5 56.5t-62 48t-62 48.5t-47.5 57t-18 74q1 31 14 55.5t34.5 41.5t48.5 25.5t56 8.5zM160 701
q0 9 -7.5 19t-18 20t-21.5 19.5t-17 17.5h34q11 0 21.5 -0.5t20.5 -2.5q9 -6 16 -12t13 -12q7 6 14.5 12t16.5 12q10 2 20.5 2.5t21.5 0.5h34q-6 -7 -17.5 -17t-22.5 -20.5t-18.5 -21t-5.5 -17.5h-4q-5 0 -10.5 -0.5t-10.5 -0.5h-35q-6 0 -11.5 0.5t-12.5 0.5z" />
    <glyph glyph-name="OE" unicode="&#x152;" horiz-adv-x="703" 
d="M592 679q6 0 15 -12.5t17.5 -28.5t15 -31t6.5 -21q0 -7 -4 -13.5t-12 -6.5q-2 0 -14.5 4.5t-30 9.5t-39 9.5t-41.5 4.5q-26 0 -52.5 -2t-52.5 -4q-3 -20 -4 -40.5t-1 -40.5q0 -6 5 -10.5t10 -7.5h66q42 0 86.5 1t84.5 14q0 -9 -4 -27.5t-10 -38t-15 -34t-19 -14.5
q-6 0 -12.5 4.5t-13 9.5l-13 10t-13.5 6q-23 4 -48 4.5t-48 0.5q-17 0 -30.5 -0.5t-19.5 -12.5q2 -25 3 -49t1 -44l-3 -62l5 -166q17 3 34.5 5t35.5 2q28 0 55.5 -6t55.5 -6q15 0 26 5t21 10.5t20 10.5t22 5q9 -11 9 -20q0 -5 -5.5 -21t-12.5 -35t-13 -36t-9 -23
q-27 2 -52.5 11.5t-53.5 10.5q-19 1 -37.5 1h-37.5q-42 0 -83 -2t-83 -3q-19 -12 -41 -19t-50 -7q-43 0 -74.5 18.5t-53 49.5t-34.5 70t-20 80.5t-9 81.5t-2 72q1 47 8.5 103.5t28.5 106t59 82.5t99 33q31 0 59 -11q2 1 5 1q47 5 93.5 3.5t93.5 -1.5q37 0 70.5 8t60.5 8z
M117 361q0 -18 -0.5 -48t1 -64.5t6.5 -69.5t16 -63t29 -46t45 -18q24 0 40.5 16t26.5 40.5t15.5 53.5t7.5 55q-1 14 -1.5 28.5t0.5 28.5q0 18 1 36l2 36q-1 39 -5.5 82.5t-15 81t-28.5 62t-47 24.5q-35 0 -54 -27.5t-27.5 -66t-10 -78t-1.5 -63.5z" />
    <glyph glyph-name="oe" unicode="&#x153;" horiz-adv-x="567" 
d="M431 512q34 0 58 -18.5t39 -46.5t22 -60.5t7 -59.5q0 -11 -10 -17q-48 -26 -103.5 -41t-106.5 -37q0 -7 -0.5 -13.5t-1.5 -14.5q6 -47 22.5 -77.5t38.5 -49t46.5 -28.5t46.5 -15.5t39.5 -10t24.5 -12.5q-15 -14 -34.5 -18t-39.5 -4q-57 0 -102 27t-75 70
q-20 -38 -52 -63.5t-80 -25.5q-46 0 -76.5 27t-48.5 66.5t-25 84.5t-7 81q1 42 8.5 88t27 84.5t53.5 63t88 24.5q39 0 66 -21.5t44 -53.5q22 32 54 51.5t77 19.5zM166 445q-20 0 -32 -19t-18 -44t-8.5 -51t-2.5 -39t-0.5 -34.5t1 -47t5.5 -51.5t11.5 -47t19.5 -34.5
t31 -13.5q25 0 40.5 16t23.5 38.5t10.5 47.5t2.5 43v18q-1 7 -1 14v15v16t1 16q-1 27 -4 55.5t-10.5 52t-20 38.5t-31.5 15q-5 0 -9 -1t-9 -3zM342 315v-9l110 33q3 4 7 6t8 5q0 14 -1 30.5t-6 30.5t-15.5 23.5t-29.5 9.5t-32.5 -14.5t-22.5 -35t-13.5 -42.5t-4.5 -37z" />
    <glyph glyph-name="scaron" unicode="&#x161;" horiz-adv-x="322" 
d="M185 512q14 0 27 -3t26 -5q10 -2 20 -1.5t17 -9.5q10 -16 15.5 -37t7.5 -40q-16 2 -29 7.5t-26.5 11t-28 10t-32.5 4.5q-27 0 -45 -15t-18 -43q0 -15 14 -28.5t35 -28.5t46 -32.5t46 -40.5t35 -52t13 -67q0 -31 -13 -58t-34 -47t-48.5 -31.5t-58.5 -11.5q-9 0 -27.5 0.5
t-38.5 3t-36.5 6.5t-19.5 11q-7 16 -14.5 31t-7.5 33l2 12t4 11q16 -7 32 -15t32.5 -15t33.5 -12t36 -5q16 0 29.5 7.5t23.5 19t15.5 26t5.5 28.5q0 26 -13.5 47t-34 39.5t-45 36.5t-45 39t-34.5 47t-13 59q1 31 14 52t33.5 33.5t46 17.5t52.5 5zM144 547q0 9 -7.5 19
t-18 20t-21.5 19.5t-17 17.5h34q11 0 21.5 -0.5t20.5 -2.5q9 -6 16 -12t13 -12q7 6 14.5 12t16.5 12q10 2 20.5 2.5t21.5 0.5h34q-6 -7 -17.5 -17t-22.5 -20.5t-18.5 -21t-5.5 -17.5h-4q-5 0 -10.5 -0.5t-10.5 -0.5h-35q-6 0 -11.5 0.5t-12.5 0.5z" />
    <glyph glyph-name="Ydieresis" unicode="&#x178;" horiz-adv-x="471" 
d="M20 646q8 4 28 6.5t43 3t45 0.5h33q21 0 41 -6q-3 -10 -8.5 -18.5t-11.5 -16.5t-12 -16.5t-9 -18.5q16 -62 39.5 -120t36.5 -121h11q6 21 18 56.5t24 72.5t21.5 71t9.5 52q-3 7 -8.5 13t-11 12.5t-9.5 13.5t-4 15q0 4 2 12q38 -3 76.5 -1.5t76.5 1.5q5 0 12.5 -2.5
t7.5 -9.5q0 -4 -6 -12t-14.5 -16.5t-16 -16.5t-10.5 -12q-5 -7 -16.5 -37.5t-26.5 -72.5t-31 -90.5t-29 -91.5t-22 -75t-9 -42q0 -23 0.5 -54t11.5 -52q3 -6 9.5 -12.5t12.5 -13.5t10.5 -14t4.5 -12t-0.5 -8.5t-0.5 -8.5h-157q-22 0 -37 11q12 19 27 36t26 37q2 14 2.5 29
t1.5 29v40.5t-5 39.5q-7 29 -17.5 60.5t-22.5 63.5t-25 63.5t-23 60.5q-8 23 -16 47.5t-18 47.5q-11 22 -27 39t-27 38zM305 796l21 1q17 0 30.5 -14.5t13.5 -32.5q-1 -26 -10.5 -42t-38.5 -16q-11 0 -20 6t-16 15.5t-10.5 21t-3.5 21.5q0 5 4 11.5t9 12t11 10t10 6.5z
M170 796l21 1q17 0 30.5 -14.5t13.5 -32.5q-1 -26 -10.5 -42t-38.5 -16q-11 0 -20 6t-16 15.5t-10.5 21t-3.5 21.5q0 5 4 11.5t9 12t11 10t10 6.5z" />
    <glyph glyph-name="yen" unicode="&#xa5;" horiz-adv-x="471" 
d="M83 196l38 -18q20 -2 39 -2h40h1q0 13 -1 26t-4 24l-5 19q-30 -1 -57 -3q-36 -3 -51 -11q-1 12 -1 24v25q0 12 0.5 25t0.5 25l38 -19q20 -1 39 -2h11q-15 42 -32 84t-31 81q-8 23 -16 47.5t-18 47.5q-11 22 -27 39t-27 38q8 4 28 6.5t43 3t45 0.5h33q21 0 41 -6
q-3 -10 -8.5 -18.5t-11.5 -16.5t-12 -16.5t-9 -18.5q16 -62 39.5 -120t36.5 -121h11q6 21 18 56.5t24 72.5t21.5 71t9.5 52q-3 7 -8.5 13t-11 12.5t-9.5 13.5t-4 15q0 4 2 12q38 -3 76.5 -1.5t76.5 1.5q5 0 12.5 -2.5t7.5 -9.5q0 -4 -6 -12t-14.5 -16.5t-16 -16.5t-10.5 -12
q-5 -7 -15.5 -35.5t-25 -68t-30 -85.5t-28.5 -88h32q17 0 30 5.5t27 10.5v-98q-15 5 -30 11t-33 6h-45q-8 -25 -12 -42.5t-4 -24.5v-3q33 1 67 1q17 0 30 6t27 11v-99q-15 5 -30 11.5t-33 6.5h-60q2 -11 4 -21.5t7 -18.5q3 -6 9.5 -12.5t12.5 -13.5t10.5 -14t4.5 -12
t-0.5 -8.5t-0.5 -8.5h-157q-22 0 -37 11q12 19 27 36t26 37q1 6 1.5 12t0.5 12q-34 -2 -65 -4q-36 -3 -51 -11q-1 12 -1 24v25q0 13 0.5 25.5t0.5 24.5z" />
    <glyph glyph-name="Igrave" unicode="&#xcc;" horiz-adv-x="225" 
d="M182 665q18 0 33 -4q-8 -17 -17.5 -33.5t-17.5 -33t-14 -34t-6 -37.5l1 -12q1 -53 0.5 -106.5t-1.5 -107.5t0 -107.5t7 -105.5q1 -7 7 -16t14 -18.5t15.5 -19.5t10.5 -19q-29 -8 -63 -7.5t-65 0.5q-17 0 -33.5 1t-32.5 6q0 14 8 23t17 20t17 28.5t8 48.5q2 110 -1.5 219
t-1.5 219q0 12 -5.5 23t-13.5 21.5l-16 21t-12 22.5q40 7 81.5 7.5t80.5 0.5zM41 845q5 1 11 1.5t11 0.5q12 0 23.5 -1t23.5 -1q0 -15 6 -31t15 -31.5t18 -30.5t14 -29h-28q-9 0 -17.5 1t-17.5 5q-10 11 -18 25.5t-15.5 30t-14 31t-11.5 29.5z" />
    <glyph glyph-name="Iacute" unicode="&#xcd;" horiz-adv-x="225" 
d="M182 665q18 0 33 -4q-8 -17 -17.5 -33.5t-17.5 -33t-14 -34t-6 -37.5l1 -12q1 -53 0.5 -106.5t-1.5 -107.5t0 -107.5t7 -105.5q1 -7 7 -16t14 -18.5t15.5 -19.5t10.5 -19q-29 -8 -63 -7.5t-65 0.5q-17 0 -33.5 1t-32.5 6q0 14 8 23t17 20t17 28.5t8 48.5q2 110 -1.5 219
t-1.5 219q0 12 -5.5 23t-13.5 21.5l-16 21t-12 22.5q40 7 81.5 7.5t80.5 0.5zM196 857q-6 -15 -12.5 -32t-15 -34t-17.5 -33t-18 -28q-10 -4 -19.5 -5t-18.5 -1h-31q5 12 15.5 30t20 36.5t16.5 36t6 30.5q12 0 25 1t25 1q6 0 12 -0.5t12 -1.5z" />
    <glyph glyph-name="Icircumflex" unicode="&#xce;" horiz-adv-x="225" 
d="M182 665q18 0 33 -4q-8 -17 -17.5 -33.5t-17.5 -33t-14 -34t-6 -37.5l1 -12q1 -53 0.5 -106.5t-1.5 -107.5t0 -107.5t7 -105.5q1 -7 7 -16t14 -18.5t15.5 -19.5t10.5 -19q-29 -8 -63 -7.5t-65 0.5q-17 0 -33.5 1t-32.5 6q0 14 8 23t17 20t17 28.5t8 48.5q2 110 -1.5 219
t-1.5 219q0 12 -5.5 23t-13.5 21.5l-16 21t-12 22.5q40 7 81.5 7.5t80.5 0.5zM93 802h34q7 0 13 -0.5t13 -0.5q0 -8 7.5 -16.5t18.5 -17.5t22.5 -17.5t17.5 -15.5h-35q-11 0 -21.5 0.5t-21.5 2.5q-9 5 -16.5 10t-14.5 11q-7 -6 -14 -11t-16 -10q-11 -2 -21.5 -2.5
t-21.5 -0.5h-35q6 7 17.5 15.5t22.5 18t19 18t6 15.5h4q5 0 10.5 0.5t11.5 0.5z" />
    <glyph glyph-name="Idieresis" unicode="&#xcf;" horiz-adv-x="225" 
d="M182 665q18 0 33 -4q-8 -17 -17.5 -33.5t-17.5 -33t-14 -34t-6 -37.5l1 -12q1 -53 0.5 -106.5t-1.5 -107.5t0 -107.5t7 -105.5q1 -7 7 -16t14 -18.5t15.5 -19.5t10.5 -19q-29 -8 -63 -7.5t-65 0.5q-17 0 -33.5 1t-32.5 6q0 14 8 23t17 20t17 28.5t8 48.5q2 110 -1.5 219
t-1.5 219q0 12 -5.5 23t-13.5 21.5l-16 21t-12 22.5q40 7 81.5 7.5t80.5 0.5zM165 875l21 1q17 0 30.5 -14.5t13.5 -32.5q-1 -26 -10.5 -42t-38.5 -16q-11 0 -20 6t-16 15.5t-10.5 21t-3.5 21.5q0 5 4 11.5t9 12t11 10t10 6.5zM30 875l21 1q17 0 30.5 -14.5t13.5 -32.5
q-1 -26 -10.5 -42t-38.5 -16q-11 0 -20 6t-16 15.5t-10.5 21t-3.5 21.5q0 5 4 11.5t9 12t11 10t10 6.5z" />
    <glyph glyph-name="quotesingle" unicode="'" horiz-adv-x="138" 
d="M119 750q-2 -66 -11.5 -133.5t-17.5 -133.5l-27 -19l-27 173l-6 42t-8 42l91 36z" />
    <glyph glyph-name="Ntilde" unicode="&#xd1;" horiz-adv-x="485" 
d="M20 650q12 11 24.5 9t26.5 -2q33 0 66.5 2t66.5 2q5 0 9.5 -4t4.5 -9q0 -6 -6 -14t-14 -17t-15.5 -18.5t-10.5 -18.5q3 -30 25 -59.5t50 -58t56 -56t44 -52.5q3 18 3.5 36t0.5 37q1 38 1 78.5t-4 78.5q-1 10 -6.5 18.5t-12 17t-12 17.5t-5.5 20q11 1 23 1.5t23 0.5
q30 0 59.5 -2.5t58.5 -6.5q-10 -20 -18.5 -29t-14.5 -17.5t-9.5 -21.5t-4.5 -39q-2 -114 -1.5 -227.5t3.5 -227.5q0 -14 7 -23.5t15 -17.5t14.5 -15.5t6.5 -16.5v-15q-26 0 -52 -1t-52 -1h-17.5t-23.5 1.5t-20.5 6t-8.5 13.5l1 7q9 11 17.5 17.5t15 13t10.5 15.5t4 26
q1 60 -17.5 101t-46 75t-60.5 66.5t-62 75.5l-11 -4l-2 -41q-1 -69 -0.5 -140t4.5 -140q0 -12 7.5 -22.5t16 -20t15.5 -18t7 -17.5q0 -5 -10.5 -7.5t-24 -4t-26 -2t-16.5 -0.5h-73q-10 0 -18 4.5t-15 11.5q19 21 30 32.5t17 22.5t8 26.5t2 45.5q2 106 0.5 212t0.5 212
q0 11 -7.5 20.5t-17 19.5t-18 20.5t-11.5 23.5zM368 763q-9 -22 -25.5 -37t-43.5 -15q-17 0 -31 5.5t-26.5 11.5t-25 11.5t-25.5 5.5q-18 0 -29.5 -11.5t-19.5 -25.5v42q12 20 29.5 35t43.5 15q17 0 30.5 -5t26.5 -11.5t25.5 -12t27.5 -5.5q16 0 26 11.5t16 23.5z" />
    <glyph glyph-name="Ograve" unicode="&#xd2;" 
d="M210 671q64 0 102.5 -37t59.5 -91t27.5 -115t5.5 -109q-1 -32 -3.5 -70t-10 -76.5t-20.5 -74.5t-34.5 -63.5t-53 -44t-75.5 -16.5q-43 0 -74.5 18.5t-53 49.5t-34.5 70t-20 80.5t-9 81.5t-2 72q1 47 8.5 103.5t28.5 106t59 82.5t99 33zM117 361q0 -18 -0.5 -48t1 -64.5
t6.5 -69.5t16 -63t29 -46t45 -18q31 0 49 25t27.5 59.5t12.5 70.5t3 58q0 18 0.5 49.5t-2 68t-7.5 74.5t-16 69t-28 50.5t-43 19.5q-35 0 -54 -27.5t-27.5 -66t-10 -78t-1.5 -63.5zM111 848q5 1 11 1.5t11 0.5q12 0 23.5 -1t23.5 -1q0 -15 6 -31t15 -31.5t18 -30.5t14 -29
h-28q-9 0 -17.5 1t-17.5 5q-10 11 -18 25.5t-15.5 30t-14 31t-11.5 29.5z" />
    <glyph glyph-name="Oacute" unicode="&#xd3;" 
d="M210 671q64 0 102.5 -37t59.5 -91t27.5 -115t5.5 -109q-1 -32 -3.5 -70t-10 -76.5t-20.5 -74.5t-34.5 -63.5t-53 -44t-75.5 -16.5q-43 0 -74.5 18.5t-53 49.5t-34.5 70t-20 80.5t-9 81.5t-2 72q1 47 8.5 103.5t28.5 106t59 82.5t99 33zM117 361q0 -18 -0.5 -48t1 -64.5
t6.5 -69.5t16 -63t29 -46t45 -18q31 0 49 25t27.5 59.5t12.5 70.5t3 58q0 18 0.5 49.5t-2 68t-7.5 74.5t-16 69t-28 50.5t-43 19.5q-35 0 -54 -27.5t-27.5 -66t-10 -78t-1.5 -63.5zM301 857q-6 -15 -12.5 -32t-15 -34t-17.5 -33t-18 -28q-10 -4 -19.5 -5t-18.5 -1h-31
q5 12 15.5 30t20 36.5t16.5 36t6 30.5q12 0 25 1t25 1q6 0 12 -0.5t12 -1.5z" />
    <glyph glyph-name="Ocircumflex" unicode="&#xd4;" 
d="M210 671q64 0 102.5 -37t59.5 -91t27.5 -115t5.5 -109q-1 -32 -3.5 -70t-10 -76.5t-20.5 -74.5t-34.5 -63.5t-53 -44t-75.5 -16.5q-43 0 -74.5 18.5t-53 49.5t-34.5 70t-20 80.5t-9 81.5t-2 72q1 47 8.5 103.5t28.5 106t59 82.5t99 33zM117 361q0 -18 -0.5 -48t1 -64.5
t6.5 -69.5t16 -63t29 -46t45 -18q31 0 49 25t27.5 59.5t12.5 70.5t3 58q0 18 0.5 49.5t-2 68t-7.5 74.5t-16 69t-28 50.5t-43 19.5q-35 0 -54 -27.5t-27.5 -66t-10 -78t-1.5 -63.5zM180 788h34q7 0 13 -0.5t13 -0.5q0 -8 7.5 -16.5t18.5 -17.5t22.5 -17.5t17.5 -15.5h-35
q-11 0 -21.5 0.5t-21.5 2.5q-9 5 -16.5 10t-14.5 11q-7 -6 -14 -11t-16 -10q-11 -2 -21.5 -2.5t-21.5 -0.5h-35q6 7 17.5 15.5t22.5 18t19 18t6 15.5h4q5 0 10.5 0.5t11.5 0.5z" />
    <glyph glyph-name="Otilde" unicode="&#xd5;" 
d="M210 671q64 0 102.5 -37t59.5 -91t27.5 -115t5.5 -109q-1 -32 -3.5 -70t-10 -76.5t-20.5 -74.5t-34.5 -63.5t-53 -44t-75.5 -16.5q-43 0 -74.5 18.5t-53 49.5t-34.5 70t-20 80.5t-9 81.5t-2 72q1 47 8.5 103.5t28.5 106t59 82.5t99 33zM117 361q0 -18 -0.5 -48t1 -64.5
t6.5 -69.5t16 -63t29 -46t45 -18q31 0 49 25t27.5 59.5t12.5 70.5t3 58q0 18 0.5 49.5t-2 68t-7.5 74.5t-16 69t-28 50.5t-43 19.5q-35 0 -54 -27.5t-27.5 -66t-10 -78t-1.5 -63.5zM323 768q-9 -22 -25.5 -37t-43.5 -15q-17 0 -31 5.5t-26.5 11.5t-25 11.5t-25.5 5.5
q-18 0 -29.5 -11.5t-19.5 -25.5v42q12 20 29.5 35t43.5 15q17 0 30.5 -5t26.5 -11.5t25.5 -12t27.5 -5.5q16 0 26 11.5t16 23.5z" />
    <glyph glyph-name="Oslash" unicode="&#xd8;" 
d="M-26 -36l36 29q8 12 25 47q10 21 21 45q-14 30 -22 64.5t-12.5 69t-5.5 67.5t-1 60q1 47 8.5 103.5t28.5 106t59 82.5t99 33q28 0 51 -7.5t41 -21.5q11 25 11 27q0 7 -2 14l-4 14h127q-12 -13 -25 -23.5t-20 -25.5l-33 -72q15 -29 25 -62t15.5 -67t7 -67t1.5 -61
q-1 -32 -3.5 -70t-10 -76.5t-20.5 -74.5t-34.5 -63.5t-53 -44t-75.5 -16.5q-33 0 -59 11t-46 30q-7 -15 -7 -30q0 -9 4 -21h-126zM214 52q31 0 49 25t27.5 59.5t12.5 70.5t3 58v77t-8 105l-154 -341q11 -24 27.5 -39t42.5 -15zM117 361q-1 -22 -1.5 -59t3.5 -79q2 5 4 9
q27 59 53.5 119t50.5 116q22 50 39 90q-10 18 -24 28.5t-32 10.5q-35 0 -54 -27.5t-27.5 -66t-10 -78t-1.5 -63.5z" />
    <glyph glyph-name="Ugrave" unicode="&#xd9;" horiz-adv-x="448" 
d="M177 662q8 0 14 -3t13 -5q-4 -9 -11 -17.5t-14.5 -17t-14 -17.5t-8.5 -18q-8 -50 -11 -103.5t-4.5 -108.5t-2.5 -109.5t-4 -105.5q-2 -17 -9 -28.5t-14 -25.5q4 -15 20.5 -25.5t37 -16.5t41.5 -8.5t35 -2.5q29 0 55 14.5t52 27.5q-3 11 -9.5 21.5t-8.5 21.5
q-10 54 -12.5 108.5t-3 110t-1.5 110.5t-8 109q-2 11 -8 20.5t-13 19t-12.5 20t-5.5 22.5v6h145q6 0 12 -1t11 -6q-3 -11 -11 -21t-16.5 -20t-15 -20t-6.5 -21q-2 -64 5.5 -129t11.5 -129q2 -42 3.5 -82t5.5 -82q1 -9 5 -16.5t8.5 -14.5t8 -14t3.5 -16l-1 -8
q-17 -27 -41.5 -46.5t-53.5 -31.5t-60.5 -18t-61.5 -6q-19 0 -54.5 10t-70 26.5t-59.5 37.5t-25 44q0 10 4 15t10 12q9 10 14 23.5t7 28.5t2 30.5t1 27.5q4 85 8.5 171t6.5 171q0 12 -4 21.5t-10.5 18t-14 17t-12.5 17.5l11 11q34 -3 68 -3q18 0 36.5 2t36.5 2zM163 836
q5 1 11 1.5t11 0.5q12 0 23.5 -1t23.5 -1q0 -15 6 -31t15 -31.5t18 -30.5t14 -29h-28q-9 0 -17.5 1t-17.5 5q-10 11 -18 25.5t-15.5 30t-14 31t-11.5 29.5z" />
    <glyph glyph-name="Uacute" unicode="&#xda;" horiz-adv-x="448" 
d="M177 662q8 0 14 -3t13 -5q-4 -9 -11 -17.5t-14.5 -17t-14 -17.5t-8.5 -18q-8 -50 -11 -103.5t-4.5 -108.5t-2.5 -109.5t-4 -105.5q-2 -17 -9 -28.5t-14 -25.5q4 -15 20.5 -25.5t37 -16.5t41.5 -8.5t35 -2.5q29 0 55 14.5t52 27.5q-3 11 -9.5 21.5t-8.5 21.5
q-10 54 -12.5 108.5t-3 110t-1.5 110.5t-8 109q-2 11 -8 20.5t-13 19t-12.5 20t-5.5 22.5v6h145q6 0 12 -1t11 -6q-3 -11 -11 -21t-16.5 -20t-15 -20t-6.5 -21q-2 -64 5.5 -129t11.5 -129q2 -42 3.5 -82t5.5 -82q1 -9 5 -16.5t8.5 -14.5t8 -14t3.5 -16l-1 -8
q-17 -27 -41.5 -46.5t-53.5 -31.5t-60.5 -18t-61.5 -6q-19 0 -54.5 10t-70 26.5t-59.5 37.5t-25 44q0 10 4 15t10 12q9 10 14 23.5t7 28.5t2 30.5t1 27.5q4 85 8.5 171t6.5 171q0 12 -4 21.5t-10.5 18t-14 17t-12.5 17.5l11 11q34 -3 68 -3q18 0 36.5 2t36.5 2zM320 862
q-6 -15 -12.5 -32t-15 -34t-17.5 -33t-18 -28q-10 -4 -19.5 -5t-18.5 -1h-31q5 12 15.5 30t20 36.5t16.5 36t6 30.5q12 0 25 1t25 1q6 0 12 -0.5t12 -1.5z" />
    <glyph glyph-name="Ucircumflex" unicode="&#xdb;" horiz-adv-x="448" 
d="M177 662q8 0 14 -3t13 -5q-4 -9 -11 -17.5t-14.5 -17t-14 -17.5t-8.5 -18q-8 -50 -11 -103.5t-4.5 -108.5t-2.5 -109.5t-4 -105.5q-2 -17 -9 -28.5t-14 -25.5q4 -15 20.5 -25.5t37 -16.5t41.5 -8.5t35 -2.5q29 0 55 14.5t52 27.5q-3 11 -9.5 21.5t-8.5 21.5
q-10 54 -12.5 108.5t-3 110t-1.5 110.5t-8 109q-2 11 -8 20.5t-13 19t-12.5 20t-5.5 22.5v6h145q6 0 12 -1t11 -6q-3 -11 -11 -21t-16.5 -20t-15 -20t-6.5 -21q-2 -64 5.5 -129t11.5 -129q2 -42 3.5 -82t5.5 -82q1 -9 5 -16.5t8.5 -14.5t8 -14t3.5 -16l-1 -8
q-17 -27 -41.5 -46.5t-53.5 -31.5t-60.5 -18t-61.5 -6q-19 0 -54.5 10t-70 26.5t-59.5 37.5t-25 44q0 10 4 15t10 12q9 10 14 23.5t7 28.5t2 30.5t1 27.5q4 85 8.5 171t6.5 171q0 12 -4 21.5t-10.5 18t-14 17t-12.5 17.5l11 11q34 -3 68 -3q18 0 36.5 2t36.5 2zM219 799h34
q7 0 13 -0.5t13 -0.5q0 -8 7.5 -16.5t18.5 -17.5t22.5 -17.5t17.5 -15.5h-35q-11 0 -21.5 0.5t-21.5 2.5q-9 5 -16.5 10t-14.5 11q-7 -6 -14 -11t-16 -10q-11 -2 -21.5 -2.5t-21.5 -0.5h-35q6 7 17.5 15.5t22.5 18t19 18t6 15.5h4q5 0 10.5 0.5t11.5 0.5z" />
    <glyph glyph-name="Yacute" unicode="&#xdd;" horiz-adv-x="471" 
d="M20 646q8 4 28 6.5t43 3t45 0.5h33q21 0 41 -6q-3 -10 -8.5 -18.5t-11.5 -16.5t-12 -16.5t-9 -18.5q16 -62 39.5 -120t36.5 -121h11q6 21 18 56.5t24 72.5t21.5 71t9.5 52q-3 7 -8.5 13t-11 12.5t-9.5 13.5t-4 15q0 4 2 12q38 -3 76.5 -1.5t76.5 1.5q5 0 12.5 -2.5
t7.5 -9.5q0 -4 -6 -12t-14.5 -16.5t-16 -16.5t-10.5 -12q-5 -7 -16.5 -37.5t-26.5 -72.5t-31 -90.5t-29 -91.5t-22 -75t-9 -42q0 -23 0.5 -54t11.5 -52q3 -6 9.5 -12.5t12.5 -13.5t10.5 -14t4.5 -12t-0.5 -8.5t-0.5 -8.5h-157q-22 0 -37 11q12 19 27 36t26 37q2 14 2.5 29
t1.5 29v40.5t-5 39.5q-7 29 -17.5 60.5t-22.5 63.5t-25 63.5t-23 60.5q-8 23 -16 47.5t-18 47.5q-11 22 -27 39t-27 38zM328 851q-6 -15 -12.5 -32t-15 -34t-17.5 -33t-18 -28q-10 -4 -19.5 -5t-18.5 -1h-31q5 12 15.5 30t20 36.5t16.5 36t6 30.5q12 0 25 1t25 1
q6 0 12 -0.5t12 -1.5z" />
    <glyph glyph-name="agrave" unicode="&#xe0;" horiz-adv-x="374" 
d="M152 511q14 0 33.5 -4.5t38.5 -12.5t35.5 -18.5t24.5 -22.5q4 -6 5 -14.5t1 -17.5t-1 -18t-1 -16q0 -9 1.5 -33t5 -55t7 -66t8 -66t8 -54.5t6.5 -32.5q6 -19 18.5 -33.5t20.5 -31.5q-29 -8 -59 -11.5t-60 -3.5q-4 14 -6 29t-5 29q-12 -9 -23.5 -19t-24 -18.5t-26.5 -14.5
t-29 -6q-23 0 -45 11t-38.5 29t-26 40t-9.5 45q1 35 15 61t34.5 45t45 32t46 22.5t37 16t19.5 12.5q0 14 -0.5 36.5t-5.5 44t-16 37t-32 15.5q-10 0 -18 -7.5t-16 -16t-16.5 -16t-20.5 -7.5q-8 0 -16.5 4t-15 10.5t-10.5 14.5t-4 17q0 16 13.5 28t31.5 20.5t37.5 12.5
t32.5 4zM103 139q0 -20 11.5 -37t34.5 -17q10 0 23 7.5t24.5 18t19.5 23t8 23.5q0 22 -3 43t-11 41q-17 -6 -36 -15t-34.5 -21t-26 -28.5t-10.5 -37.5zM96 674q5 1 11 1.5t11 0.5q12 0 23.5 -1t23.5 -1q0 -15 6 -31t15 -31.5t18 -30.5t14 -29h-28q-9 0 -17.5 1t-17.5 5
q-10 11 -18 25.5t-15.5 30t-14 31t-11.5 29.5z" />
    <glyph glyph-name="aacute" unicode="&#xe1;" horiz-adv-x="374" 
d="M152 511q14 0 33.5 -4.5t38.5 -12.5t35.5 -18.5t24.5 -22.5q4 -6 5 -14.5t1 -17.5t-1 -18t-1 -16q0 -9 1.5 -33t5 -55t7 -66t8 -66t8 -54.5t6.5 -32.5q6 -19 18.5 -33.5t20.5 -31.5q-29 -8 -59 -11.5t-60 -3.5q-4 14 -6 29t-5 29q-12 -9 -23.5 -19t-24 -18.5t-26.5 -14.5
t-29 -6q-23 0 -45 11t-38.5 29t-26 40t-9.5 45q1 35 15 61t34.5 45t45 32t46 22.5t37 16t19.5 12.5q0 14 -0.5 36.5t-5.5 44t-16 37t-32 15.5q-10 0 -18 -7.5t-16 -16t-16.5 -16t-20.5 -7.5q-8 0 -16.5 4t-15 10.5t-10.5 14.5t-4 17q0 16 13.5 28t31.5 20.5t37.5 12.5
t32.5 4zM103 139q0 -20 11.5 -37t34.5 -17q10 0 23 7.5t24.5 18t19.5 23t8 23.5q0 22 -3 43t-11 41q-17 -6 -36 -15t-34.5 -21t-26 -28.5t-10.5 -37.5zM232.792 667.877q-5.09082 -12.8887 -10.6064 -27.4961q-5.51465 -14.6074 -12.7275 -29.2148
q-7.21191 -14.6074 -14.8486 -28.3555t-15.2734 -24.0586q-8.48438 -3.4375 -16.5459 -4.29688q-8.06055 -0.859375 -15.6973 -0.859375h-26.3037q4.24219 10.3115 13.1514 25.7783q8.91016 15.4658 16.9707 31.3623t14 30.9336q5.94043 15.0361 5.0918 26.207
q10.1816 0 21.2119 0.859375q11.0312 0.859375 21.2129 0.859375q5.0918 0 10.1826 -0.429688t10.1816 -1.28906z" />
    <glyph glyph-name="acircumflex" unicode="&#xe2;" horiz-adv-x="374" 
d="M152 511q14 0 33.5 -4.5t38.5 -12.5t35.5 -18.5t24.5 -22.5q4 -6 5 -14.5t1 -17.5t-1 -18t-1 -16q0 -9 1.5 -33t5 -55t7 -66t8 -66t8 -54.5t6.5 -32.5q6 -19 18.5 -33.5t20.5 -31.5q-29 -8 -59 -11.5t-60 -3.5q-4 14 -6 29t-5 29q-12 -9 -23.5 -19t-24 -18.5t-26.5 -14.5
t-29 -6q-23 0 -45 11t-38.5 29t-26 40t-9.5 45q1 35 15 61t34.5 45t45 32t46 22.5t37 16t19.5 12.5q0 14 -0.5 36.5t-5.5 44t-16 37t-32 15.5q-10 0 -18 -7.5t-16 -16t-16.5 -16t-20.5 -7.5q-8 0 -16.5 4t-15 10.5t-10.5 14.5t-4 17q0 16 13.5 28t31.5 20.5t37.5 12.5
t32.5 4zM103 139q0 -20 11.5 -37t34.5 -17q10 0 23 7.5t24.5 18t19.5 23t8 23.5q0 22 -3 43t-11 41q-17 -6 -36 -15t-34.5 -21t-26 -28.5t-10.5 -37.5zM136 618h34q7 0 13 -0.5t13 -0.5q0 -8 7.5 -16.5t18.5 -17.5t22.5 -17.5t17.5 -15.5h-35q-11 0 -21.5 0.5t-21.5 2.5
q-9 5 -16.5 10t-14.5 11q-7 -6 -14 -11t-16 -10q-11 -2 -21.5 -2.5t-21.5 -0.5h-35q6 7 17.5 15.5t22.5 18t19 18t6 15.5h4q5 0 10.5 0.5t11.5 0.5z" />
    <glyph glyph-name="atilde" unicode="&#xe3;" horiz-adv-x="374" 
d="M152 511q14 0 33.5 -4.5t38.5 -12.5t35.5 -18.5t24.5 -22.5q4 -6 5 -14.5t1 -17.5t-1 -18t-1 -16q0 -9 1.5 -33t5 -55t7 -66t8 -66t8 -54.5t6.5 -32.5q6 -19 18.5 -33.5t20.5 -31.5q-29 -8 -59 -11.5t-60 -3.5q-4 14 -6 29t-5 29q-12 -9 -23.5 -19t-24 -18.5t-26.5 -14.5
t-29 -6q-23 0 -45 11t-38.5 29t-26 40t-9.5 45q1 35 15 61t34.5 45t45 32t46 22.5t37 16t19.5 12.5q0 14 -0.5 36.5t-5.5 44t-16 37t-32 15.5q-10 0 -18 -7.5t-16 -16t-16.5 -16t-20.5 -7.5q-8 0 -16.5 4t-15 10.5t-10.5 14.5t-4 17q0 16 13.5 28t31.5 20.5t37.5 12.5
t32.5 4zM103 139q0 -20 11.5 -37t34.5 -17q10 0 23 7.5t24.5 18t19.5 23t8 23.5q0 22 -3 43t-11 41q-17 -6 -36 -15t-34.5 -21t-26 -28.5t-10.5 -37.5zM272 596q-9 -22 -25.5 -37t-43.5 -15q-17 0 -31 5.5t-26.5 11.5t-25 11.5t-25.5 5.5q-18 0 -29.5 -11.5t-19.5 -25.5v42
q12 20 29.5 35t43.5 15q17 0 30.5 -5t26.5 -11.5t25.5 -12t27.5 -5.5q16 0 26 11.5t16 23.5z" />
    <glyph glyph-name="aring" unicode="&#xe5;" horiz-adv-x="374" 
d="M152 511q14 0 33.5 -4.5t38.5 -12.5t35.5 -18.5t24.5 -22.5q4 -6 5 -14.5t1 -17.5t-1 -18t-1 -16q0 -9 1.5 -33t5 -55t7 -66t8 -66t8 -54.5t6.5 -32.5q6 -19 18.5 -33.5t20.5 -31.5q-29 -8 -59 -11.5t-60 -3.5q-4 14 -6 29t-5 29q-12 -9 -23.5 -19t-24 -18.5t-26.5 -14.5
t-29 -6q-23 0 -45 11t-38.5 29t-26 40t-9.5 45q1 35 15 61t34.5 45t45 32t46 22.5t37 16t19.5 12.5q0 14 -0.5 36.5t-5.5 44t-16 37t-32 15.5q-10 0 -18 -7.5t-16 -16t-16.5 -16t-20.5 -7.5q-8 0 -16.5 4t-15 10.5t-10.5 14.5t-4 17q0 16 13.5 28t31.5 20.5t37.5 12.5
t32.5 4zM103 139q0 -20 11.5 -37t34.5 -17q10 0 23 7.5t24.5 18t19.5 23t8 23.5q0 22 -3 43t-11 41q-17 -6 -36 -15t-34.5 -21t-26 -28.5t-10.5 -37.5zM276 643q0 -49 -28.5 -75t-75.5 -26q-46 0 -75 26t-29 75t28.5 75t75.5 26q46 0 75 -26t29 -75zM215 644q0 48 -43 48
t-43 -48t42 -48q44 0 44 48z" />
    <glyph glyph-name="ae" unicode="&#xe6;" horiz-adv-x="532" 
d="M152 511q13 0 31.5 -4t36.5 -11t34.5 -17t25.5 -21q21 23 49.5 37t66.5 14q34 0 58 -18.5t39 -46.5t22 -60.5t7 -59.5q0 -11 -10 -17q-24 -14 -50.5 -23.5t-54 -18t-55 -17.5t-52.5 -20q2 -17 3.5 -32.5t3.5 -29.5q10 -37 27.5 -61t38.5 -39.5t44 -23.5t43 -13t35.5 -9.5
t22.5 -11.5q-15 -14 -34.5 -18t-39.5 -4q-56 0 -99.5 25.5t-73.5 66.5q-26 -8 -38 -20q-12 -9 -23.5 -19t-24 -18.5t-26.5 -14.5t-29 -6q-23 0 -45 11t-38.5 29t-26 40t-9.5 45q1 35 15 61t34.5 45t45 32t46 22.5t37 16t19.5 12.5q0 14 -0.5 36.5t-5.5 44t-16 37t-32 15.5
q-10 0 -18 -7.5t-16 -16t-16.5 -16t-20.5 -7.5q-8 0 -16.5 4t-15 10.5t-10.5 14.5t-4 17q0 16 13.5 28t31.5 20.5t37.5 12.5t32.5 4zM103 139q0 -20 11.5 -37t34.5 -17q10 0 23 7.5t24.5 18t19.5 23t8 23.5v11.5t-1 11.5q-3 12 -5 23.5t-3 23.5l-5 14q-17 -6 -36 -15
t-34.5 -21t-26 -28.5t-10.5 -37.5zM307 312v-9l110 33q3 4 7 6t8 5q0 14 -1 30.5t-6 30.5t-15.5 23.5t-29.5 9.5t-32.5 -14.5t-22.5 -35t-13.5 -42.5t-4.5 -37z" />
    <glyph glyph-name="ccedilla" unicode="&#xe7;" horiz-adv-x="349" 
d="M209 515q19 0 42.5 -6.5t44.5 -19t35 -30.5t14 -40q0 -17 -13 -22.5t-27 -5.5q-27 0 -41 10.5t-22.5 22.5t-16.5 22.5t-23 10.5q-27 0 -44 -20.5t-27.5 -49t-15 -59t-4.5 -49.5q-1 -37 6.5 -74.5t23.5 -70.5t41.5 -59.5t61.5 -41.5q18 -8 38.5 -13.5t37.5 -19.5
q-11 -8 -23.5 -11t-24.5 -3q-53 0 -100 27.5t-82.5 70.5t-56 95t-19.5 102q1 39 15.5 80t40 75.5t61 56.5t78.5 22zM262 -6q-3 -2 -8.5 -6t-10.5 -8.5t-9 -8.5t-4 -7q0 -6 8.5 -12.5t19 -15t19.5 -18.5t9 -22q0 -16 -13 -28.5t-32 -21.5t-42 -14.5t-42 -9.5l-13 18
q9 3 19.5 7t20.5 10.5t16.5 13t6.5 14.5t-7.5 13.5t-16 11t-16 11.5t-7.5 15q0 7 6 14.5t15 15.5t18 15.5l15 12.5h48z" />
    <glyph glyph-name="egrave" unicode="&#xe8;" horiz-adv-x="349" 
d="M215 512q34 0 58 -18.5t39 -46.5t22 -60.5t7 -59.5q0 -11 -10 -17q-24 -14 -51 -23.5t-55 -18.5t-55.5 -17.5t-52.5 -20.5q3 -54 18.5 -89t37.5 -56.5t47.5 -32.5t49 -17t41.5 -11t26 -13q-15 -14 -34.5 -18t-39.5 -4q-53 0 -95.5 23.5t-72.5 62t-46 86t-16 95.5
q0 42 9.5 87t31.5 82.5t56.5 62t84.5 24.5zM126 315v-9l110 33q3 4 7 6t8 5q0 14 -1 30.5t-6 30.5t-15.5 23.5t-29.5 9.5t-32.5 -14.5t-22.5 -35t-13.5 -42.5t-4.5 -37zM121 682q5 1 11 1.5t11 0.5q12 0 23.5 -1t23.5 -1q0 -15 6 -31t15 -31.5t18 -30.5t14 -29h-28
q-9 0 -17.5 1t-17.5 5q-10 11 -18 25.5t-15.5 30t-14 31t-11.5 29.5z" />
    <glyph glyph-name="eacute" unicode="&#xe9;" horiz-adv-x="349" 
d="M215 512q34 0 58 -18.5t39 -46.5t22 -60.5t7 -59.5q0 -11 -10 -17q-24 -14 -51 -23.5t-55 -18.5t-55.5 -17.5t-52.5 -20.5q3 -54 18.5 -89t37.5 -56.5t47.5 -32.5t49 -17t41.5 -11t26 -13q-15 -14 -34.5 -18t-39.5 -4q-53 0 -95.5 23.5t-72.5 62t-46 86t-16 95.5
q0 42 9.5 87t31.5 82.5t56.5 62t84.5 24.5zM126 315v-9l110 33q3 4 7 6t8 5q0 14 -1 30.5t-6 30.5t-15.5 23.5t-29.5 9.5t-32.5 -14.5t-22.5 -35t-13.5 -42.5t-4.5 -37zM280 686q-6 -15 -12.5 -32t-15 -34t-17.5 -33t-18 -28q-10 -4 -19.5 -5t-18.5 -1h-31q5 12 15.5 30
t20 36.5t16.5 36t6 30.5q12 0 25 1t25 1q6 0 12 -0.5t12 -1.5z" />
    <glyph glyph-name="ecircumflex" unicode="&#xea;" horiz-adv-x="349" 
d="M215 512q34 0 58 -18.5t39 -46.5t22 -60.5t7 -59.5q0 -11 -10 -17q-24 -14 -51 -23.5t-55 -18.5t-55.5 -17.5t-52.5 -20.5q3 -54 18.5 -89t37.5 -56.5t47.5 -32.5t49 -17t41.5 -11t26 -13q-15 -14 -34.5 -18t-39.5 -4q-53 0 -95.5 23.5t-72.5 62t-46 86t-16 95.5
q0 42 9.5 87t31.5 82.5t56.5 62t84.5 24.5zM126 315v-9l110 33q3 4 7 6t8 5q0 14 -1 30.5t-6 30.5t-15.5 23.5t-29.5 9.5t-32.5 -14.5t-22.5 -35t-13.5 -42.5t-4.5 -37zM171 628h34q7 0 13 -0.5t13 -0.5q0 -8 7.5 -16.5t18.5 -17.5t22.5 -17.5t17.5 -15.5h-35
q-11 0 -21.5 0.5t-21.5 2.5q-9 5 -16.5 10t-14.5 11q-7 -6 -14 -11t-16 -10q-11 -2 -21.5 -2.5t-21.5 -0.5h-35q6 7 17.5 15.5t22.5 18t19 18t6 15.5h4q5 0 10.5 0.5t11.5 0.5z" />
    <glyph glyph-name="edieresis" unicode="&#xeb;" horiz-adv-x="349" 
d="M215 512q34 0 58 -18.5t39 -46.5t22 -60.5t7 -59.5q0 -11 -10 -17q-24 -14 -51 -23.5t-55 -18.5t-55.5 -17.5t-52.5 -20.5q3 -54 18.5 -89t37.5 -56.5t47.5 -32.5t49 -17t41.5 -11t26 -13q-15 -14 -34.5 -18t-39.5 -4q-53 0 -95.5 23.5t-72.5 62t-46 86t-16 95.5
q0 42 9.5 87t31.5 82.5t56.5 62t84.5 24.5zM126 315v-9l110 33q3 4 7 6t8 5q0 14 -1 30.5t-6 30.5t-15.5 23.5t-29.5 9.5t-32.5 -14.5t-22.5 -35t-13.5 -42.5t-4.5 -37zM245 669l21 1q17 0 30.5 -14.5t13.5 -32.5q-1 -26 -10.5 -42t-38.5 -16q-11 0 -20 6t-16 15.5t-10.5 21
t-3.5 21.5q0 5 4 11.5t9 12t11 10t10 6.5zM110 669l21 1q17 0 30.5 -14.5t13.5 -32.5q-1 -26 -10.5 -42t-38.5 -16q-11 0 -20 6t-16 15.5t-10.5 21t-3.5 21.5q0 5 4 11.5t9 12t11 10t10 6.5z" />
    <glyph glyph-name="igrave" unicode="&#xec;" horiz-adv-x="217" 
d="M123 513q4 3 10 3q9 0 16 -7q2 -10 1 -20t-1 -20q0 -42 0.5 -84t2.5 -84q3 -51 1 -105.5t6 -105.5q1 -10 8.5 -18.5t15.5 -17.5t15 -19t9 -22q-19 -8 -40 -10.5t-43 -2.5t-43.5 1t-41.5 1q-9 0 -13.5 9t-4.5 17q7 9 15.5 16.5t16 15t12.5 16.5t5 22q0 71 -1 141.5
t-1 142.5q0 12 -1 27.5t-6 26.5q-8 6 -16.5 11.5t-16.5 11.5t-13 14t-5 19v6q28 6 56 9t57 6zM21 717q5 1 11 1.5t11 0.5q12 0 23.5 -1t23.5 -1q0 -15 6 -31t15 -31.5t18 -30.5t14 -29h-28q-9 0 -17.5 1t-17.5 5q-10 11 -18 25.5t-15.5 30t-14 31t-11.5 29.5z" />
    <glyph glyph-name="iacute" unicode="&#xed;" horiz-adv-x="217" 
d="M123 513q4 3 10 3q9 0 16 -7q2 -10 1 -20t-1 -20q0 -42 0.5 -84t2.5 -84q3 -51 1 -105.5t6 -105.5q1 -10 8.5 -18.5t15.5 -17.5t15 -19t9 -22q-19 -8 -40 -10.5t-43 -2.5t-43.5 1t-41.5 1q-9 0 -13.5 9t-4.5 17q7 9 15.5 16.5t16 15t12.5 16.5t5 22q0 71 -1 141.5
t-1 142.5q0 12 -1 27.5t-6 26.5q-8 6 -16.5 11.5t-16.5 11.5t-13 14t-5 19v6q28 6 56 9t57 6zM193 716q-6 -15 -12.5 -32t-15 -34t-17.5 -33t-18 -28q-10 -4 -19.5 -5t-18.5 -1h-31q5 12 15.5 30t20 36.5t16.5 36t6 30.5q12 0 25 1t25 1q6 0 12 -0.5t12 -1.5z" />
    <glyph glyph-name="icircumflex" unicode="&#xee;" horiz-adv-x="217" 
d="M123 513q4 3 10 3q9 0 16 -7q2 -10 1 -20t-1 -20q0 -42 0.5 -84t2.5 -84q3 -51 1 -105.5t6 -105.5q1 -10 8.5 -18.5t15.5 -17.5t15 -19t9 -22q-19 -8 -40 -10.5t-43 -2.5t-43.5 1t-41.5 1q-9 0 -13.5 9t-4.5 17q7 9 15.5 16.5t16 15t12.5 16.5t5 22q0 71 -1 141.5
t-1 142.5q0 12 -1 27.5t-6 26.5q-8 6 -16.5 11.5t-16.5 11.5t-13 14t-5 19v6q28 6 56 9t57 6zM74 653h34q7 0 13 -0.5t13 -0.5q0 -8 7.5 -16.5t18.5 -17.5t22.5 -17.5t17.5 -15.5h-35q-11 0 -21.5 0.5t-21.5 2.5q-9 5 -16.5 10t-14.5 11q-7 -6 -14 -11t-16 -10
q-11 -2 -21.5 -2.5t-21.5 -0.5h-35q6 7 17.5 15.5t22.5 18t19 18t6 15.5h4q5 0 10.5 0.5t11.5 0.5z" />
    <glyph glyph-name="idieresis" unicode="&#xef;" horiz-adv-x="217" 
d="M123 513q4 3 10 3q9 0 16 -7q2 -10 1 -20t-1 -20q0 -42 0.5 -84t2.5 -84q3 -51 1 -105.5t6 -105.5q1 -10 8.5 -18.5t15.5 -17.5t15 -19t9 -22q-19 -8 -40 -10.5t-43 -2.5t-43.5 1t-41.5 1q-9 0 -13.5 9t-4.5 17q7 9 15.5 16.5t16 15t12.5 16.5t5 22q0 71 -1 141.5
t-1 142.5q0 12 -1 27.5t-6 26.5q-8 6 -16.5 11.5t-16.5 11.5t-13 14t-5 19v6q28 6 56 9t57 6zM161 675l21 1q17 0 30.5 -14.5t13.5 -32.5q-1 -26 -10.5 -42t-38.5 -16q-11 0 -20 6t-16 15.5t-10.5 21t-3.5 21.5q0 5 4 11.5t9 12t11 10t10 6.5zM26 675l21 1q17 0 30.5 -14.5
t13.5 -32.5q-1 -26 -10.5 -42t-38.5 -16q-11 0 -20 6t-16 15.5t-10.5 21t-3.5 21.5q0 5 4 11.5t9 12t11 10t10 6.5z" />
    <glyph glyph-name="ntilde" unicode="&#xf1;" horiz-adv-x="376" 
d="M126 522q7 0 10.5 -9t5 -21t2 -23.5t1.5 -17.5q7 6 16 18t18.5 24t19 20.5t19.5 8.5t19 -4.5t18 -8.5q30 -12 49 -33t29.5 -47t14.5 -56t3 -59q0 -39 -6.5 -79t-14 -80.5t-14 -81t-7.5 -78.5q0 -19 4 -29t11.5 -16t16 -12t17.5 -18q2 -5 0 -10q0 -20 -14.5 -36t-34.5 -16
q-23 0 -37 16.5t-21.5 39t-10 47t-2.5 40.5q1 40 5.5 82.5t9.5 85t9.5 84.5t5.5 82q0 12 -5 26.5t-13 28t-19.5 22.5t-24.5 9q-17 0 -28 -11q-17 -14 -24 -27t-9.5 -27.5t-1.5 -31t1 -35.5q-1 -54 2 -107.5t6 -107.5q8 -17 19.5 -31t19.5 -31q-35 -8 -73 -9.5t-73 -1.5
q-15 0 -29 14q13 17 31 34.5t19 40.5q1 79 -1.5 164.5t-8.5 163.5q-1 13 -8.5 22.5t-16 17t-15.5 14t-7 13.5q0 6 16.5 13t37 12t39 8.5t24.5 3.5zM279 608q-9 -22 -25.5 -37t-43.5 -15q-17 0 -31 5.5t-26.5 11.5t-25 11.5t-25.5 5.5q-18 0 -29.5 -11.5t-19.5 -25.5v42
q12 20 29.5 35t43.5 15q17 0 30.5 -5t26.5 -11.5t25.5 -12t27.5 -5.5q16 0 26 11.5t16 23.5z" />
    <glyph glyph-name="ograve" unicode="&#xf2;" horiz-adv-x="345" 
d="M190 516q31 0 54 -13.5t39.5 -35.5t27.5 -50t17 -58t8 -58.5t2 -51.5q0 -38 -8.5 -82.5t-28 -82t-51.5 -62.5t-80 -25q-46 0 -76.5 27t-48.5 66.5t-25 84.5t-7 81q1 42 8.5 88t27 84.5t53.5 63t88 24.5zM166 445q-20 0 -32 -19t-18 -44t-8.5 -51t-2.5 -39t-0.5 -34.5
t1 -47t5.5 -51.5t11.5 -47t19.5 -34.5t31 -13.5q25 0 40.5 16t23.5 38.5t10.5 47.5t2.5 43q0 13 0.5 36t-0.5 49.5t-4.5 54t-11 50t-19.5 36.5t-31 14q-5 0 -9 -1t-9 -3zM105 690q5 1 11 1.5t11 0.5q12 0 23.5 -1t23.5 -1q0 -15 6 -31t15 -31.5t18 -30.5t14 -29h-28
q-9 0 -17.5 1t-17.5 5q-10 11 -18 25.5t-15.5 30t-14 31t-11.5 29.5z" />
    <glyph glyph-name="oacute" unicode="&#xf3;" horiz-adv-x="345" 
d="M190 516q31 0 54 -13.5t39.5 -35.5t27.5 -50t17 -58t8 -58.5t2 -51.5q0 -38 -8.5 -82.5t-28 -82t-51.5 -62.5t-80 -25q-46 0 -76.5 27t-48.5 66.5t-25 84.5t-7 81q1 42 8.5 88t27 84.5t53.5 63t88 24.5zM166 445q-20 0 -32 -19t-18 -44t-8.5 -51t-2.5 -39t-0.5 -34.5
t1 -47t5.5 -51.5t11.5 -47t19.5 -34.5t31 -13.5q25 0 40.5 16t23.5 38.5t10.5 47.5t2.5 43q0 13 0.5 36t-0.5 49.5t-4.5 54t-11 50t-19.5 36.5t-31 14q-5 0 -9 -1t-9 -3zM251 689q-6 -15 -12.5 -32t-15 -34t-17.5 -33t-18 -28q-10 -4 -19.5 -5t-18.5 -1h-31q5 12 15.5 30
t20 36.5t16.5 36t6 30.5q12 0 25 1t25 1q6 0 12 -0.5t12 -1.5z" />
    <glyph glyph-name="ocircumflex" unicode="&#xf4;" horiz-adv-x="345" 
d="M190 516q31 0 54 -13.5t39.5 -35.5t27.5 -50t17 -58t8 -58.5t2 -51.5q0 -38 -8.5 -82.5t-28 -82t-51.5 -62.5t-80 -25q-46 0 -76.5 27t-48.5 66.5t-25 84.5t-7 81q1 42 8.5 88t27 84.5t53.5 63t88 24.5zM166 445q-20 0 -32 -19t-18 -44t-8.5 -51t-2.5 -39t-0.5 -34.5
t1 -47t5.5 -51.5t11.5 -47t19.5 -34.5t31 -13.5q25 0 40.5 16t23.5 38.5t10.5 47.5t2.5 43q0 13 0.5 36t-0.5 49.5t-4.5 54t-11 50t-19.5 36.5t-31 14q-5 0 -9 -1t-9 -3zM153 625h34q7 0 13 -0.5t13 -0.5q0 -8 7.5 -16.5t18.5 -17.5t22.5 -17.5t17.5 -15.5h-35
q-11 0 -21.5 0.5t-21.5 2.5q-9 5 -16.5 10t-14.5 11q-7 -6 -14 -11t-16 -10q-11 -2 -21.5 -2.5t-21.5 -0.5h-35q6 7 17.5 15.5t22.5 18t19 18t6 15.5h4q5 0 10.5 0.5t11.5 0.5z" />
    <glyph glyph-name="otilde" unicode="&#xf5;" horiz-adv-x="345" 
d="M190 516q31 0 54 -13.5t39.5 -35.5t27.5 -50t17 -58t8 -58.5t2 -51.5q0 -38 -8.5 -82.5t-28 -82t-51.5 -62.5t-80 -25q-46 0 -76.5 27t-48.5 66.5t-25 84.5t-7 81q1 42 8.5 88t27 84.5t53.5 63t88 24.5zM166 445q-20 0 -32 -19t-18 -44t-8.5 -51t-2.5 -39t-0.5 -34.5
t1 -47t5.5 -51.5t11.5 -47t19.5 -34.5t31 -13.5q25 0 40.5 16t23.5 38.5t10.5 47.5t2.5 43q0 13 0.5 36t-0.5 49.5t-4.5 54t-11 50t-19.5 36.5t-31 14q-5 0 -9 -1t-9 -3zM289 607q-9 -22 -25.5 -37t-43.5 -15q-17 0 -31 5.5t-26.5 11.5t-25 11.5t-25.5 5.5
q-18 0 -29.5 -11.5t-19.5 -25.5v42q12 20 29.5 35t43.5 15q17 0 30.5 -5t26.5 -11.5t25.5 -12t27.5 -5.5q16 0 26 11.5t16 23.5z" />
    <glyph glyph-name="oslash" unicode="&#xf8;" horiz-adv-x="345" 
d="M-24 -4l33 21q6 9 21 35q8 15 18 32q-20 41 -28 87.5t-7 84.5q1 42 8.5 88t27 84.5t53.5 63t88 24.5q22 0 40 -7t32 -19q2 4 4 7q10 21 10 23q0 5 -1.5 10t-2.5 10h111q-10 -9 -21.5 -17t-17.5 -19l-39 -73q20 -44 27 -94t6 -88q0 -38 -8.5 -82.5t-28 -82t-51.5 -62.5
t-80 -25q-26 0 -45.5 8.5t-36.5 22.5q-4 -9 -4 -17q0 -7 4 -15q-13 -1 -27 -1h-28q-14 0 -28.5 0.5t-28.5 0.5zM173 64q25 0 40.5 16t23.5 38.5t10.5 47.5t2.5 43q0 17 0.5 49t-2.5 67l-121 -225q8 -17 19 -26.5t27 -9.5zM166 445q-20 0 -32 -19t-18 -44t-8.5 -51t-2.5 -39
q-1 -15 -1 -42t3 -58q0 2 1 3q24 44 47.5 88.5t45.5 85.5q13 26 25 49q-16 31 -42 31q-5 0 -9 -1t-9 -3z" />
    <glyph glyph-name="ugrave" unicode="&#xf9;" horiz-adv-x="385" 
d="M205 499q29 3 58.5 8t58.5 10l11 -11q-5 -68 -6 -135q-1 -68 -0.5 -135t-0.5 -135q0 -13 6 -23t14.5 -18.5t17 -17.5t11.5 -21q-29 -8 -60.5 -11.5t-63.5 -3.5q-6 25 -6 51q-9 -5 -19.5 -14t-21.5 -18t-21.5 -15.5t-19.5 -6.5q-45 0 -70.5 25t-39 62t-16.5 78t-3 74
q1 51 12 96t19 95q-8 16 -21 27.5t-26 23.5q9 9 23 15q25 3 49.5 7.5t49.5 7.5l7 -8q-8 -62 -19 -124t-13 -124q0 -14 0.5 -42.5t6 -57t16.5 -50t32 -21.5q9 0 21.5 5.5t24 14.5t20 19t10.5 19q2 8 2 18.5v19.5l3 187q1 14 1.5 28.5t-1.5 27.5q-1 10 -8.5 18t-16 15.5
t-15.5 15.5t-7 19zM123 676q5 1 11 1.5t11 0.5q12 0 23.5 -1t23.5 -1q0 -15 6 -31t15 -31.5t18 -30.5t14 -29h-28q-9 0 -17.5 1t-17.5 5q-10 11 -18 25.5t-15.5 30t-14 31t-11.5 29.5z" />
    <glyph glyph-name="uacute" unicode="&#xfa;" horiz-adv-x="385" 
d="M205 499q29 3 58.5 8t58.5 10l11 -11q-5 -68 -6 -135q-1 -68 -0.5 -135t-0.5 -135q0 -13 6 -23t14.5 -18.5t17 -17.5t11.5 -21q-29 -8 -60.5 -11.5t-63.5 -3.5q-6 25 -6 51q-9 -5 -19.5 -14t-21.5 -18t-21.5 -15.5t-19.5 -6.5q-45 0 -70.5 25t-39 62t-16.5 78t-3 74
q1 51 12 96t19 95q-8 16 -21 27.5t-26 23.5q9 9 23 15q25 3 49.5 7.5t49.5 7.5l7 -8q-8 -62 -19 -124t-13 -124q0 -14 0.5 -42.5t6 -57t16.5 -50t32 -21.5q9 0 21.5 5.5t24 14.5t20 19t10.5 19q2 8 2 18.5v19.5l3 187q1 14 1.5 28.5t-1.5 27.5q-1 10 -8.5 18t-16 15.5
t-15.5 15.5t-7 19zM269 697q-6 -15 -12.5 -32t-15 -34t-17.5 -33t-18 -28q-10 -4 -19.5 -5t-18.5 -1h-31q5 12 15.5 30t20 36.5t16.5 36t6 30.5q12 0 25 1t25 1q6 0 12 -0.5t12 -1.5z" />
    <glyph glyph-name="ucircumflex" unicode="&#xfb;" horiz-adv-x="385" 
d="M205 499q29 3 58.5 8t58.5 10l11 -11q-5 -68 -6 -135q-1 -68 -0.5 -135t-0.5 -135q0 -13 6 -23t14.5 -18.5t17 -17.5t11.5 -21q-29 -8 -60.5 -11.5t-63.5 -3.5q-6 25 -6 51q-9 -5 -19.5 -14t-21.5 -18t-21.5 -15.5t-19.5 -6.5q-45 0 -70.5 25t-39 62t-16.5 78t-3 74
q1 51 12 96t19 95q-8 16 -21 27.5t-26 23.5q9 9 23 15q25 3 49.5 7.5t49.5 7.5l7 -8q-8 -62 -19 -124t-13 -124q0 -14 0.5 -42.5t6 -57t16.5 -50t32 -21.5q9 0 21.5 5.5t24 14.5t20 19t10.5 19q2 8 2 18.5v19.5l3 187q1 14 1.5 28.5t-1.5 27.5q-1 10 -8.5 18t-16 15.5
t-15.5 15.5t-7 19zM149 626h34q7 0 13 -0.5t13 -0.5q0 -8 7.5 -16.5t18.5 -17.5t22.5 -17.5t17.5 -15.5h-35q-11 0 -21.5 0.5t-21.5 2.5q-9 5 -16.5 10t-14.5 11q-7 -6 -14 -11t-16 -10q-11 -2 -21.5 -2.5t-21.5 -0.5h-35q6 7 17.5 15.5t22.5 18t19 18t6 15.5h4
q5 0 10.5 0.5t11.5 0.5z" />
    <glyph glyph-name="yacute" unicode="&#xfd;" horiz-adv-x="406" 
d="M132 500q13 0 27 -3q0 -22 -2 -44t-2 -44q0 -14 3.5 -41t9 -60.5t13.5 -69.5t17 -67.5t18 -55.5t17 -34q12 21 24 51.5t22 64t16.5 65.5t6.5 56q1 39 -10.5 56t-25.5 27.5t-25.5 21t-11.5 34.5q0 18 8 33t30 15q8 0 16 -5q58 -23 78 -68.5t18 -104.5q-1 -63 -22 -130
t-56.5 -128.5t-84 -112t-103.5 -80.5q-20 -11 -38 -16.5t-40 -5.5q-17 0 -32.5 4.5t-28.5 14.5q-6 4 -10 16t1 25t21.5 23t51.5 10q13 0 24.5 -7.5t24.5 -7.5q9 0 23 7.5t28 19t24.5 23.5t10.5 21q0 6 -2.5 12t-4.5 11q-23 56 -36 99t-22 84.5t-16 86t-18 102.5
q-3 14 -10.5 24.5t-17.5 19t-20.5 16.5t-20.5 16q5 8 12.5 13t16.5 5q25 0 49 4t49 4zM274 697q-6 -15 -12.5 -32t-15 -34t-17.5 -33t-18 -28q-10 -4 -19.5 -5t-18.5 -1h-31q5 12 15.5 30t20 36.5t16.5 36t6 30.5q12 0 25 1t25 1q6 0 12 -0.5t12 -1.5z" />
    <glyph glyph-name="ydieresis" unicode="&#xff;" horiz-adv-x="406" 
d="M132 500q13 0 27 -3q0 -22 -2 -44t-2 -44q0 -14 3.5 -41t9 -60.5t13.5 -69.5t17 -67.5t18 -55.5t17 -34q12 21 24 51.5t22 64t16.5 65.5t6.5 56q1 39 -10.5 56t-25.5 27.5t-25.5 21t-11.5 34.5q0 18 8 33t30 15q8 0 16 -5q58 -23 78 -68.5t18 -104.5q-1 -63 -22 -130
t-56.5 -128.5t-84 -112t-103.5 -80.5q-20 -11 -38 -16.5t-40 -5.5q-17 0 -32.5 4.5t-28.5 14.5q-6 4 -10 16t1 25t21.5 23t51.5 10q13 0 24.5 -7.5t24.5 -7.5q9 0 23 7.5t28 19t24.5 23.5t10.5 21q0 6 -2.5 12t-4.5 11q-23 56 -36 99t-22 84.5t-16 86t-18 102.5
q-3 14 -10.5 24.5t-17.5 19t-20.5 16.5t-20.5 16q5 8 12.5 13t16.5 5q25 0 49 4t49 4zM252 665l21 1q17 0 30.5 -14.5t13.5 -32.5q-1 -26 -10.5 -42t-38.5 -16q-11 0 -20 6t-16 15.5t-10.5 21t-3.5 21.5q0 5 4 11.5t9 12t11 10t10 6.5zM117 665l21 1q17 0 30.5 -14.5
t13.5 -32.5q-1 -26 -10.5 -42t-38.5 -16q-11 0 -20 6t-16 15.5t-10.5 21t-3.5 21.5q0 5 4 11.5t9 12t11 10t10 6.5z" />
    <glyph glyph-name="germandbls" unicode="&#xdf;" horiz-adv-x="421" 
d="M270 733q21 0 42.5 -9t39 -25.5t28.5 -40t10 -52.5q0 -22 -8 -39.5t-19.5 -33t-24 -29.5t-20.5 -30q7 -10 16 -18l18 -16t17 -17.5t13 -21.5q6 -14 11 -31.5t8.5 -37t5 -38.5t1.5 -35q0 -37 -8 -79t-21.5 -84t-32 -80.5t-40.5 -68.5t-46 -49t-49 -21q-8 -1 -15 1.5
t-9.5 7t0.5 10.5t15 13q26 12 44.5 36t31 55t20 66t11.5 69t5 65t1 52q0 45 -15 87.5t-45 59.5q-10 5 -20.5 2.5t-20.5 -2.5v25q11 20 25 36.5t26 34t20 39t8 52.5t-11.5 51.5t-32.5 20.5q-24 0 -43 -23.5t-31.5 -55t-19 -63t-6.5 -47.5q0 -42 0.5 -84t2.5 -84
q3 -51 1 -105.5t6 -105.5q1 -10 8.5 -18.5t15.5 -17.5t15 -19t9 -22q-19 -8 -40 -10.5t-43 -2.5t-43.5 1t-41.5 1q-9 0 -13.5 9t-4.5 17q7 9 15.5 16.5t16 15t12.5 16.5t5 22q0 71 -1 141.5t-1 142.5q0 12 -1 27.5t-6 26.5q-8 6 -16.5 11.5t-16.5 11.5t-13 14t-5 19v6
q16 3 31.5 5.5t32.5 4.5q1 44 17 84.5t42.5 72t61.5 50t75 18.5z" />
    <glyph glyph-name="Eth" unicode="&#xd0;" horiz-adv-x="548" 
d="M70 360l60 -20q15 -1 31 -2q-2 59 0 118q1 28 -0.5 59.5t-8.5 57.5q-2 7 -9 14.5t-14.5 14.5t-13.5 12.5t-6 9.5q0 14 7.5 17t18.5 5q38 6 75 13.5t75 7.5q50 0 88.5 -17t67.5 -46t48.5 -67t31.5 -80.5t17 -87t4 -85.5q-1 -71 -19 -141.5t-56 -127.5t-97 -92.5
t-142 -35.5q-20 0 -42.5 1.5t-44.5 6.5t-42 13.5t-35 22.5q-22 19 -38.5 50t-15.5 60q0 14 4.5 31.5t13.5 32.5t22 25t30 10l9 -1q9 -5 16 -13.5t7 -19.5l-1 -7q-11 -13 -24.5 -24.5t-13.5 -28.5q0 -26 11.5 -45t30 -31t42 -17.5t46.5 -5.5q68 0 114 32.5t74 82t40.5 109.5
t13.5 116q0 28 -2.5 62t-10 68t-20.5 66t-33 57t-47 40t-63 15q-11 0 -18.5 -8.5t-7.5 -19.5v-9q2 -55 4.5 -110t4.5 -110h26q18 1 31.5 3t29.5 5l48 11v-105q-33 7 -48.5 11t-28.5 6t-32 2q-9 1 -25 1q1 -43 1 -85.5v-84.5q0 -11 5.5 -23.5t14 -25t16.5 -24.5t13 -22
q-20 -5 -41 -6.5t-42 -1.5h-53t-50 12q0 12 7.5 22.5t16.5 19.5t17 18t8 20q0 35 -3 69.5t-2 69.5v40q-10 -1 -21 -2q-38 -3 -70 -13q-1 12 -1 25v27q0 13 0.5 26.5t0.5 26.5z" />
    <glyph glyph-name="Thorn" unicode="&#xde;" horiz-adv-x="431" 
d="M271 527q33 0 61 -11t48.5 -30.5t32 -47.5t10.5 -61q-1 -51 -29 -89.5t-68.5 -68.5t-86.5 -54.5t-82 -48.5v-18.5t-1 -0.5q0 -2 0.5 -3.5t0.5 -3.5q1 -12 9 -21.5t17 -18.5t15.5 -19.5t5.5 -24.5q-47 -6 -94 -6q-16 0 -28 -0.5t-22.5 1t-21.5 5t-24 11.5q16 28 26 39.5
t15.5 22t7 26.5t0.5 53q-1 18 0 55t2.5 81.5t2.5 92.5t2 87.5t0 66t-3 28.5q-19 17 -29 41t-18 47q40 7 81.5 7.5t80.5 0.5q18 0 33 -4q-8 -17 -17.5 -33.5t-17.5 -33t-14 -34t-6 -37.5v-8q35 5 66 8.5t45 3.5zM159 419q-1 -51 -3 -104t3 -104q23 8 51.5 24t54 37.5t43 47
t17.5 52.5q0 21 -7.5 36t-20.5 24.5t-30 13.5t-35 4q-9 0 -21.5 -0.5t-24 -3.5t-19.5 -9t-8 -18zM155 108q0 -2 1 -6q-1 2 -1 6z" />
    <glyph glyph-name="thorn" unicode="&#xfe;" horiz-adv-x="370" 
d="M153 452q15 15 28.5 32t27.5 34l12 1q36 0 63.5 -18t45.5 -46.5t26.5 -62.5t8.5 -65q-1 -42 -14 -81t-34.5 -74.5t-48.5 -68t-56 -60.5q-5 -5 -14 -11.5t-18.5 -14t-17.5 -14.5t-10 -11q-5 -9 -5.5 -28t-2.5 -30q12 -13 28 -25.5t19 -32.5q-6 -6 -14 -6.5t-16 -0.5
q-23 0 -46 -2.5t-46 -2.5q-31 0 -54 8q1 12 7 21t13 16.5t13 15t9 16.5q4 14 4 33v34v554q0 9 -1.5 18t-9.5 15q-8 14 -19.5 25.5t-19.5 25.5q11 7 27.5 12t34.5 8t35 5t31 4q5 -26 6 -49t0 -49zM146 357q-2 -72 -3 -144.5t3 -143.5q25 18 49 46t43 61t31 67.5t12 65.5
q0 14 -3.5 33t-12 36.5t-21.5 29.5t-31 12q-10 0 -21.5 -6t-21.5 -15.5t-17 -20.5t-7 -21z" />
    <glyph glyph-name="eth" unicode="&#xf0;" horiz-adv-x="345" 
d="M190 516q7 0 17 -2q-8 15 -17.5 29t-20.5 26l-67 -43q-8 -4 -13 -2.5t-5 9.5v7q1 8 6.5 17t13.5 14l37 24q-17 12 -36 21q-18 8 -38.5 13.5t-37.5 19.5q11 8 23.5 11t24.5 3q29 0 55.5 -11.5t49.5 -30.5l55 35q8 5 13 3.5t5 -9.5v-7q-1 -8 -6.5 -17t-13.5 -14l-26 -17
q21 -22 38 -48t30.5 -52t23 -50.5t15.5 -43.5q13 -39 18 -80t4 -72q0 -38 -8.5 -82.5t-28 -82t-51.5 -62.5t-80 -25q-46 0 -76.5 27t-48.5 66.5t-25 84.5t-7 81q1 42 8.5 88t27 84.5t53.5 63t88 24.5zM105 292q0 -13 -0.5 -34.5t1 -47t5.5 -51.5t11.5 -47t19.5 -34.5
t31 -13.5q25 0 40.5 16t23.5 38.5t10.5 47.5t2.5 43q0 13 0.5 36t-0.5 49.5t-4.5 54t-11 50t-19.5 36.5t-31 14q-28 0 -43.5 -17.5t-23.5 -42t-10 -51.5t-2 -46z" />
    <glyph glyph-name="trademark" unicode="&#x2122;" horiz-adv-x="684" 
d="M260 662q6 0 8.5 -1t3.5 -2.5t2 -4.5t4 -6q4 -9 8 -17.5t8 -17.5l-5 -11q-10 0 -19 4.5t-19 6.5q-17 3 -32.5 3.5t-32.5 2.5l-5 -4q1 -14 1.5 -40t1 -58t0.5 -66t1.5 -64t3 -52.5t5.5 -31.5q4 -10 13.5 -16t9.5 -17q-5 -5 -12.5 -6t-14.5 -1h-44.5t-44.5 2v3q0 7 5 12
l11 11t11.5 14.5t5.5 23.5q1 64 -1.5 127.5t-0.5 127.5q0 8 -0.5 16.5t-4.5 16.5h-18.5t-21.5 -1t-21 -3t-17 -5q-8 -5 -13.5 -7t-16.5 -2v5q1 17 10.5 30t16.5 27q17 -1 34 -4t35 -3q25 0 49.5 1.5t50.5 1.5q11 0 22.5 2.5t22.5 2.5zM430 661q7 0 7 -7q0 -11 -11 -22
t-11 -19q0 -2 6.5 -15t15 -28t16.5 -29t10 -18h7l28 46t25 48q-7 11 -16 19t-14 19q7 3 18 4t23 1.5t23.5 0.5h19.5t15.5 -0.5t15.5 -1.5q-1 -8 -6 -14t-10.5 -12t-10 -12.5t-4.5 -14.5q0 -7 2 -18t5 -23t5.5 -23.5t4.5 -19.5q8 -45 14.5 -89t15.5 -89q2 -9 2.5 -20t5.5 -19
q8 -7 15.5 -12t15.5 -13q2 -1 2 -6q0 -6 -1 -9q-17 0 -35.5 -0.5t-36.5 -0.5q-10 0 -26.5 0.5t-25.5 5.5q7 9 19.5 19.5t12.5 21.5q0 2 -2.5 19t-6 41.5t-8 52.5t-8.5 52.5t-7 42t-4 21.5q-20 -24 -34 -51.5t-31 -53.5q-4 -5 -7.5 -7.5t-9.5 -4.5q-16 26 -28 53t-26 53h-7
q-8 -45 -13.5 -90t-16.5 -90q-2 -8 -4 -15.5t-2 -15.5t5 -14.5t11 -12t11 -10t5 -8.5q0 -5 -11.5 -7t-26.5 -3t-29 -0.5t-19 0.5q-9 0 -18.5 2t-16.5 9q8 9 16.5 17t16.5 16q8 28 10 56t9 56q3 12 8 39t10.5 56.5t10 56t4.5 36.5q0 7 -4 12.5t-9 11t-9 11t-4 12.5q0 3 6.5 4
t9.5 1q22 0 43.5 1t43.5 1z" />
    <glyph glyph-name="degree" unicode="&#xb0;" horiz-adv-x="257" 
d="M236 689q0 -49 -28.5 -75t-75.5 -26q-46 0 -75 26t-29 75t28.5 75t75.5 26q46 0 75 -26t29 -75zM175 690q0 48 -43 48t-43 -48t42 -48q44 0 44 48z" />
    <glyph glyph-name="exclamdown" unicode="&#xa1;" horiz-adv-x="341" 
d="M238 -200h-135l34 487h67zM226 344h-111v123h111v-123z" />
    <glyph glyph-name="questiondown" unicode="&#xbf;" horiz-adv-x="494" 
d="M336 26l95 -19q-19 -207 -202 -207q-89 0 -140 50t-51 134q0 42 17.5 84t82.5 95q44 37 53.5 57.5t9.5 54.5v26h92v-20q0 -72 -11.5 -100.5t-55.5 -66.5q-44 -37 -60.5 -64t-16.5 -68q0 -46 23 -70t63 -24q93 0 101 138zM302 359h-109v120h109v-120z" />
    <glyph glyph-name="minus" unicode="&#x2212;" horiz-adv-x="350" 
d="M32 389l37 -26q24 -2 48 -2.5t48 -0.5t48.5 1t48.5 1q16 0 28.5 8t26.5 15v-138q-15 7 -29.5 16t-31.5 9q-19 0 -51 0.5t-65.5 -1t-63 -6t-44.5 -15.5q-1 17 -1 34.5v34.5t0.5 35t0.5 35z" />
    <glyph glyph-name="twosuperior" unicode="&#xb2;" horiz-adv-x="255" 
d="M130 678q51 0 84 -27.5t32 -81.5q0 -33 -18.5 -67.5t-43.5 -68t-51 -66t-41 -62.5q22 6 44 6q11 0 22.5 -2t22.5 -2t19 2t15 5t14 6.5t16 6.5q4 -8 4 -15q0 -5 -4.5 -15t-10.5 -20.5t-12 -20t-9 -13.5q-21 8 -43 10.5t-44 2.5q-21 0 -42.5 -1t-42.5 -1q-3 0 -9 -0.5
t-12 0.5t-10 3.5t-4 7.5q8 19 24.5 44t36 52.5t40.5 56t38 56t28 51.5t11 42q1 23 -18 41t-41 18q-27 0 -40.5 -12.5t-20.5 -27.5t-11.5 -27.5t-13.5 -12.5q-11 0 -14.5 10t-2.5 19q0 22 8.5 41t23.5 33t34.5 21.5t41.5 7.5z" />
    <glyph glyph-name="threesuperior" unicode="&#xb3;" horiz-adv-x="261" 
d="M142 683q17 0 34.5 -6t32 -17t23.5 -26.5t8 -34.5q0 -15 -6.5 -26.5t-16 -21t-19.5 -19t-17 -19.5q12 -13 28 -22.5t25 -26.5t15.5 -43t5.5 -46q0 -36 -14.5 -71.5t-39 -64t-58 -46.5t-71.5 -18q-9 0 -20.5 2.5t-22 8t-17.5 13.5t-7 19q1 18 15.5 25t30.5 7q10 0 17 -4
t13 -9t12.5 -9t15.5 -4q6 0 9 2q22 9 36 24.5t22 35t11.5 41t3.5 42.5q0 29 -12 56.5t-42 38.5q-10 4 -20 2t-21 -2v17q11 13 24.5 24t25.5 22.5t20 26t8 34.5q1 20 -11 33.5t-32 13.5q-25 0 -39 -11t-22.5 -24t-13 -24t-10.5 -11q-9 0 -12 8.5t-3 15.5q0 19 11 36t27 30
t35.5 20.5t37.5 7.5z" />
    <glyph glyph-name="onequarter" unicode="&#xbc;" horiz-adv-x="577" 
d="M107 679q5 0 8.5 -1.5t8.5 -1.5q3 -84 1 -167.5t-4 -167.5q0 -10 0.5 -19.5t0.5 -18.5q10 -11 21.5 -20t16.5 -23q-5 -2 -9 -4t-9 -2l-110 1q0 4 -1 7t-1 7q9 13 16 18t12 9.5t7.5 13t2.5 30.5q1 59 1 117.5t1 117.5q0 5 -3 10t-8 5q-10 0 -20.5 -7.5t-23.5 -7.5
q0 5 -1.5 9t-1.5 8q16 10 29 19t24 18.5t21 21t21 28.5zM510 425q0 -8 -3.5 -14t-8.5 -11.5t-9.5 -11.5t-5.5 -13q-2 -9 -1 -18t1 -19q-2 -42 -3.5 -82.5t-2.5 -82.5q0 -11 3 -18.5t16 -7.5q8 0 14 5t11 11t10.5 11.5t13.5 7.5q6 -5 6.5 -13t0.5 -16q-1 -19 -1 -40.5
t-6 -39.5q-8 2 -13.5 8t-10.5 12t-10.5 11t-14.5 5q-6 0 -14 -4.5t-9 -11.5q0 -18 2 -27.5t6 -17t9.5 -15.5t12.5 -22q-14 -2 -27.5 -3t-27.5 -1t-28 1t-28 3q6 14 18 24.5t13 27.5q0 10 0.5 24t-7.5 20q-10 2 -19.5 3t-18.5 1q-20 0 -39 -2t-39 -2q-5 0 -6.5 4.5t-1.5 8.5
q0 10 8.5 36t21.5 59.5t29.5 69.5t32.5 66.5t30.5 50.5t23.5 21q18 2 36.5 2h35.5zM425 346q-9 -11 -22.5 -37.5t-26 -57.5t-22.5 -60t-12 -43q8 -1 16 -1.5t16 -0.5q9 0 17 0.5t16 1.5q9 -3 13.5 7t6 24t1.5 28.5v19.5q1 29 2 60t-5 59zM33 -3l41 28q8 11 27 44.5t44 80
t58 102.5t87.5 166.5t75.5 152.5l34 68t13 28q0 7 -2 13.5t-5 13.5h114q-13 -12 -27.5 -22t-22.5 -25l-320 -603q-9 -13 -9 -27q0 -9 6 -20q-18 -1 -21.5 -1h-21.5q-16 0 -34.5 0.5t-36.5 0.5z" />
    <glyph glyph-name="onehalf" unicode="&#xbd;" horiz-adv-x="607" 
d="M483 428q51 0 84 -27.5t32 -81.5q0 -33 -18.5 -67.5t-43.5 -68t-51 -66t-41 -62.5q22 6 44 6q11 0 22.5 -2t22.5 -2q22 0 33.5 7t30.5 13q4 -8 4 -15q0 -5 -5 -15t-11 -20.5t-12 -20t-9 -13.5q-20 8 -42 10.5t-44 2.5q-21 0 -42.5 -1t-42.5 -1q-3 0 -9 -0.5t-12 0.5
t-10 3.5t-4 7.5q8 19 24.5 44t36 52.5t40.5 56t38 56t28 51.5t11 42q1 23 -18 41t-41 18q-27 0 -40.5 -12.5t-20.5 -27.5t-11.5 -27.5t-13.5 -12.5q-11 0 -14.5 10t-2.5 19q0 22 8.5 41t23.5 33t34.5 21.5t41.5 7.5zM107 679q5 0 8.5 -1.5t8.5 -1.5q3 -84 1 -167.5
t-4 -167.5q0 -10 0.5 -19.5t0.5 -18.5q10 -11 21.5 -20t16.5 -23q-5 -2 -9 -4t-9 -2l-110 1q0 4 -1 7t-1 7q9 13 16 18t12 9.5t7.5 13t2.5 30.5q1 59 1 117.5t1 117.5q0 5 -3 10t-8 5q-10 0 -20.5 -7.5t-23.5 -7.5q0 5 -1.5 9t-1.5 8q16 10 29 19t24 18.5t21 21t21 28.5z
M33 -3l41 28q8 11 27 44.5t44 80t58 102.5t87.5 166.5t75.5 152.5l34 68t13 28q0 7 -2 13.5t-5 13.5h114q-13 -12 -27.5 -22t-22.5 -25l-320 -603q-9 -13 -9 -27q0 -9 6 -20q-18 -1 -21.5 -1h-21.5q-16 0 -34.5 0.5t-36.5 0.5z" />
    <glyph glyph-name="onesuperior" unicode="&#xb9;" horiz-adv-x="168" 
d="M107 679q5 0 8.5 -1.5t8.5 -1.5q3 -84 1 -167.5t-4 -167.5q0 -10 0.5 -19.5t0.5 -18.5q10 -11 21.5 -20t16.5 -23q-5 -2 -9 -4t-9 -2l-110 1q0 4 -1 7t-1 7q9 13 16 18t12 9.5t7.5 13t2.5 30.5q1 59 1 117.5t1 117.5q0 5 -3 10t-8 5q-10 0 -20.5 -7.5t-23.5 -7.5
q0 5 -1.5 9t-1.5 8q16 10 29 19t24 18.5t21 21t21 28.5z" />
    <glyph glyph-name="ordmasculine" unicode="&#xba;" horiz-adv-x="228" 
d="M125 591q31 0 50 -19t30 -46.5t14.5 -58t3.5 -53.5q0 -25 -5.5 -54t-18.5 -54t-34 -41.5t-53 -16.5q-30 0 -50 17.5t-32 44t-16.5 56t-4.5 53.5q0 28 5 58.5t17.5 55.5t35 41.5t58.5 16.5zM110 544q-13 0 -21 -12.5t-12.5 -29.5t-6 -33.5t-1.5 -25.5v-37.5t4 -50.5
t13.5 -44t27.5 -19q17 0 27 10.5t15 25.5t7 31.5t2 28.5q0 13 0.5 39t-3.5 52.5t-13 46.5t-28 20q-3 0 -5.5 -0.5t-5.5 -1.5z" />
    <glyph glyph-name="ordfeminine" unicode="&#xaa;" horiz-adv-x="247" 
d="M100 587q9 0 22 -3t25.5 -8t23.5 -12t16 -15q6 -8 4.5 -21.5t-1.5 -22.5t2.5 -38.5t6.5 -62.5t8 -62.5t7 -38.5q4 -13 12 -22.5t14 -20.5q-20 -5 -39.5 -7.5t-39.5 -2.5q-2 10 -3.5 19.5t-3.5 18.5q-16 -11 -32 -24.5t-36 -13.5q-15 0 -29.5 7.5t-25.5 19t-17.5 26
t-6.5 29.5q1 34 20 56t42.5 35.5t44 20.5t23.5 13v24t-3.5 29.5t-11 24.5t-20.5 10q-7 0 -12.5 -5t-10.5 -10.5t-11 -10.5t-13 -5q-11 0 -21 9.5t-10 20.5t9 19t21 13.5t25 8t21 2.5zM68 342q0 -14 8 -25t22 -11q7 0 15.5 5t16 12t13 15.5t5.5 15.5q0 14 -2 28t-7 27
q-12 -4 -24 -10t-22.5 -14t-17.5 -18.5t-7 -24.5z" />
    <glyph glyph-name="threequarters" unicode="&#xbe;" horiz-adv-x="640" 
d="M573 425q0 -8 -3.5 -14t-8.5 -11.5t-9.5 -11.5t-5.5 -13q-2 -9 -1 -18t1 -19q-2 -42 -3.5 -82.5t-2.5 -82.5q0 -11 3 -18.5t16 -7.5q8 0 14 5t11 11t10.5 11.5t13.5 7.5q6 -5 6.5 -13t0.5 -16q-1 -19 -1 -40.5t-6 -39.5q-8 2 -13.5 8t-10.5 12t-10.5 11t-14.5 5
q-6 0 -14 -4.5t-9 -11.5q0 -18 2 -27.5t6 -17t9.5 -15.5t12.5 -22q-14 -2 -27.5 -3t-27.5 -1t-28 1t-28 3q6 14 18 24.5t13 27.5q0 10 0.5 24t-7.5 20q-10 2 -19.5 3t-18.5 1q-20 0 -39 -2t-39 -2q-5 0 -6.5 4.5t-1.5 8.5q0 10 8.5 36t21.5 59.5t29.5 69.5t32.5 66.5
t30.5 50.5t23.5 21q18 2 36.5 2h35.5zM488 346q-9 -11 -22.5 -37.5t-26 -57.5t-22.5 -60t-12 -43q8 -1 16 -1.5t16 -0.5q9 0 17 0.5t16 1.5q9 -3 13.5 7t6 24t1.5 28.5v19.5q1 29 2 60t-5 59zM96 -3l41 28q8 11 27 44.5t44 80t58 102.5t87.5 166.5t75.5 152.5l34 68t13 28
q0 7 -2 13.5t-5 13.5h114q-13 -12 -27.5 -22t-22.5 -25l-320 -603q-9 -13 -9 -27q0 -9 6 -20q-18 -1 -21.5 -1h-21.5q-16 0 -34.5 0.5t-36.5 0.5zM150 678q17 0 34.5 -6t32 -17t23.5 -26.5t8 -34.5q0 -15 -6.5 -26.5t-16 -21t-19.5 -19t-17 -19.5q12 -13 28 -22.5t25 -26.5
t15.5 -43t5.5 -46q0 -36 -14.5 -71.5t-39 -64t-58 -46.5t-71.5 -18q-9 0 -20.5 2.5t-22 8t-17.5 13.5t-7 19q1 18 15.5 25t30.5 7q10 0 17 -4t13 -9t12.5 -9t15.5 -4q6 0 9 2q22 9 36 24.5t22 35t11.5 41t3.5 42.5q0 29 -12 56.5t-42 38.5q-10 4 -20 2t-21 -2v17
q11 13 24.5 24t25.5 22.5t20 26t8 34.5q1 20 -11 33.5t-32 13.5q-25 0 -39 -11t-22.5 -24t-13 -24t-10.5 -11q-9 0 -12 8.5t-3 15.5q0 19 11 36t27 30t35.5 20.5t37.5 7.5z" />
    <glyph glyph-name="one" unicode="1" horiz-adv-x="254" 
d="M162 650q7 0 13 -2t13 -2q5 -127 1.5 -254t-5.5 -254q0 -15 0.5 -29.5t0.5 -28.5q14 -17 32 -30t26 -35q-7 -2 -13.5 -5.5t-14.5 -3.5l-166 1q0 6 -2 11t-1 11q14 21 24.5 28t17.5 13.5t11 20t4 46.5q2 89 1.5 177.5t1.5 178.5q0 6 -4 14t-12 8q-15 0 -32 -11t-36 -11
q0 6 -2 12.5t-2 12.5q24 16 43.5 29.5t36.5 27.5t32.5 32t31.5 43z" />
    </font>
</defs>
</svg>
